<svg version="1.0" xmlns="http://www.w3.org/2000/svg" xmlns:xlink="http://www.w3.org/1999/xlink" x="0px" y="0px"
	 viewBox="0 0 800 800" style="enable-background:new 0 0 800 800;" xml:space="preserve">
<g>
	<path d="M677.4689331,473.1607971c-11.762085-3.4649658-23.5725708-6.7677917-35.3887939-10.0453796
		c-6.1517944-1.7064514-12.3900146-3.1063232-18.5214844-4.878479c-3.9349365-1.1371765-4.6383057-2.005127-2.0368652-5.4376526
		c2.2642822-2.987854,2.0795898-4.9944763-0.008728-8.0971069c-3.7518921-5.5747986-3.6481934-11.7015686,1.5380249-16.3788757
		c2.1289673-1.9200745,4.2286987-3.8760986,6.423584-5.7181702c2.2056274-1.8513184,3.1935425-4.5329285,1.6403809-7.585144
		c-0.611084-1.2010498-1.2262573-2.4057922-1.9343262-3.5502014c-1.5067749-2.4358826-1.6447754-4.8512573-0.1242065-7.3296509
		c0.4404907-0.7180176,0.7963257-1.487793,1.2598267-2.3639526c1.2146606,0.7258911,2.3920288,1.4682617,3.6048584,2.1476135
		c5.2724609,2.9542236,10.9442139,4.3357849,16.9536743,3.7314148c4.6204834-0.4647217,8.7544556-2.314209,12.3302002-5.3612061
		c5.866394-4.9989929,8.59375-11.5778809,9.9611816-18.9698792c1.2736206-6.8852844,0.8132935-13.5765991-2.2615967-19.838501
		c-4.2818604-8.7203064-11.5076294-13.8361206-21.000061-15.6474304c-3.0942383-0.5904541-6.2701416-0.8013916-9.4197998-1.036499
		c-2.0071411-0.1499329-4.0406494,0.0680542-6.0516357-0.0541382c-1.5074463-0.0915833-2.6680298-1.3943176-2.6112061-2.9496765
		c0.140686-3.8601379,0.4058838-7.7160645,0.6350098-11.5726624c0.1044922-1.7575378,0.262146-3.5120544,0.3603516-5.2697754
		c0.2440186-4.3713989,0.4633789-8.7441406,0.7005005-13.1159058c0.3418579-6.3013916,0.7102661-12.6014404,1.0304565-18.9038391
		c0.2571411-5.0620117,0.519165-10.125061,0.6734619-15.1909485c0.276123-9.0759277,0.524231-18.1533813,0.6885986-27.2320251
		c0.175293-9.6712494,0.3320923-19.344696,0.3143311-29.0169525c-0.0090942-4.8909302-0.18573-9.8063965-0.701416-14.6665497
		c-0.9721069-9.1604919-4.0697021-17.4371643-9.8847046-24.8369141
		c-4.0665283-5.1750488-7.1928101-11.0892792-10.7346191-16.6762848c-1.6759033-2.6436157-2.8917236-5.8506165-6.4542236-6.4733276
		c-2.0511475-0.3584137-4.2265015-0.4572449-6.2892456-0.2068176c-4.920166,0.5975037-9.7808838,0.7303619-14.7164917,0.0116882
		c-3.880127-0.5648956-7.5532227-1.5896454-11.1254272-3.1582642c-4.3895264-1.9273834-8.0844727-4.8164673-11.1459351-8.4017181
		c-4.5792847-5.3627014-7.7380371-11.5830841-9.5125732-18.3933258c-1.3557129-5.2020187-2.5806274-10.4779968-3.2911987-15.7975082
		c-0.8171997-6.1161804-1.0812378-12.3121033-1.4382324-18.4819794c-0.2505493-4.3309097-0.3344727-8.6758423-0.343689-13.0149002
		c-0.0077515-3.5926437,0.1865845-7.18647,0.3197021-10.7786942c0.2536011-6.849472-2.5829468-8.358017-7.6248169-9.7554588
		c-6.3143311-1.7501411-12.7077026-3.2461586-19.1195068-4.6024246c-4.2315674-0.8950729-8.553894-1.3658447-12.8395996-1.9987259
		c-3.8448181-0.567749-7.6910095-1.1287766-11.5442505-1.6340904c-3.1907043-0.418499-6.3926392-0.7527962-9.5899048-1.1219711
		c-3.8137512-0.4402657-7.6254883-0.8983498-11.4424133-1.3097916c-2.6427917-0.2848816-5.2917786-0.5125389-7.9394226-0.7505302
		c-5.1312866-0.461277-10.2628784-0.9195251-15.3958435-1.3626518c-1.6958313-0.1464767-3.3947144-0.2721939-5.0947876-0.3558922
		c-5.004364-0.2462273-10.0092468-0.483799-15.0151367-0.6929665c-6.092804-0.2544632-12.1869812-0.4732933-18.2799377-0.725235
		c-0.2390137-0.0099182-0.4706116-0.2034531-0.7055969-0.3114395c-16.063385,0-32.1266479,0-48.1898804,0
		c-0.232605,0.1154671-0.4625244,0.3256416-0.6981812,0.3322792c-4.6253662,0.129921-9.2550964,0.1556358-13.8764343,0.368248
		c-5.4458923,0.2505989-10.8845825,0.6584282-16.3262634,0.9988594c-1.9266357,0.1205063-3.8549194,0.2179909-5.7790222,0.3700943
		c-5.5322876,0.4372444-11.0632324,0.8926392-16.5938416,1.3493767c-4.1786499,0.3450546-8.3634949,0.6335487-12.5320435,1.07407
		c-4.5999756,0.4860687-9.1856995,1.1074333-13.7754211,1.6874542c-4.4781494,0.565731-8.9690552,1.0541534-13.4256897,1.7577896
		c-5.1586609,0.8144836-10.3499146,1.5686264-15.4109497,2.8188362c-6.2467499,1.5430794-12.4264679,3.4126396-18.5337372,5.445652
		c-3.8186188,1.2711334-7.4957123,3.0064011-11.1509705,4.7160416c-2.8121948,1.3153381-4.3458557,4.7389832-3.6570892,7.7230377
		c1.6012268,6.9367065,2.8921967,13.9143448,3.0493469,21.0583725c0.1117554,5.0847092,0.5359802,10.1857224,0.2712708,15.2507706
		c-0.5620422,10.7550812-1.4259338,21.4926758-5.4001923,31.6951294c-2.2449493,5.76297-5.1509399,11.0926514-9.0947723,15.8976898
		c-4.3816528,5.3383331-9.6877136,9.2798004-16.2513123,11.4064331c-7.448822,2.4134521-14.8058777,1.6420746-22.0336914-1.041214
		c-1.7884674-0.6640472-3.4972687-1.5433197-5.2879181-2.2007446c-1.3348389-0.4900208-2.6461334-0.5186768-3.6702118,0.8149872
		c-3.9713898,5.1716919-8.1106873,10.2367401-10.9665833,16.1527405c-2.3503418,4.8693237-3.7950897,9.9613495-3.6737518,15.4636383
		c0.1253967,5.6763306-0.0159607,11.3578644,0.0421906,17.036377c0.0443726,4.3386383,0.1774902,8.6772766,0.3448944,13.0132294
		c0.1799927,4.6628418,0.4168091,9.3240204,0.6820374,13.9830017c0.3131104,5.5006866,0.6575012,10.9998779,1.036499,16.4963684
		c0.3045502,4.4137573,0.6306152,8.827179,1.0381927,13.2322083c0.515976,5.5763245,1.1486053,11.141571,1.6842499,16.7160339
		c0.390274,4.0604858,0.6351624,8.1355896,1.07164,12.1905212c0.4833832,4.4890442,1.1375122,8.9592896,1.6681213,13.4434814
		c0.5048981,4.2671814,0.8847351,8.5496826,1.4308167,12.8113403c0.7311096,5.7033997,1.5744934,11.392334,2.3585663,17.0889893
		c0.253952,1.8451233,0.5074005,3.6915588,0.6995087,5.5437317c0.2650604,2.5530396-1.1447449,3.6908875-3.7133942,3.4428101
		c-9.915802-0.9575195-19.7045441-0.6423645-28.8050232,4.0507202c-7.2531967,3.7404785-11.685112,9.6717529-13.2702103,17.7511902
		c-1.3060913,6.6578979-0.4887543,13.0870056,2.3587418,19.1156311
		c3.9645004,8.3940735,10.6847382,13.3461609,19.9568176,14.8020325c6.9868011,1.0969849,13.4481964-0.3618774,19.6206665-3.5730896
		c0.8455811-0.4398499,1.6988831-0.8648987,2.5930328-1.3193665c1.2602081,1.1971741,0.209259,2.4067993,0.0171509,3.4865112
		c-0.2410126,1.3554993-0.942215,2.6251221-1.4030762,3.9463501c-1.9879608,5.699707-0.4299316,7.3778992,3.6296997,10.8044128
		c4.208725,3.5527344,8.7404785,6.7198792,13.0532227,10.1534424c2.3910065,1.9032593,2.389328,3.6861877,0.3030396,6.0571899
		c-0.7833862,0.8902893-1.5661011,1.7898254-2.2590637,2.75c-2.3515167,3.2581177-2.329834,6.6773987-0.5114594,10.3591919
		c-3.4239807,0.2302551-6.7896423,0.4245605-10.1497498,0.6907654c-3.890564,0.3082581-7.7864838,0.5914612-11.6605682,1.0504761
		c-3.4559174,0.4094238-5.2936249,3.4449768-4.4509125,7.0351868c0.793808,3.3816223-0.2726135,5.9628906-3.4644928,7.3372192
		c-5.0969849,2.1945496-10.2932892,4.1586304-15.4490967,6.2167053c-6.3467712,2.5333557-12.6950607,5.0636902-19.0446854,7.590332
		c-0.100174,0.0400085-0.2263947,0.0149536-0.3405228,0.0201721c0,0.2295837,0,0.4590149,0,0.6884155
		c2.7520294,1.6052856,5.5896072,3.0827942,8.2335663,4.8495789c2.987999,1.9967346,6.0902939,3.9613342,8.6286926,6.4615784
		c4.4902496,4.4226685,7.0583954,9.9287415,6.8560333,16.3693237c-0.1964722,6.2501221-0.6534576,12.4923706-1.0181885,18.7365723
		c-0.2020111,3.4584351-0.519165,6.9113159-0.6611938,10.3718262c-0.2783203,6.7820435-0.5131226,13.5664673-0.6726227,20.3522949
		c-0.0492554,2.0964966,0.2794952,4.1990967,0.3050537,6.3007202c0.0818481,6.7642212-0.9205475,13.401123-2.2673035,20.0174561
		c-0.6395264,3.1419678-0.9308014,6.375-1.131134,9.5825195c-0.4401855,7.0422363-0.7203674,14.0946045-1.0691223,21.1425781
		c-0.1068878,2.1600952-0.2436981,4.3186646-0.3332825,6.479187c-0.2410126,5.8074341-0.4642181,11.6157227-0.6929626,17.423645
		c-0.0089111,0.2290649-0.0080719,0.4590454-0.0043793,0.6882935c0.0516052,3.2036133,1.8506622,4.5569458,4.8924408,3.4237671
		c2.8854828-1.0749512,5.6674194-2.4281006,8.4945831-3.6594238c0.8211975-0.3574829,1.6192169-0.7852173,2.466629-1.0617065
		c2.7155609-0.8859253,4.7741241,0.1877441,5.8223877,2.8927002c0.4022064,1.0376587,0.8114624,2.1321411,1.4824066,2.9946899
		c1.7279663,2.2214355,4.0080414,2.479126,7.0130157,1.0906372c2.904129-1.342041,5.7450714-2.9550781,8.7922363-3.8197632
		c3.8690338-1.0980225,7.8915253-1.8170776,11.8963776-2.2333984c4.8605042-0.5053711,9.7732697-0.4926147,14.6601563-0.7623291
		c5.3364868-0.2946777,10.2586823-2.1942139,15.2973328-3.7823486c3.7098846-1.1691284,7.6953888-1.7936401,11.5898132-1.9743652
		c6.6970367-0.3106079,13.4187775-0.0734253,20.1300964-0.0999756c0.9502869-0.0039063,1.9118347-0.348938,2.8476715-0.2751465
		c3.368515,0.265564,5.6605225,2.3945313,7.6935425,4.8018188c3.24263,3.8391724,6.3087769,7.8295288,9.6097412,11.616394
		c5.5944824,6.4178467,11.2971802,12.7419434,16.987793,19.0752563c2.7384338,3.0478516,5.5084229,6.0696411,8.3431702,9.0274048
		c4.3934021,4.5841675,8.8056641,9.15271,13.3153992,13.62146c1.4259338,1.4126587,3.0426331,2.7963867,4.8329468,3.6390991
		c2.6819458,1.2623901,5.0060425-0.1557617,7.0630798-1.8796997c2.3858032-1.9997559,4.721344-4.0591431,7.1042786-6.0623779
		c1.5222473-1.2800903,3.3517151-1.4545288,4.896637-0.2645874c2.2363892,1.7229004,4.4080505,3.5413208,6.4985657,5.4388428
		c2.6202393,2.3782349,5.1428528,4.8647461,7.684967,7.3280029c4.3129272,4.1789551,8.6525574,8.331543,12.8980713,12.578064
		c4.3268738,4.3278809,8.544342,8.7650146,12.8268433,13.1375732c6.2086182,6.3395996,12.3017578,12.800293,18.693573,18.9500732
		c4.6781616,4.5008545,9.7573242,8.5848389,14.6576538,12.8545532c1.1472778,0,2.2947083,0,3.4421387,0
		c1.4760132-1.3041992,3.000946-2.5577393,4.4191284-3.9221191c4.3692322-4.203186,8.6831665-8.4638062,13.0456543-12.6740723
		c5.7539978-5.5527954,11.6111755-11.0012207,17.282959-16.6363525
		c7.1876526-7.1412354,14.0897217-14.5749512,21.3874512-21.5992432
		c5.6749878-5.4623413,11.7272949-10.5374756,17.6955566-15.6879272c2.1204224-1.8299561,4.3902588-3.5310669,6.7693176-5.0042114
		c2.1947021-1.3587036,3.7540894-0.8206787,5.2069092,1.4249268c1.5852661,2.4500122,3.0350647,4.9880981,4.6396484,7.4248047
		c1.4165344,2.151001,3.2049866,2.5394287,5.2638855,1.0222168c2.4940186-1.8377075,4.9544373-3.7505493,7.2338562-5.8438721
		c4.7485657-4.3610229,9.5354614-8.7016602,13.9989624-13.3463745c5.4682617-5.6899414,10.7282715-11.5906372,15.8827515-17.5688477
		c5.75177-6.6711426,11.328125-13.4957275,16.892334-20.3253784c2.6276245-3.2249756,5.1482544-6.5489502,7.5219116-9.9636841
		c1.1797485-1.6968994,1.8575439-3.6599731,1.1780396-5.895874c-0.3869019-1.2733154,0.4521484-1.954834,1.7377319-1.8291016
		c2.3580322,0.2304077,4.7077026,0.5450439,7.0623779,0.8117676c0.7875977,0.0892334,1.5784302,0.1603394,2.3696899,0.2040405
		c6.0806885,0.3359985,12.262085,0.2507935,17.9526978,2.791687c2.4747314,1.1049194,4.9990234,2.5125122,6.8977661,4.3919067
		c2.5194092,2.4935303,5.343689,3.4922485,8.7078247,3.8724365c4.4152832,0.4989624,8.7960815,1.2974854,13.1965942,1.9334717
		c3.5690308,0.5158081,7.1489868,0.9570313,10.7175293,1.4768677c4.3430176,0.6326294,8.6769409,1.3272705,13.0187378,1.9683228
		c3.4545898,0.5102539,6.9194336,0.9529419,10.3719482,1.4753418c4.2825317,0.6477661,8.567688,1.2879639,12.8320313,2.0419312
		c3.4191284,0.6045532,5.5612183-0.6531372,5.7965088-4.2492676c0.225708-3.4468384-0.1757813-6.939209-0.3728027-10.4074097
		c-0.1152954-2.0309448-0.4080811-4.0513916-0.5535889-6.0813599c-0.2600098-3.6240234-0.4524536-7.2530518-0.7033691-10.8776855
		c-0.4429321-6.3968506-0.9224243-12.7910156-1.3572388-19.1884155c-0.1621704-2.3840942-0.2467041-4.7734375-0.3586426-7.1605835
		c-0.1199951-2.5587158-0.4403687-5.1290894-0.3037109-7.6744995c0.3248901-6.0565186,0.8704224-12.1011353,1.3210449-18.151062
		c0.2401733-3.2251587,0.5966797-6.4481201,0.6765137-9.6776733c0.1920776-7.77771,0.0288696-15.5704346,0.4302368-23.3352051
		c0.3754883-7.2577515,0.6630859-14.5531311,2.6451416-21.6491699c1.4286499-5.1141357,4.3345947-9.0534363,8.4630127-12.2910156
		c1.4743042-1.1561584,2.6278076-2.7424316,3.8447876-4.2014771c1.5790405-1.8930054,3.0752563-3.8551025,4.6070557-5.7875977
		c0-0.9178467,0-1.8356934,0-2.7537231C684.9945679,474.7670898,681.0821533,474.2252197,677.4689331,473.1607971z
		 M221.2337646,213.5507202c3.8011322-2.5002441,7.6874847-4.8794861,11.396347-7.5096588
		c4.3231812-3.0658264,8.188858-6.6792297,11.5042725-10.8308868c2.8123627-3.522049,5.5662384-7.092514,8.2713623-10.6976776
		c1.0060883-1.3408051,1.7997284-2.8408508,2.799942-4.4442596c1.1598511,1.3883667,2.3220825,2.7254639,3.4241333,4.1103821
		c1.9989014,2.5121918,3.9241638,5.0838776,5.9531555,7.5710144c1.4128113,1.7317505,2.8335571,1.5795593,3.788208-0.4569855
		c3.3866577-7.2236938,6.6856079-14.4884033,10.0497437-21.7226715c2.0379028-4.3820953,4.1394653-8.7345123,6.2035828-13.1044006
		c1.9430847-4.1142578,3.891571-8.2260895,5.8035583-12.3547974c0.8775024-1.8951111,0.9507751-3.8217316-0.1272278-5.6812897
		c-3.5487061-6.1216431-7.1066284-12.2380676-10.6712952-18.3503799
		c-3.7640076-6.4540863-7.5345459-12.9043045-11.3128357-19.3499069c-1.4499512-2.473526-0.4946289-3.3129654,1.7456055-4.1209793
		c2.0379028-0.7349854,4.2433472-1.022049,6.3877869-1.4413071c4.6845398-0.9158325,9.3635254-1.8708267,14.0704041-2.6578217
		c4.2774658-0.7151566,8.5870056-1.2415619,12.8856506-1.8283844c4.2453613-0.5795975,8.4887085-1.179451,12.7439575-1.6767807
		c2.8145752-0.3290024,5.6454163-0.5396805,8.4744263-0.7210312c5.8976746-0.3779984,11.7990417-0.6999435,17.698761-1.0481873
		c1.8148499-0.1071472,3.6281738-0.3032913,5.4436951-0.3251419c11.5657959-0.1391602,23.131897-0.2412643,34.6978455-0.3544617
		c0.5650635-0.0055466,1.1302795-0.0007553,2.033844-0.0007553c-3.6683655,6.7310715-7.1977234,13.1218719-10.639679,19.5594101
		c-1.6425781,3.0723724-1.0866089,4.181488,2.2146912,5.0752945c2.8622742,0.7749863,5.6975098,1.6544266,8.5730591,2.3743668
		c5.1040344,1.2779465,12.234375-2.8847198,12.10495-9.3156967c-0.079834-3.9635773,0.277832-7.9485092,0.6413879-11.9052811
		c0.4369812-4.7569656,3.2059631-5.8758316,6.5719604-6.0419693c9.8670654-0.4871597,19.7539673-0.6438065,29.6349792-0.7361603
		c4.1414795-0.0386581,8.3024597,0.2613525,12.4281616,0.6719513c6.7946777,0.6762466,13.5678711,1.5689621,20.3504333,2.3681488
		c12.0153809,1.4159317,23.7915955,4.0756073,35.5202332,6.9438553c2.5194092,0.6160736,5.3574829,1.1767654,6.542572,3.9305573
		c0.7623596,1.7716522,1.1249084,3.7427292,1.474823,5.6594315c0.9793701,5.3656464,1.6047668,10.8088608,2.8413086,16.1115646
		c1.614624,6.9246902,3.3772583,13.8456039,5.6251831,20.5849991c3.4819946,10.4395142,8.2496948,20.3316193,15.1664429,28.9707336
		c3.8631592,4.8250427,8.147644,9.3694,13.5505371,12.5793457c2.7054443,1.6074524,5.6800537,1.7048492,8.6207886,0.5656433
		c3.1123657-1.2055817,6.3256226-2.073349,9.5443726-0.9207001c1.5056152,0.539093,2.6994019,1.97435,4.0046997,3.0400238
		c1.6420288,1.3403778,3.3449707,2.6248779,4.8515625,4.1066132c1.4403687,1.416687,1.3704834,3.1770782,0.5882568,4.9764709
		c-1.1749878,2.7034454-0.6137695,3.6265106,1.7355347,4.6282196c1.4749756,0.6287689,3.0582275,1.130127,4.640686,1.3587036
		c6.8930054,0.9954987,10.2810059,5.1378174,11.3981934,11.3677826c0.7959595,4.4378052,1.1311035,8.9750977,1.413147,13.4841614
		c0.4653931,7.4431152,0.8087769,14.8964844,1.0411987,22.3505096c0.2280884,7.3182373,0.3137817,14.6425323,0.3445435,21.964798
		c0.0169678,4.0509033-0.1688843,8.1043091-0.3314209,12.1540222c-0.1870728,4.6610107-0.4163208,9.3208313-0.687561,13.9776306
		c-0.3074341,5.2736206-0.6462402,10.5458984-1.036377,15.8138123c-0.4143066,5.5970154-0.8522949,11.193512-1.3771973,16.7809143
		c-0.4971313,5.291626-1.2432251,10.5620422-1.6410522,15.8597107c-0.2351074,3.1291809-0.9906006,6.5304871,1.390625,9.2016602
		c1.5666504,1.7573547,3.4815063,3.2276611,5.3480835,4.6890564c2.7523804,2.1548767,4.9682617,4.7164612,5.4537964,8.227356
		c0.2189941,1.5839233-0.2946167,3.3533936-0.8114624,4.9285583c-0.4266968,1.3005676-0.4142456,2.3894958,0.2808838,3.4994507
		c1.5206909,2.4281616,2.2434082,5.1233826,2.706665,7.911377c0.5932617,3.5711975-2.6159058,8.7816467-6.3414307,9.8336182
		c-1.7210693,0.4860535-3.6350708,0.5900879-5.4279175,0.4468994c-2.4829102-0.1983337-2.6342163-1.7561951-2.1599121-4.7453918
		c0.2405396-1.5151672,0.2443848-2.8545532-0.7956543-4.5025024c-0.7793579,1.9130249-1.574646,3.5132446-2.0908203,5.1990051
		c-1.4833984,4.8448792-6.1671143,5.6949768-9.9232178,5.2633667c-4.4337158-0.5094299-7.7995605-3.2399292-11.3773193-5.5193481
		c-6.1898193-3.9438171-12.9438477-6.5101318-20.1395264-7.7251282c-4.5588379-0.769928-9.2043457-1.1995239-13.8265381-1.3796997
		c-5.9143066-0.2302856-11.8449097,0.0010071-17.7671509-0.0712585c-6.4607239-0.0786743-12.8696899-0.7200317-19.2119141-2.0135193
		c-5.3321228-1.0872803-10.6462708-2.3834534-16.0351868-3.0369263c-5.1862183-0.6289368-10.4689331-0.8791809-15.68927-0.7023621
		c-6.438385,0.2181396-12.861969,0.9917908-19.2804871,1.6400452c-3.2471924,0.3279114-6.4682922,0.9122925-9.7033691,1.3664246
		c-0.2658997,0.037323-0.5474243-0.0359497-1.2887878-0.0952759c0.9685974-1.9350281,1.821228-3.6382751,2.6738586-5.3417053
		c-0.1257019-0.0937805-0.2514343-0.187561-0.3771362-0.2813416c-5.0505981,2.0168762-10.1013489,4.0337219-15.3474121,6.1286011
		c1.8066101-3.3786011,3.508667-6.5612488,5.2106018-9.7440491c-0.0919495-0.1917419-0.1837158-0.3835144-0.2756653-0.5752869
		c-2.0178833,0.5090942-4.094574,0.8554688-6.0415344,1.5605469c-4.1384583,1.4988708-7.4167175,4.3934326-10.8548279,7.0227661
		c-2.2632751,1.7308044-4.6124268,3.3495178-7.0236206,5.091095c-1.2148132-1.8146973-0.2435303-3.2330627,0.0070801-4.6312561
		c0.3848877-2.1477966,1.1133118-4.2473755,1.3475952-6.4050903c0.2371521-2.1820984-0.864563-2.9972534-2.9473267-2.1994019
		c-2.1264648,0.8146362-4.1831665,1.8688049-6.1564941,3.0143738c-4.588562,2.6638184-8.0350647,6.6627502-11.7392273,10.3501282
		c-0.3970032,0.3951416-0.6405334,0.9442139-0.9553528,1.4220581c-0.206543-0.1358032-0.413269-0.2714539-0.6198425-0.4072571
		c0.4282532-1.6257629,0.7573547-3.2856445,1.3032532-4.8709106c1.6590271-4.8176575,3.5054932-9.572937,5.0675659-14.4206543
		c0.7650452-2.3748779,1.0622253-4.9005127,1.6146545-7.568512c-4.9749451-0.0514221-8.8744202,2.3478088-13.4374084,3.4580994
		c3.4054871-5.868927,6.6686096-11.4923096,9.9547729-17.1555481c-6.6239014,1.5797424-17.0866394,18.4421692-15.9343262,25.5908203
		c4.9147949-0.1860657,8.3348999-4.2668762,13.3456726-5.0512695c-0.5458984,1.7412109-1.0677795,3.3564148-1.5587158,4.980835
		c-1.5682678,5.1895752-3.5438232,10.3032227-4.5466919,15.6005249c-0.7329712,3.8713989-0.5647278,8.0189514,0.8968201,12.2693481
		c2.2740479-2.9490051,4.4260559-5.6430664,6.473175-8.4145813c4.0966187-5.5464172,8.521637-10.7129822,15.197998-13.8092041
		c-1.4076233,4.6524048-2.7575684,9.1144104-4.1801453,13.8165894c7.3390808-1.4486084,13.1278381-5.8665771,19.6880798-9.3344421
		c0.1077271,0.939209,0.2510986,1.7291565,0.2791748,2.5232849c0.0697327,1.972168,0.7272339,2.4678345,2.6400757,2.0264587
		c1.9042664-0.4393311,3.8043213-0.5249023,5.7939758-0.5210266c4.8084106,0.0094299,9.6260376-0.4786682,14.4243774-0.9301147
		c5.0036926-0.4709473,9.9794922-1.242218,14.9848633-1.6857605c6.4382019-0.5704651,12.8912048-1.257019,19.3425293-1.3086243
		c5.4475708-0.0437012,10.8655701,0.9850769,16.0904541,2.6831055c2.7601013,0.8971863,3.7596436,2.6732178,3.1022949,5.5156555
		c-1.8624268,8.0523682-5.1645508,15.4887695-10.4178467,21.8728638
		c-3.7917175,4.6080627-7.8303528,9.0643311-12.1619263,13.1622925c-4.5902405,4.3424988-9.679657,8.1543884-14.5057068,12.2515259
		c-2.2677917,1.9252625-4.6781311,3.7989502-5.293457,6.9814148c-0.1702576,0.8805237-0.2275696,1.7918091-0.2467346,2.6910095
		c-0.0502319,2.3619385-1.2227173,3.5424805-3.5486755,3.5949097c-4.108551,0.0926208-8.2164307,0.2159729-12.3239746,0.3410339
		c-3.3639526,0.1025085-6.7272644,0.2253723-10.0909119,0.3401794c-6.7247925,0.2297363-13.4495544,0.4605103-20.174469,0.6904297
		c-3.3643188,0.1149597-6.7284851,0.2324524-10.0929565,0.3418579c-7.1856384,0.2336121-14.3714294,0.4638977-21.5572205,0.6928101
		c-3.7066956,0.1181335-7.417572,0.1554565-11.1193848,0.3613586c-6.9862671,0.3885803-13.8754272,1.1561584-20.6245728,3.3483276
		c-4.5823364,1.4883118-9.1537476,0.1333008-12.3326721-3.5335693c-1.001709-1.1553345-0.7969971-2.346283-0.2267456-3.4698486
		c3.2819824-6.4664307,6.6955261-12.8589478,11.0287781-18.7093811c3.9171143-5.2882385,7.8893433-10.550293,10.7010498-16.5464478
		c2.7567444-5.8788757,4.8251953-11.9953918,5.3179932-18.507019c0.3141479-4.1505737,0.4467468-8.3347473,0.3119507-12.4925537
		c-0.0944519-2.9093323-0.8254089-5.7939758-1.1850891-8.7002869c-0.3334656-2.6940308-0.6591797-5.3970032-0.7968445-8.1056519
		c-0.2411804-4.7468872-0.4371338-9.4867249-1.7319641-14.1026611c-1.0931702-3.8972778-3.0654907-7.3153992-5.4640808-10.5442505
		c-1.0586853-1.4252319-2.1014099-2.9525146-2.7158813-4.596283c-0.9163208-2.4505005,0.2961426-4.6653748,1.7923279-6.4659424
		c1.6538391-1.9898071,2.196228-4.2962646,2.5449829-6.6652527c0.3215027-2.1851196,0.3416748-4.4233398,0.3793335-6.6400757
		c0.1109314-6.5128174,1.59198-12.7743835,4.1910706-18.6559143c2.1687927-4.9078979,5.1376343-9.4569702,7.6325073-14.2277222
		c2.4449768-4.675293,4.7164917-9.4410095,7.1047974-14.1463623c3.0488281-6.0069275,6.0990295-12.0137024,9.2341003-17.9757538
		c0.9627075-1.8309937,2.2059631-3.5144043,3.5809631-5.6739807c0.490448,1.5649261,1.0675964,2.8511963,1.2761841,4.1945953
		c0.3633728,2.3415985,0.4784851,4.7208405,0.7373352,7.0799103c0.2267151,2.0671387,1.6459351,2.9525299,3.7939148,2.1179047
		c1.5950012-0.619873,2.1812439-0.0916138,2.6326904,1.3565063c1.4867554,4.7702332,4.0413208,8.943512,7.6325378,12.3884888
		c4.0646667,3.8991394,8.9444885,6.4691162,14.6892395,7.8283386c-1.9780579-2.824646-3.9559326-5.6492615-5.9339905-8.4740601
		c0.1495667-0.1351318,0.2990112-0.2704468,0.4485779-0.4055786c0.9334717,0.7055664,1.8456116,1.4418945,2.8046265,2.1111755
		c2.4394226,1.7020569,4.8916016,3.3859863,7.3542175,5.0542908c1.7669373,1.1971741,3.5424805,2.3834229,5.3443909,3.526825
		c2.0635986,1.3094788,4.45578,1.8187256,6.6045837,0.8334961c2.1719971-0.9958496,3.410553-0.0171509,4.7376404,1.2033997
		c6.8540344,6.3035583,15.0249023,9.9682312,24.0026855,11.9946899c2.898407,0.6542969,5.8205261,1.2328186,8.7569275,1.6805725
		c3.8470154,0.5863953,5.1126099-0.625061,5.3018799-5.1773376c1.1835632,0.9091187,2.2578735,1.6247559,3.2061462,2.4804382
		c6.8965454,6.2220459,12.3825989,13.4811401,16.1837463,21.9945374c2.8952332,6.4847412,4.7070618,13.2994385,6.3141785,20.1805115
		c0.2564697,1.0975342-0.7808838,2.2978821-2.0029297,2.1728516c-2.4614258-0.2522888-4.9095764-0.655304-7.353363-1.0549927
		c-3.936615-0.6438904-7.8668213-1.3276062-11.7972107-2.0091553c-4.4850464-0.7776794-8.9687195-1.5622253-13.4498901-2.3615723
		c-3.2624512-0.5818787-6.5506287-1.0624084-9.7722473-1.8215942c-4.6116028-1.0864258-8.6164246-3.4893494-12.3536987-6.3210449
		c-2.5779114-1.9533386-5.0608521-4.0317383-7.6893616-5.9474487c2.1597595,5.861908,5.3901062,11.0072937,11.0262756,13.8935852
		c2.9720154,1.5222473,6.4600525,2.1268005,9.7774658,2.8643188c5.2018738,1.1563416,10.4440613,2.1455994,15.6924744,3.0735474
		c5.1509399,0.9107971,10.3329773,1.6455994,15.4978333,2.4787292c3.9957886,0.6447449,7.979126,1.3704834,11.9814453,1.9704895
		c3.6795959,0.5516357,7.3785706,0.9719849,11.0664063,1.4709778c4.0203247,0.5440674,8.0325623,1.1524658,12.0578918,1.6567078
		c3.3653564,0.4216919,6.7454834,0.724884,10.1174927,1.0960083c4.0413208,0.4447021,8.0782471,0.9285889,12.1217651,1.3512878
		c2.6473389,0.2769775,5.302063,0.4847412,7.9547119,0.707428c5.5343018,0.4645386,11.0689697,0.9235535,16.6043091,1.3739929
		c1.6968384,0.1380005,3.3948975,0.2741394,5.0950928,0.3521118c3.0747681,0.1411743,6.151001,0.3094177,9.2277222,0.3356323
		c4.15979,0.0353088,5.3487549-1.2344971,5.7667847-5.344696c0.5830078-5.7311401,1.3813477-11.4399109,2.0050659-17.1673279
		c0.4291382-3.9403076,0.741394-7.8938904,1.0651245-11.8447876c0.4813232-5.8788452,0.947937-11.7593689,1.3795166-17.6420898
		c0.2702637-3.682312,0.475647-7.3695068,0.6916504-11.0556946c1.3873901-23.6972656,0.3947754-47.4175873,0.6610107-71.1257935
		c0.0171509-1.5249329-0.0828857-3.084137-0.3914185-4.5727692c-0.6472778-3.1222839-3.1229858-4.0744171-5.8696289-4.8004913
		c-2.6380615-0.6971741-5.2022095-1.675354-7.7955933-2.5395813c-0.53125-0.1769867-1.0822144-0.3361511-1.5645752-0.6087646
		c-0.8786621-0.4964905-1.0505981-0.0289154-1.227417,0.7112885c-1.7058105,7.1454468-3.5090332,14.2685547-5.1333008,21.4321594
		c-1.0548096,4.6522522-1.75,9.3858643-2.8023071,14.0388031c-1.3554688,5.992981-4.031189,11.3375244-8.5323486,15.6304474
		c-1.3060913,1.2455902-2.7577515,2.3400726-4.1576538,3.485672c-6.9175415,5.6605225-9.831604,13.3310547-11.0551758,21.8765564
		c-1.569458,10.9615479-3.3106689,21.8819275-6.7269287,32.4716797c-2.2782593,7.062439-4.5981445,14.084198-8.6969604,20.3551636
		c-3.7441406,5.7287598-9.0046387,8.8356018-15.8726196,7.9869995c-3.2555847-0.4023743-6.4207458-1.8778687-9.4929504-3.1822815
		c-0.7719421-0.3277588-1.3479309-1.8318481-1.4707947-2.8601074c-0.9165039-7.6755676-2.5701904-15.1692505-5.2193298-22.432373
		c-0.6907959-1.8935242-1.377533-3.8174438-2.3439636-5.5744629c-1.5990295-2.9071655-1.3936462-5.5751648,0.4909363-8.2118835
		c5.4593506-7.6377563,11.0504761-15.1860657,16.3331604-22.9441528
		c4.7075806-6.9131775,9.1277466-14.0248413,13.5675659-21.1160278c2.5096436-4.0085297,4.480957-8.2982635,5.6790161-12.8987579
		c1.24823-4.7934418,1.6462402-9.5964661,0.7759399-14.5564575c-1.347229-7.6777496,0.1486206-14.873291,4.0892334-21.6540222
		c2.8870239-4.9679108,6.6015625-9.2613373,10.2566528-13.6188812c3.347168-3.990387,1.8748779-5.4234619-1.1593628-7.6438751
		c-7.8505249-5.7444763-13.9276733-12.9162445-18.560791-21.4119873
		c-6.0206909-11.0394592-9.6293945-22.9244843-12.2416077-35.1312943
		c-1.3634033-6.3713913-2.3377075-12.8271637-3.4266663-19.2552795c-0.2546387-1.5027466-0.167572-3.0620422-0.4006958-4.5701599
		c-0.5504456-3.5606232-1.8679504-5.0747147-6.1196899-5.8160782c-6.3682861-1.1102905-12.7508545-2.1465454-19.1436768-3.1043091
		c-5.9059448-0.8849106-11.8251343-1.6947632-17.7539063-2.4087372c-5.5566406-0.6692734-11.127594-1.2402954-16.7035828-1.7235107
		c-5.0897522-0.4410172-10.1902771-0.8280945-15.2941589-1.0222168c-8.6152344-0.3277435-17.2365417-0.5017853-25.8563232-0.6889343
		c-0.9956665-0.0215912-2.0411072,0.1551361-2.9885254,0.4671631c-1.6671143,0.5490112-2.5064697,1.7808151-2.4899902,3.5858383
		c0.0253601,2.7668152,0.1494141,5.5429611-0.0227051,8.2992706c-0.3685608,5.8976822,3.067688,9.0860291,7.6322021,10.9746628
		c7.680603,3.1778412,13.7051697,8.1772614,17.9048157,15.3553162c0.7956543,1.3598785,1.5634155,2.736908,2.3098145,4.1245117
		c1.3987122,2.6010132,3.4718933,4.6173859,6.235199,5.4342194c4.6912537,1.3868561,8.5910339,4.0177002,12.5004272,6.792511
		c8.1574097,5.7897797,17.1558838,9.7201538,26.9747009,11.7554474c0.9958191,0.2063904,1.9052734,0.8301086,3.2210999,1.4260864
		c-3.5192566,2.3672333-6.7146606,4.5165405-9.9762878,6.7105713c1.0637207,2.700592,3.2431335,3.8382874,5.9429016,4.2206573
		c1.2301025,0.1741943,2.4923401,0.1561279,3.7085266,0.3896637c3.0688477,0.5894318,4.4552612,3.2662506,3.744812,6.8907471
		c-0.8237,4.2037506-2.9496765,7.7103424-5.6268921,10.957016c-0.9277649,1.1252441-1.7752075,2.3202515-2.6073303,3.5196228
		c-0.5356445,0.7723694-1.1274414,0.9801941-1.967804,0.5158081c-5.9603577-3.2938995-12.4402466-4.4561157-19.1556091-4.7386475
		c-2.6564026-0.1118622-5.3087463-0.3930359-7.9547119-0.6756592c-5.2348022-0.5590973-8.4740906,2.1634369-10.9247437,6.3933258
		c-2.4700012,4.2631836-3.4700623,8.8584595-2.9727173,13.6914063c0.5215149,5.0680695,4.1109009,10.9603729,9.3848572,11.7261047
		c2.8928833,0.4200134,5.9650879-0.2112579,8.9352722-0.5526123c3.9680176-0.4559937,7.9113464-1.1233978,11.8735046-1.6365356
		c2.2990723-0.2976532,4.6127625-0.48909,6.92276-0.6941376c1.5909729-0.1411743,2.535553,0.5112762,2.4160461,2.2264557
		c-0.3040466,4.3640289-0.5400085,8.7357635-0.9812012,13.0863342c-0.3294373,3.2476807-1.0166931,6.4577026-1.3946838,9.7018433
		c-0.3151245,2.7046356-1.0765076,3.5347443-3.8216248,3.5402985c-6.1383667,0.0127716-12.2769165,0.0339508-18.414917-0.0048828
		c-2.8019409-0.017807-5.4536438,0.702713-7.6594238,2.2664642c-4.7689209,3.3809662-9.8894348,3.4954224-15.1872559,2.0525208
		c-6.5945129-1.7960358-12.0841064-5.5323029-16.6723328-10.4996948c-4.4095764-4.7741089-7.703125-10.2601776-8.7231445-16.7943573
		c-0.3091125-1.9804077,0.068573-4.0746002,0.1880493-6.113327c0.0900879-1.5373535,0.3096008-3.0673218,0.3995056-4.6048584
		c0.1001892-1.7150116-1.3181763-1.806778-2.3365479-1.6711426c-1.5292969,0.2038727-2.9849548,0.9085999-4.5050049,1.2553253
		c-0.8188782,0.1867371-2.0804138,0.4237213-2.4732056,0.0072327c-0.5501099-0.5832062-0.8606873-1.8894806-0.5949707-2.6488342
		c0.6961365-1.9889679,1.7504578-3.8539124,2.6824341-5.7585144c0.3922729-0.801712,0.8354797-1.578537,1.504425-2.8332062
		c-3.2812805,0.5185089-6.1539917,0.9091034-8.9992981,1.4440918c-1.9768677,0.3715973-2.4874878,0.0480652-2.5007629-1.9730225
		c-0.0004883-0.057312,0.0013428-0.1147003,0.0013428-0.1721039c-0.0046997-2.7971497,0.0011902-2.8490906-2.6611023-3.154892
		c-4.7110901-0.5411072-8.7760925-2.5984039-12.1148682-5.7808685c-2.8027954-2.671524-4.3406372-6.1520691-4.8875427-10.1169891
		c-0.6904602-5.0052185,0.9430542-9.2361145,4.3663635-12.5380859c2.5525208-2.4619293,5.6161499-4.6767883,8.8512268-6.0850677
		c5.4672241-2.3800964,11.2501221-4.0349426,17.055542-6.0484467c-0.1586609-1.5761871-1.5412292-2.4543762-3.2080078-3.1899414
		c-1.16745-0.5152283-2.2555542-1.2333221-3.3161011-1.953598c-0.3127747-0.2124481-0.6278992-0.7993622-0.5448914-1.1081085
		c0.0794983-0.2959747,0.6541443-0.594635,1.0454102-0.6495972c2.7932129-0.3925323,5.6015625-0.6803589,8.3929138-1.0850067
		c2.948822-0.4273987,5.8968201-0.8837128,8.8208008-1.4529877c1.5024109-0.2926178,1.9414063-1.4030762,1.2924805-2.8408508
		c-0.4359741-0.9662476-0.9501038-1.8971252-1.4223938-2.8471527c-0.6018677-1.210968,0.0724182-1.77948,1.1299438-1.768219
		c3.4777832,0.0371552,6.9536743,0.2271576,10.4314575,0.2960663c2.6950378,0.0534515,5.3946228,0.084198,8.0873413-0.0106812
		c1.6726685-0.0588989,2.7931824-1.7480316,2.3592224-3.4581757c-1.477356-5.8222198-4.6347656-10.5104446-9.7977905-13.6440811
		c-4.5762939-2.7774124-9.5973206-4.0901413-15.1008606-3.8415604c0.3114319,0.9990234,0.6072388,1.9370346,0.8964844,2.8770676
		c0.4536438,1.474678-0.3126221,2.737915-1.8084717,2.5621033c-2.3847656-0.2803421-4.7811584-0.6884232-7.091156-1.3342438
		c-6.4714661-1.8093872-12.8547363-3.9499664-19.3611755-5.6138077c-5.8931274-1.5070267-11.7180481-1.1265106-17.0921631,2.1512527
		c-0.2378235,0.1450424-0.4963379,0.2645493-0.7086182,0.4400177c-0.1556091,0.1285706-0.2515869,0.3295059-0.4589844,0.6148071
		c4.7095642,1.903511,10.0778198,2.3855438,13.3767395,7.3021851c-0.8685913-0.1347122-1.5385437-0.302536-2.2145081-0.3332062
		c-5.9185181-0.2688293-11.8435974-0.7781754-17.7557373-0.6606979c-3.3059998,0.0656357-6.7921753,0.70961-9.4721069,3.0213699
		c-0.875824,0.7556534-1.3696289,2.0591507-1.7906494,3.2030411c-0.320343,0.8703766-0.2679138,1.8831024-0.3490906,2.8352356
		c-0.2484131,2.9124451-2.099884,4.3475342-4.7038574,4.9870605c-4.8053589,1.1803741-8.7500305,4.0330811-12.7775574,6.6513214
		c-4.4420166,2.8876648-8.3270264,6.4198761-10.6749878,11.3713074c0.8450623,1.414505,2.2667847,1.1326447,3.6093445,1.2304688
		c1.2966919,0.0944519,2.5792542,0.3848877,3.9300537,0.5990906c-1.8884583,6.2362671-7.2783813,9.0257721-11.3308105,13.2259216
		c0.6869202,0.2791595,1.1323242,0.4694214,1.584259,0.6422882c2.8959045,1.1076813,3.3132324,2.2902527,1.6783752,4.9573975
		c-1.2037354,1.9637604-2.5973816,3.8223114-3.6720581,5.8517914c-2.574707,4.8621826-5.0188293,9.793869-7.4864807,14.7121124
		c-0.1600037,0.3190002-0.072937,0.7618713-0.1342773,1.6118164c2.5528564-0.4842224,4.896637-0.9716339,7.2575684-1.3540039
		c0.8486023-0.1374817,1.7381897-0.0220947,2.6410828,0.1966553c-6.1448975,7.4931946-11.4825745,15.1986694-14.4754639,24.8151398
		c7.8520508-4.3572998,14.7807007-9.741684,23.5759583-12.0237732c-1.7805786,1.9790497-3.4683533,3.6587677-4.9282532,5.5173187
		c-3.4764099,4.4255371-6.8259277,8.9503937-10.2626953,13.4073639c-3.5097046,4.5517426-6.8333435,9.2761078-10.6642456,13.5424805
		c-3.473053,3.867691-7.8457947,6.7425842-12.8843079,8.8315582c1.4701538,1.7903137,3.4959412,2.4815979,5.4602051,3.1732178
		c5.4601746,1.9229279,10.2514343,0.1699219,14.5035095-3.1755676c5.7082825-4.4914246,10.0652161-10.3015289,14.8358154-15.7144928
		c3.4404602-3.9039917,7.0691528-7.7458191,12.4390869-9.098465c0.3926086-0.098999,0.7964783-0.1529388,1.7175293-0.3257294
		c-11.069458,10.9657593-21.7647705,21.5525055-30.9479675,33.7094116
		c5.8803711,0.9842224,9.2804871-3.3757629,13.7825012-5.6662598c0.0203552,6.1197205-0.6463928,12.2486572,4.1156006,17.2869873
		c5.6008606-9.9826965,11.3277893-19.7615204,21.2472839-26.7493286c-1.440033,2.601944-2.6395874,4.8571472-3.9197998,7.0656281
		c-3.5550842,6.133316-6.962738,12.3484955-8.2574158,19.4141083c-1.2156677,6.6346741-0.3040466,13.0217896,3.0298462,19.4707642
		c2.612854-6.4425964,2.4404297-13.4599609,6.2175293-18.8473816c0,10.0097656,0,20.208252,0,30.5022278
		c-0.5912781-0.6401978-1.3375244-1.4032593-2.0321655-2.2108459c-1.1192017-1.3015442-2.0224304-1.241394-2.7626343,0.2895813
		c-5.1210022,10.5901184-10.2265625,21.1878052-15.3309326,31.7859802c-0.1196594,0.2484131-0.0996704,0.5853882-0.2610168,0.789093
		c-3.8401489,4.8468933-1.4995422,9.1475525,0.9739685,13.6115723c3.1621399,5.7067566,6.0232544,11.5797119,9.0413208,17.3669739
		c2.569519,4.9272461,5.1774902,9.8344727,7.858429,14.9210205c6.9528503-8.684845,13.835083-17.2815857,21.0351868-26.2753601
		c0.5198364,2.7140503,1.0030518,4.9781494,1.3810425,7.2595825c1.1281128,6.8069458,1.5279541,13.6650085,1.403595,20.5613708
		c-0.0211792,1.1807251,0.3742981,2.3777466,0.2909241,3.5468445c-0.2297668,3.2211304-0.6865845,3.9199829-4.09375,4.0181274
		c-3.2424622,0.0934448-6.4950256-0.2410278-9.7445374-0.2848816c-4.2445068-0.0574951-8.4905396,0.0221863-12.7354126-0.021698
		c-8.6416321-0.0890503-17.2831116-0.202179-25.9240723-0.3450317c-3.7093811-0.0611877-7.417572-0.2094116-11.1255798-0.3417053
		c-1.4459534-0.0516052-2.6394348-0.681366-2.7844849-2.1988831c-0.3178101-3.3248291-0.8406982-6.6980591-0.5778198-9.9954834
		c0.4558105-5.7220459,2.6261292-10.9862671,5.3879089-16.0109558c1.8061218-3.2861633,3.7826538-6.5336914,5.1116028-10.0164795
		c3.1584167-8.2770996,2.4957275-16.4044495-2.1524963-24.0139465c-2.2486572-3.6811218-4.9732971-7.071991-7.2148743-10.7568359
		c-2.7434692-4.5100708-5.2003479-9.1939392-7.7952271-13.7947693c-0.5939636-1.0529785-1.2449341-2.0738525-1.9780579-3.2891846
		c-3.0705261,4.7490845-5.9763489,9.2672119-8.9087219,13.768219c-1.3588562,2.0861206-2.2568665,2.1388855-3.9528809,0.3610229
		c-2.7617798-2.8952332-5.344574-6.000885-8.3565979-8.609375c-5.375824-4.655304-10.9635773-9.0722656-16.5677948-13.4547424
		c-2.5999298-2.03302-5.458847-3.7329102-8.1755829-5.6193542c-1.2391968-0.8605347-1.6825714-3.0172424-0.9655762-4.6043701
		c2.867157-6.3469543,5.760025-12.6822815,8.6320648-19.0272217c0.948761-2.09552,1.8849335-4.1974335,2.7886658-6.3128052
		c1.3689423-3.204483,0.6785126-6.0876007-1.1855927-8.9352722c-5.9067535-9.0226593-11.7205658-18.1061554-17.5653076-27.1691589
		C219.2506714,215.7242432,219.5002594,214.6907654,221.2337646,213.5507202z M567.2086792,421.6326599
		c0.0947876,2.562439-1.6064453,4.348053-2.7137451,6.313324c-3.5829468,6.3598938-7.2987061,12.6451416-10.980835,18.9490356
		c-1.1894531,2.0360413-2.2175903,4.564209-4.7305908,4.9573364c-2.1607666,0.3379822-4.6954956,0.1710815-6.6523438-0.699707
		c-1.4349976-0.6384888-2.5474854-2.6380615-3.2088623-4.2720642c-3.2350464-7.9913635-6.2354736-16.0775452-9.3952637-24.1001587
		c-1.1339722-2.879425-0.6218872-5.4746399,0.8143311-8.0579224c3.196228-5.749115,6.3682861-11.5118103,9.5281982-17.2809448
		c1.5378418-2.8074646,2.9727173-5.6724548,4.5519409-8.4557495c1.6234131-2.861084,3.6552124-3.2340393,7.0317993-2.0133362
		c3.0401001,1.0990295,3.6248779,3.743988,4.6264038,6.2116394c2.5074463,6.1783752,5.0085449,12.3594055,7.5345459,18.5302124
		c0.9983521,2.4390869,2.0982056,4.8373108,3.0615845,7.2896729
		C566.9979248,419.8235168,567.0390625,420.7532959,567.2086792,421.6326599z M514.4293823,421.8459473
		c-2.8160706,5.0653687-5.5101318,10.1986694-8.230896,15.3164978c-1.5049133,2.8309937-2.9933777,5.6716003-4.4295654,8.5379333
		c-0.8094177,1.6151733-2.2990723,1.9368591-3.8103638,2.0367126c-3.0367432,0.2006836-6.0938416,0.4477234-9.1240234,0.2994995
		c-3.9182739-0.1919556-6.3442383-2.7933655-8.3401184-5.8973389c-2.6024475-4.0470276-4.5742798-8.3718872-5.666748-13.0549011
		c-1.1165161-4.7857361-0.2041931-9.2147827,2.901947-13.0626526c2.4135437-2.9900208,5.1322937-5.7443848,7.4189148-8.823822
		c3.7831421-5.0951233,5.9482727-11.0397034,8.2728882-16.8804016c0.8237305-2.0694885,1.6351929-4.1440125,2.4927063-6.3190613
		c6.3232422,10.3578491,12.5103455,20.5909729,18.8147583,30.7514954
		C516.3164673,417.3088074,515.7504272,419.4697266,514.4293823,421.8459473z M483.9614258,209.9645538
		c1.9935303-3.3019714,4.2631836-6.4541779,6.6234131-9.5122681c1.5958557-2.067627,2.5940552-2.1634369,4.3579712-0.2442017
		c2.2367249,2.4340363,4.2401428,5.1050415,6.1513062,7.8101807c2.3543701,3.3327179,1.2126465,6.4966888-0.8591919,9.5104065
		c-2.1582336,3.1389313-4.3071899,6.284256-6.4645996,9.4240265c-0.1793213,0.260849-0.3910828,0.499176-0.6711121,0.853302
		c-3.1227722-4.7396545-6.2640686-9.2957764-9.1228333-14.0228271
		C483.3953552,212.822464,483.3847656,210.9197083,483.9614258,209.9645538z M556.3966675,307.0554504
		c3.0228271-4.8576355,6.0647583-9.7035217,9.1956177-14.7070618c3.3275146,4.390564,6.3078003,8.7650146,7.8562622,13.8727417
		c1.2497559,4.1226501-0.3321533,7.8782654-2.4858398,11.3074341c-1.7218628,2.7419434-3.7658081,5.2818604-5.7645264,8.0466614
		c-3.0562744-5.0991516-5.9724731-10.0126038-8.9448853-14.8919373
		C555.4637451,309.3872986,555.6721191,308.2195129,556.3966675,307.0554504z M478.7980652,122.0443039
		c-1.5071106,3.8034973-3.8539124,7.0541916-6.2545166,10.4732132c-2.506134-2.9431152-4.77948-5.8124619-7.2711487-8.4774246
		c-2.0743713-2.2183151-2.11203-4.3794785-0.6180115-6.8494797c2.1763611-3.5981903,4.2804871-7.2400818,6.6286316-11.2250137
		c2.1869507,2.4025269,4.3268738,4.5789032,6.2617188,6.9242783
		C479.8053284,115.6299667,480.1211243,118.705452,478.7980652,122.0443039z M318.9555969,427.0746765
		c-1.4862671,2.2259827-3.1006165,4.366394-4.7991638,6.7446289c-3.6671753-4.3292236-7.5414124-8.2026367-8.8966064-13.6204834
		c-0.6988525-2.7928772,0.3563232-5.4880981,1.953186-7.8271484c2.1424255-3.1384277,4.4246826-6.1813965,6.9121704-9.6334534
		c2.3051147,3.3276672,4.4418335,6.2655945,6.4229126,9.3048706
		C324.0710754,417.4481506,322.1051331,422.3578796,318.9555969,427.0746765z M202.7859039,217.6303558
		c2.38797-0.0036926,4.7702484-0.7143097,7.1652832-1.0286102c0.9080963-0.1191559,1.8449402-0.0193176,3.1814575-0.0193176
		c-4.2912445,11.1175232-8.4608002,21.9283142-12.6569061,32.7286835c-0.082016,0.2111053-0.4764862,0.3008423-0.8301086,0.5089264
		c-0.1845551-2.19487-0.4232178-4.2063599-0.5087585-6.224411c-0.1667328-3.9302216-0.1956482-7.8665009-0.3815308-11.7957001
		c-0.1336212-2.8239746-0.4218597-5.6408691-0.6551514-8.4599609
		C197.8706055,220.5642395,198.6366882,217.6365814,202.7859039,217.6303558z M210.2817841,276.1046448
		c-2.7856445,0.3163147-5.5988464,0.6524353-8.3898621,0.572113c-1.9765472-0.0568237-2.3395844-1.9617615-2.3863068-3.5337219
		c-0.0606689-2.0343628,0.1292572-4.0855408,0.340683-6.1158447c0.1793365-1.7232666,0.5425415-3.4273682,0.8786926-5.4692688
		c3.4217987,4.4650269,6.6864471,8.7243347,9.9504242,12.9844666
		C211.2073669,275.2365417,211.0334015,276.0192566,210.2817841,276.1046448z M178.1126099,323.2243958
		c-0.9786835-9.8025208,2.3889923-18.2417908,8.0522156-25.9472656c4.3825073-5.962738,9.7811737-10.8509521,16.3548431-14.2828369
		c4.5137634-2.3563843,9.2954407-2.2984009,13.8675385-0.1817017c7.7844696,3.6041565,14.986557,8.2458191,21.7778931,13.4428101
		c5.3391724,4.0856934,10.3778381,8.5710449,15.4652405,12.9770813c6.8946838,5.9713135,12.928833,12.7612915,18.339447,20.0834045
		c2.989502,4.0453491,4.4638367,8.8112183,5.2252197,13.712738c0.7022095,4.5211487,1.2160034,9.1001282,1.3845825,13.6695251
		c0.3855591,10.4492798,0.6322937,20.9076233,0.6916199,31.3636169c0.033783,5.9225464-0.3911133,11.8486328-0.6529541,17.7711792
		c-0.1882629,4.2625122-0.4677429,8.520813-0.6716309,12.7828064c-0.2529297,5.2911072-0.4450378,10.5852356-0.7111206,15.8756714
		c-0.1798401,3.5750732-0.4650574,7.144928-0.6546326,10.7195129c-0.0643616,1.2133179,0.0692444,2.4362183,0.0263977,3.6517334
		c-0.1107788,3.137085-2.1943665,4.6307373-4.8775024,5.2860718c-2.662262,0.6502686-5.4084167,0.9613647-8.122467,1.3923035
		c-1.5709534,0.2494202-2.2244263-0.6017151-2.1744995-2.0466309c0.0784607-2.2733459,0.1877136-4.5478821,0.3721008-6.8148499
		c0.1463928-1.7987061,0.4995117-3.5812988,0.6307678-5.3803406c0.3847351-5.2674255,0.7168274-10.5388489,1.0466003-15.8101501
		c0.3583374-5.7290955,0.7193604-11.4581909,1.0260925-17.190155c0.2705994-5.059845,0.4900818-10.1225281,0.6906128-15.1855774
		c0.1510925-3.820282,0.2773132-7.6422729,0.3430176-11.4647522c0.1416931-8.2389221,0.4754944-16.484436,0.2717896-24.7157898
		c-0.1477356-5.9713135-1.693512-11.7526855-4.0119019-17.3132019c-3.0374146-7.2849731-7.2890015-13.8461914-12.2305145-19.9006958
		c-4.7689056-5.8430481-9.9937897-11.3173523-15.0847168-16.8930054c-2.9142151-3.1917114-5.0872345-2.9518738-7.7212677,0.3190002
		c-3.5619812,4.4233398-7.8809509,7.9412842-12.6422882,10.966095c-3.9347534,2.4997253-7.8992615,4.9547729-11.7879639,7.5239563
		c-3.6683655,2.4236145-5.4875793,7.210144-4.3530884,11.4634094c1.2381897,4.6426697,2.6116791,9.2493896,3.9335785,13.8974609
		c-4.7381439-0.8686218-9.184021-2.5604248-13.0937347-5.3976746
		C182.5796661,337.0680847,178.8891144,331.0019836,178.1126099,323.2243958z M220.8710632,316.6109009
		c-4.15242,8.5829773-8.2570953,17.0678101-12.5569,25.9556885c-1.6220856-4.2245178-3.4752502-7.9338989-3.3903809-12.2740479
		c0.0744629-3.8019714,2.0548706-6.4975281,4.9018555-8.3705444c3.2174225-2.1165466,6.8311615-3.6317139,10.2830353-5.3877258
		C220.2702026,316.4520569,220.5342407,316.571228,220.8710632,316.6109009z M254.4851532,484.9760132
		c-0.5248871,4.5608215-1.9141846,9.0219727-2.4439545,13.5826416c-0.44841,3.8608093-0.3805084,7.8061523-0.2406769,11.7032471
		c0.1253815,3.4952393,0.7956543,6.9683228,0.9845734,10.4642334c0.3353119,6.2022095,0.6906128,12.4145508,0.6828766,18.6221313
		c-0.0361328,28.9497681-0.1631927,57.8996582-0.3403473,86.8490601c-0.026886,4.390564-2.1968842,6.2815552-6.7725067,6.9172363
		c-4.5882111,0.6373291-9.2161102,1.2780151-13.8335724,1.3338013c-4.370575,0.0527954-8.7907257-0.3855591-12.9849854-1.9315186
		c-1.6360321-0.6030273-3.0686798-0.4124146-4.6099091,0.6091309c-5.2579956,3.4856567-11.1255951,5.3204956-17.392868,5.8810425
		c-5.4148102,0.4841919-10.8422241,0.8435669-16.2477875,1.4122925c-7.3794098,0.7764893-14.7643738,1.5533447-21.7804108,4.2682495
		c-2.0841064,0.8063965-3.2824554-0.0697632-3.3991089-2.3511963c-0.1835327-3.5863647-0.3255463-7.1782227-0.3455505-10.7686157
		c-0.048233-8.6621094,0.0250397-17.3249512-0.0302582-25.9871216c-0.0351257-5.4863892-0.0805054-10.9786987-0.3638763-16.4558105
		c-0.2984924-5.7723389-0.8519592-11.5325317-1.3573608-17.2925415c-0.4052124-4.6176758-0.9790192-9.2213135-1.3376923-13.84198
		c-0.2469025-3.180603-0.2354584-6.3804321-0.375473-9.5700684c-0.0720978-1.6432495-0.3351288-3.2841797-0.3173218-4.9240723
		c0.0638733-5.8877563,0.1966553-11.7750244,0.3312683-17.6616211c0.0875702-3.8226318,0.0934601-7.6535034,0.3737946-11.4632568
		c0.2857361-3.8826294,0.87146-7.7427673,1.3047638-11.6151733c0.0825195-0.7371521,0.061676-1.4854126,0.0983124-2.2281494
		c0.1139526-2.3067932,1.4271088-3.7001038,3.1844788-5.1438599c4.3554535-3.5780945,4.192749-6.8442688,1.334671-11.8572083
		c-2.1162109-3.711731-3.6243286-7.4337158-3.9009705-11.6699829c-0.0998383-1.5284729-0.2759857-3.0535583-0.3260651-4.5831909
		c-0.1616821-4.9295654,3.0027924-6.9371948,6.9232635-7.5493164c2.1797333-0.3405151,4.4238434-0.3805237,6.6380463-0.3697815
		c8.3575897,0.0410156,16.5790558-0.9840698,24.6517639-3.1086731c8.0680084-2.1232605,16.1134949-4.3337708,24.1537781-6.5603943
		c2.0007324-0.5541382,2.8152161-1.5941772,2.6478119-3.569519c-0.3339539-3.9406433-0.8435516-7.8666687-1.286087-11.7978821
		c-0.3605194-3.2031555-0.7089386-6.4076233-1.0993652-9.6070557c-0.4237213-3.4712219-0.9178467-6.9338684-1.3291321-10.4064026
		c-0.3924408-3.3124084-0.6875763-6.6365356-1.0807037-9.9489136c-0.4121094-3.4724121-0.9161682-6.9338684-1.3312988-10.4059143
		c-0.3894348-3.2569275-0.6889343-6.5247803-1.0755005-9.782196c-0.5388489-4.5387878-1.1748352-9.0666809-1.6706543-13.6098633
		c-0.4902649-4.4912415-0.8578339-8.9959412-1.2792053-13.494751c0.1601868-0.0316162,0.3205261-0.0632019,0.4808655-0.0947876
		c7.0130157,8.4064941,14.0260315,16.8128357,21.2444305,25.4655762c1.2667542-3.7297058,2.4370575-7.1404114,3.5838165-10.5588684
		c2.2832642-6.8060913,4.5645294-13.6128845,6.8230896-20.427063c0.7045593-2.1259766,1.6434174-4.2426758,1.885437-6.4288025
		c0.1532898-1.3852539-0.553299-3.0172424-1.2699585-4.321167c-3.1105194-5.6601868-6.3534851-11.2479553-9.5744476-16.8471375
		c-1.9316559-3.3577576-4.0013123-6.6392212-5.8435516-10.0443726c-1.721405-3.1819458,0.2988281-7.440918,3.8268433-8.2866516
		c1.3361816-0.3203735,2.3173981,0.3319397,3.1680145,1.3835754c3.800293,4.6983032,7.661438,9.3471985,11.47435,14.0355835
		c2.8439484,3.4971008,5.6625366,7.0151978,8.4609528,10.5489502c0.9691162,1.2235718,1.1596985,2.5083313,0.474472,4.0495605
		c-1.7501373,3.9375916-1.4050903,7.9306641,0.3223572,11.7642517c1.7738647,3.9364319,4.0618286,7.6647949,5.561554,11.6938477
		c1.2786865,3.4355774,2.0388794,7.1323547,2.5116577,10.780365c0.4744873,3.6611328,0.3538208,7.4044495,0.4008789,11.1130066
		c0.016449,1.2926331-0.0976563,2.6254578-0.4122925,3.8745728c-0.4706116,1.8677979-1.8553467,3.0194397-3.7187805,3.2737427
		c-3.3606262,0.4588318-6.7518311,0.6878967-10.1210175,1.0897827c-3.2433167,0.3865662-6.4699707,0.910614-9.7129517,1.3002014
		c-3.4248199,0.4116211-6.8598938,0.737854-10.2911072,1.097168c-2.3617554,0.247406-4.7470551,0.3581848-7.0807495,0.7652588
		c-2.6968994,0.4705811-3.8433228,2.6417542-3.3821259,5.4931335c0.5489197,3.3928833,0.9203644,6.8146667,1.3639069,10.2243652
		c0.5675812,4.3635254,1.1634064,8.7236633,1.6846008,13.0927124c0.4087524,3.4273682,0.7178345,6.8664551,1.0796967,10.29953
		c0.4618683,4.3840027,0.8469238,8.7784424,1.4323273,13.1459961c0.3226929,2.4084778,1.9269562,3.1483459,4.5278778,2.7127075
		c4.4951172-0.7528076,9.0132599-1.3696289,13.5236664-2.0293274c4.0685425-0.5949707,8.15271-1.0951538,12.2051239-1.7832642
		c2.4415894-0.4146423,3.499939,0.7287598,3.3876648,3.1678467c-0.1038513,2.2538757-0.5137939,4.493103-0.637146,6.7471313
		c-0.1899414,3.4737244-0.1445618,6.9622498-0.3875732,10.4311218
		C255.7386475,470.8602295,255.2949219,477.9403076,254.4851532,484.9760132z M246.2610016,421.8497925
		c-2.5743713,3.6631775-5.1635284,7.3158875-8.0612793,11.4187317c-2.5370636-3.0520325-5.0358124-5.7580261-7.1767273-8.7223206
		c-1.9676208-2.7239685-2.1790619-5.8265991-0.7319489-8.9549255c1.9758606-4.2712402,4.967392-7.8115234,8.0108643-11.361084
		c2.6283264,3.6147461,5.2084045,7.124115,7.7446289,10.6651001
		C247.6576843,417.1444397,247.9220734,419.4860229,246.2610016,421.8497925z M446.8581543,659.8265381
		c-0.2127991,1.8010864-0.9638977,3.8392944-2.1474915,5.1697388c-3.9268494,4.4143066-8.0328674,8.6895752-12.3153687,12.760437
		c-3.560791,3.3848267-7.3622742,6.5414429-11.2457581,9.5559692c-5.4274292,4.2129517-11.3180542,7.7244873-17.5202637,10.7012329
		c-4.047699,1.9429321-7.5678406,0.2874146-10.9845886-1.6619263c-5.3179932-3.0343628-10.6859131-6.0039063-15.8267517-9.3199463
		c-7.2627869-4.6852417-14.3873901-9.5904541-21.4716797-14.5440674c-3.3189392-2.3205566-6.3872681-4.9974976-9.6026611-7.4691772
		c-2.1604309-1.6605225-4.7279053-2.4141846-7.3701782-2.5551758c-6.8834229-0.3670654-13.0754089-2.4975586-18.6606445-6.550293
		c-4.3971252-3.1905518-7.3965454-7.484314-10.2754822-11.9839478c-2.5120239-3.9262085-5.3222046-7.6796265-8.2232971-11.3325195
		c-1.6799011-2.1151733-3.8401489-3.8424683-5.7127991-5.8123169c-3.3486938-3.5220947-6.4382019-7.2440796-8.600647-11.9019165
		c3.8873596,1.1417236,6.725769,3.4290161,9.4502563,5.8892822c2.4469604,2.2098389,4.8204956,4.5045166,7.3362122,6.6322021
		c1.2435608,1.0517578,1.813324,0.696106,2.1483154-0.9321899c0.4297485-2.0889282,0.8675842-4.1782837,1.3879395-6.2459106
		c0.9391785-3.7312012,3.8700562-4.8690796,7.2207642-5.2924194c4.9825134-0.6292725,9.9801636-1.1380615,14.9656982-1.7446289
		c3.411377-0.414978,6.8036194-1.0048828,10.2215271-1.3417358c3.5908813-0.3535767,4.7781677,1.9545288,5.0186768,4.4544678
		c0.4617004,4.7993164,1.5466003,9.4373169,3.2312012,13.9036865c0.9156494,2.4274292,2.2795715,4.7440186,3.7730713,6.87854
		c1.4203796,2.0296631,3.8366089,2.5084839,6.1788635,2.5894775c3.3328857,0.1154785,6.6758728-0.0604858,10.0085754,0.0561523
		c3.0537109,0.1065674,6.1393738,0.2035522,9.1411438,0.7147827c6.7419128,1.1479492,11.711853,6.5436401,11.7266235,12.7006226
		c0.0040588,1.7182007-0.7605286,3.4717407-1.3703003,5.1366577c-0.1720886,0.4699097-1.0191956,0.7647095-1.6156616,0.9516602
		c-0.1343079,0.0421753-0.5289307-0.6940308-0.7780151-1.0881348c-0.1806946-0.2858887-0.2653809-0.6482544-0.4882507-0.8877563
		c-0.3496094-0.3759766-0.779541-0.6773682-1.175354-1.0103149c-0.2314148,0.4575195-0.6011963,0.8948364-0.6704407,1.3756714
		c-0.3166504,2.194397-0.6142883,4.4497681-2.4431152,5.9190674c-0.8104248,0.6509399-2.0803833,1.0880737-3.1058044,1.0264282
		c-1.4015503-0.0842285-1.0511169-1.6385498-1.328949-2.583313c-0.1862183-0.6334839-0.0808411-1.369812-0.0265503-2.053833
		c0.1356201-1.7103271-0.604248-2.8901978-2.2172241-3.7819824c-0.3049011,1.4920044-0.6170044,2.8799438-0.8692932,4.2786255
		c-0.804718,4.4623413-2.8589172,5.1205444-6.8684692,5.3882446c-3.4006042,0.2270508-6.8284607,0.046936-10.3929443,0.046936
		c3.5772705,4.4307251,36.6291504,26.4238892,41.3363647,27.5004272c0-0.7044067,0-1.3647461,0-2.0249634
		c0.0018616-18.9866943-0.0457153-37.9735718,0.0368042-56.9599609c0.0235291-5.4067383,0.3854065-10.8141479,0.6734924-16.2168579
		c0.1201477-2.2520142,0.385376-4.5029907,0.7183228-6.7344971c0.1643982-1.1018677,1.2306519-1.3924561,1.9380493-0.807251
		c4.1697388,3.4495239,8.8436584,6.326416,12.2115173,10.7006836c1.6496277,2.1427612,1.7640991,4.4089355,0.430603,6.6173706
		c-2.0289612,3.3604736-4.2786255,6.5869751-6.3892822,9.8991699c-0.9628906,1.5113525-1.9642944,3.026001-2.6921997,4.6536255
		c-1.6230774,3.6293335-0.3680725,6.87854,1.5679626,10.0161133c4.9537659,8.0286865,9.8606567,16.0861206,14.8131104,24.1154785
		c0.8805237,1.4276123,1.8894653,2.776062,3.1338806,4.5910645c6.6651001-9.8900757,13.0782471-19.4063721,19.5492554-29.0083618
		C444.9606018,654.2630005,447.2563171,656.4564819,446.8581543,659.8265381z M372.8391418,611.8050537
		c1.3465881-1.5914917,3.2627869-2.4281616,5.3157959-1.9568481c2.3148804,0.53125,4.3838501,1.7385254,4.8590088,4.3495483
		c0.1856995,1.0213623,0.0362854,2.2542114-0.380188,3.2073364c-1.4387207,3.2925415-3.0624695,6.5040894-4.8208313,10.1746216
		c-2.192688-3.6856689-4.3105774-7.0491333-6.2180481-10.5280762
		C370.5162048,615.0843506,371.5889893,613.2824097,372.8391418,611.8050537z M507.6834106,651.6096191
		c-0.152771,0.1393433-0.8905945-0.208252-1.2504578-0.4807129c-0.8492737-0.6430054-1.6318054-1.3744507-2.7532043-2.3381958
		c0.4480896,2.0220947,0.7933044,3.5426636,1.1208801,5.0668945c0.4563293,2.1229248-0.2132874,3.6486816-2.0807495,4.5910645
		c-1.4669189,0.7402344-2.8750305,1.5814209-4.6880493,1.2990723c-2.6434631-0.4116211-3.4009705-2.6727295-4.706543-4.4317627
		c-0.9262695-1.2481079-1.9219055-2.4449463-2.8866577-3.6646729c-0.1270752,0.1057129-0.254303,0.2112427-0.3815308,0.3169556
		c0.2094116,1.1450806,0.4213562,2.289856,0.6277466,3.4356079c0.5227051,2.9016113-0.7255554,4.800354-3.4945679,5.5941162
		c-2.7296753,0.7824097-5.6156616,1.2136841-8.4569397,1.3706665c-6.0820313,0.3363037-12.0982056-0.3966675-17.9701843-2.0272827
		c-4.3470459-1.2072754-7.9379272-3.5388184-9.9598389-7.7458496c-2.1540222-4.4818115-5.1749573-8.305481-8.5332336-11.9267578
		c-5.8746643-6.3353882-12.71875-11.5401001-19.3692322-16.9859619c-4.6455383-3.8043213-9.0833435-7.8629761-13.5903931-11.8348999
		c-0.4900818-0.4319458-0.822876-1.0421753-1.4010315-1.7940063c1.4447327-0.2420044,2.6293335-0.53125,3.82901-0.6242065
		c3.5665283-0.2767944,7.1365662-0.53125,10.7099609-0.6911011c3.9907227-0.1786499,7.9880066-0.3685913,11.9797363-0.3203735
		c3.3416443,0.0403442,6.6775513,0.4457397,10.0196838,0.6220703c0.773468,0.0408325,1.56073-0.2817383,2.342926-0.2874146
		c6.4313049-0.0467529,12.7715454,0.3220215,18.3643188,4.0886841c3.1239929,2.1039429,5.5301208,4.899353,7.0224304,8.2710571
		c2.710022,6.1223755,7.8085022,8.538269,13.8855286,9.6324463c7.0170593,1.2632446,13.0465088,4.4604492,18.1797791,9.3292236
		c2.8310242,2.6851196,3.8569336,6.2689209,4.2680359,10.0263672
		C508.5639648,650.5860596,508.0933533,651.2354736,507.6834106,651.6096191z M517.2640991,617.7451172
		c-1.1818848,1.0628662-2.4414673,2.0551758-3.5203247,3.2147217c-3.1607666,3.3972778-6.9217224,3.7342529-9.2011414-0.9332886
		c-0.1714172-0.350769-0.4379883-0.6536865-0.6354675-0.9931641c-0.6086121-1.0465698-0.9085999-2.3953857-2.523468-2.4019165
		c-1.732666-0.0070801-2.694519,1.1906128-3.4419556,2.432312c-0.9497681,1.5783691-1.5743408,3.3482056-2.4380798,4.9832153
		c-1.4003601,2.6511841-4.0290222,3.6132202-7.3978882,2.8521729c-4.2189636-0.9533081-7.4113464-3.3967285-9.8241882-6.8778687
		c-1.9120178-2.758728-3.6766052-5.6195068-5.6519775-8.6586304c3.0848083,0.163208,5.9282837,0.262207,8.7631531,0.4744873
		c5.5907898,0.4188232,11.1763611,0.9055786,16.7651367,1.3529663c1.6960144,0.1358032,3.394043,0.2494507,5.0927734,0.34729
		c4.1409607,0.2382813,8.2843018,0.4404907,12.4237671,0.7016602c1.56427,0.0986938,3.1207886,0.3198853,4.9437256,0.5130005
		C519.4137573,615.8262329,518.3353882,616.7816772,517.2640991,617.7451172z M653.4221802,561.9961548
		c-2.0442505,4.7734375-3.2910156,9.682312-3.3780518,14.8682251c-0.0541382,3.2269897-0.1881104,6.4682617,0.0372925,9.680481
		c0.2885742,4.1105957,0.8817139,8.2009888,1.3845825,12.2948608c0.2816772,2.2928467,0.7398682,4.5670776,0.9484253,6.8651123
		c0.2263794,2.4934082,0.3215332,5.0037231,0.3532715,7.5081787c0.0380249,3.007019-1.4156494,4.086853-4.3885498,3.4579468
		c-6.583252-1.3930054-13.1630859-2.803833-19.760498-4.1275635c-4.4046631-0.883728-8.8762817-1.4622192-13.2466431-2.4824219
		c-4.882019-1.1395264-9.2745972-3.4376221-12.9840088-6.8483276c-3.3417969-3.0726929-7.1599121-4.6952515-11.7302856-4.8486938
		c-6.4802246-0.2173462-12.9534302-0.6517944-19.428772-1.0064697c-3.9154053-0.2142944-7.8308105-0.4300537-11.7435913-0.6867065
		c-4.9230347-0.3230591-9.8426514-0.6993408-14.7651978-1.0304565c-2.0997314-0.1413574-4.2025146-0.2467651-6.3052368-0.3331299
		c-3.3056641-0.1361694-6.6159058-0.1833496-9.9180298-0.3751221c-4.928894-0.2860718-9.8515625-0.6756592-14.7784424-0.9993896
		c-2.2138977-0.1453857-4.430603-0.2611694-6.647644-0.3483887c-3.4771118-0.1370239-6.9578857-0.194458-10.433136-0.3647461
		c-6.3045959-0.309082-12.6066589-0.6732788-18.9093933-1.0205078c-4.1453552-0.2282715-8.2910461-0.4550171-12.4353943-0.7041016
		c-5.4976501-0.3307495-11.006073-0.5566406-16.4866028-1.0733032c-3.1907043-0.3008423-6.3151855-1.2037354-8.9764404-3.1257935
		c-3.0377502-2.1937256-6.3814087-2.3207397-9.874115-1.7380371c-4.9889221,0.8320923-9.957489,1.8156738-14.96875,2.475708
		c-5.6028748,0.7376709-11.23703,1.2680664-16.8701782,1.7341309c-4.3623352,0.3609009-8.7427979,0.5168457-13.1179199,0.7028809
		c-3.8196106,0.1625366-7.6431274,0.3435669-11.4642639,0.3296509c-5.4850464-0.0198364-10.971283-0.161377-16.4541626-0.34021
		c-5.1210327-0.1672363-10.2685852-0.1833496-15.3492737-0.7556763c-5.5785217-0.6286011-10.8899536,0.5491333-16.2909851,1.4020996
		c-3.2895203,0.5193481-6.6303101,0.7055664-9.9420166,1.0926514c-4.5951233,0.5369873-9.1821594,1.1430664-13.7774353,1.6785278
		c-2.4740601,0.2883911-4.9598389,0.4724731-7.4368896,0.7365112c-4.1004944,0.4373169-8.1959229,0.9243774-12.2979126,1.3469238
		c-3.7159424,0.3830566-7.4399109,0.6860962-11.156189,1.0657349c-3.0343933,0.3101196-6.0553284,0.7988892-9.0957642,0.9904785
		c-2.6071472,0.1641846-3.7286987-1.0908203-3.7455139-3.6730957c-0.114624-17.7047729-0.1947937-35.4099121-0.3828735-53.1140747
		c-0.0532837-5.006897-0.4779968-10.008606-0.6438904-15.015625c-0.1759644-5.3121338-0.7512817-10.6765137-0.2428589-15.9301453
		c0.7249146-7.4910278,2.2081299-14.9143066,3.512207-22.341095c0.5215454-2.9710388,1.3308105-5.9030762,2.1812744-8.8023376
		c1.3213806-4.5055237,3.0609436-4.9040222,7.3313293-5.3222046c1.6479492-0.1611633,3.3248291-0.0262146,4.9884033-0.0262146
		c0.0213623-0.1421814,0.0425415-0.2843628,0.0637207-0.4263916c3.2251282,0.4825439,6.5173645,0.713623,9.6485596,1.5486145
		c1.6842651,0.4492798,3.1216125,1.8935242,4.6156311,2.9651489c1.059021,0.7595215,2.0766907,0.4830322,2.745636-0.2998352
		c3.2644653-3.8206482,7.6447754-4.7764587,12.338562-5.1724548c4.1063538-0.346405,8.1959229-0.888092,12.2952271-1.3218994
		c2.4783936-0.2621765,4.9566345-0.5591736,7.442749-0.7033691c3.3011475-0.1914368,6.6096497-0.2601929,9.9156494-0.3618774
		c4.2226563-0.1299133,8.4470215-0.2132874,12.6688232-0.3665466c3.5236511-0.1278992,6.2390442,1.1773376,8.125,4.2176208
		c1.0553284,1.7012329,2.8994141,1.9418945,4.1772766,0.4658813c3.0671692-3.5426331,7.0226135-4.6640015,11.5212402-4.6936035
		c6.5750122-0.0431824,13.1496887-0.1954651,19.723877-0.3329468c3.8794556-0.0811768,7.7575684-0.2228699,11.6362-0.3386536
		c3.8216248-0.1139526,7.6431274-0.2296143,11.4647522-0.344574c3.7658386-0.1134338,7.5315247-0.2305908,11.2973633-0.3391724
		c4.108551-0.1184692,8.2169189-0.2389832,12.3256531-0.3405151c5.0260315-0.1243591,10.0519409-0.2914124,15.0788269-0.332428
		c17.9337158-0.1455688,35.8676147-0.3148193,53.8015137-0.3254089c6.3240662-0.0036926,12.6498108,0.3902893,18.9718933,0.6655884
		c3.6878662,0.160675,7.3829346,0.3242188,11.0526733,0.7015381c6.9075928,0.7099304,13.8236694,1.410614,20.6912842,2.4217529
		c7.2236328,1.0635681,14.4014893,2.4476624,21.5854492,3.7680359c3.5757446,0.6571655,6.52948,2.2491455,8.1259766,5.8045654
		c0.5217285,1.1617126,1.4855957,1.6598816,2.9486694,1.134491c3.59375-1.2904663,7.1848145-2.6091614,11.1251221-2.508667
		c4.4577637,0.1136169,8.1624756,1.9301453,11.4341431,4.7687378c1.1136475,0.9662476,2.0439453,2.1449585,3.046814,3.2369385
		c1.1538696,1.2563171,2.2316895,1.3096008,3.4349365,0.0870361c2.1602173-2.195343,4.7008057-3.7997742,7.8009644-3.8592834
		c1.9854126-0.0379944,4.0379028,0.4255676,5.9658813,0.9879456c4.723877,1.3783569,9.4509277,2.7869873,14.06604,4.4843445
		c3.7579346,1.3822327,5.1491089,4.6670532,5.5358276,8.4078674c0.6052246,5.8549805,1.1600342,11.7155151,1.7023926,17.5767517
		c0.1778564,1.9230347,0.3193359,3.854248,0.3596802,5.7841797c0.1469116,7.0340576,0.1581421,14.0720825,0.4020386,21.1022339
		c0.0974731,2.8093872,0.5479126,5.6237793,1.0494385,8.3974609
		C655.6587524,554.3510132,655.0172119,558.2717896,653.4221802,561.9961548z"/>
	<path d="M259.0397644,264.958374c4.1233215,6.1582031,8.2367554,12.3231201,12.3627625,18.4794617
		c1.1590576,1.7294617,2.8153992,1.9138489,4.2107544,0.4085693c0.6420288-0.692627,1.1168213-1.5415649,1.6596985-2.3247681
		c3.1026306-4.4768066,6.2561951-8.9197998,9.2781372-13.4503784c1.23703-1.8543701,1.9933472-3.8559265,0.7533264-6.1624146
		c-1.0533142-1.9593811-2.9021301-2.4874573-4.7384949-2.8632813c-4.5201416-0.925415-8.4634705-2.9180908-11.9832764-5.8447418
		c-2.1076355-1.7524872-2.1455994-3.3712006,0.1329651-4.4967957c5.3811951-2.6584015,10.4154663-5.7494354,14.8967896-9.8196564
		c2.8639832-2.6012726,3.4256897-4.3088837,1.3738403-7.4979095c-5.647583-8.7770996-11.275177-17.5671539-17.0525208-26.5731812
		c-2.4098206,5.1420288-4.7203369,10.1259003-7.0763855,15.0879211
		c-4.1468506,8.7337341-8.2816162,17.4735413-12.5111694,26.1672821c-1.1508026,2.3654633-1.0306244,4.4524231,0.4258881,6.5899658
		C253.5538635,256.7407837,256.2911072,260.8535156,259.0397644,264.958374z"/>
	<path d="M304.9203186,148.3837738c1.8170471-1.6443329,3.5453491-3.211441,5.2770081-4.7750244
		c4.4865417-4.0511475,9.5631714-7.0643616,15.347229-8.9004822c0.9593811-0.3044586,2.1463013-0.881546,2.5801086-1.6831665
		c2.1094666-3.8991241,4.1845093-7.8382492,5.918335-11.9135971c2.144104-5.0394211,1.0706482-9.7721863-2.0953674-14.1416626
		c-1.0820313-1.4934158-2.151825-3.0424576-2.9162292-4.7088165c-1.2116394-2.6415253-2.2244263-5.3806915-3.1972351-8.1226349
		c-0.5386963-1.5182037-1.5314941-2.3174744-3.0508728-2.4068069c-1.5672913-0.092186-2.844635,0.4390945-3.5330505,2.0270462
		c-2.3641357,5.4532166-4.701355,10.9195328-7.161438,16.3295517c-3.5996094,7.9155655-7.3027649,15.783905-10.9486084,23.6785431
		c-1.3018799,2.8188324-1.8444214,5.7415466-0.8040466,8.7605591
		C301.1850891,144.9908905,302.7659607,146.9348297,304.9203186,148.3837738z"/>
	<path d="M443.7701416,155.8742981c-7.5886841-3.2665863-15.3504333-4.9015198-23.6095581-3.4731445
		C424.9205933,163.7392731,435.4622803,163.6066589,443.7701416,155.8742981z"/>
	<path d="M375.2871094,168.1163025c-2.8125305,0.525238-6.1368408,3.6061859-6.4255981,6.4371185
		c-0.084198,0.826828,0.0549622,2.1188965,0.570282,2.4478149c0.5907593,0.3771515,1.8071289,0.1311798,2.5888062-0.2134552
		c2.5690002-1.1324768,5.2403564-1.7780457,8.0162659-1.7375336c2.4755249,0.0361328,4.9467163,0.3688354,7.5508423,0.5813599
		C385.6960449,171.2822113,381.859436,166.8889618,375.2871094,168.1163025z"/>
	<path d="M446.0066833,539.3613892c-0.4906006-5.2199707-0.4159851-10.50354-0.3789978-15.7578125
		c0.0161133-2.2957153,0.3411865-4.6405029,0.8956604-6.8712158c1.539032-6.1916199,1.7002258-12.3104858,0.1362915-18.5431213
		c-0.8726196-3.4771118-1.2497864-7.0832825-1.7666016-10.6435547c-0.3543091-2.4394226-1.6637573-3.749054-4.142334-3.746521
		c-1.2660828,0.0013428-2.045105-0.4758301-2.7489929-1.5533447c-0.9024048-1.3817139-1.8814087-2.867157-3.1895142-3.7999573
		c-3.1717224-2.2617493-6.6166992-3.3552246-10.6316528-1.9582214c-5.8862305,2.0481567-10.8781738,5.5202026-15.8126221,9.1694031
		c-2.0498352,1.5160217-3.5974426,3.2269897-3.7634888,5.8886108c-0.2262268,3.625-0.3988342,7.254364-0.7070923,10.872467
		c-0.1669006,1.9577026-0.4413452,3.9250183-0.8894348,5.8359985c-0.9250793,3.9455261-3.4935608,6.5954895-7.0209351,8.4237976
		c-2.2120056,1.1466064-2.6056213,2.1036377-1.7657471,4.3851929c1.3197021-0.5507813,2.5079651-1.0366821,3.6883545-1.5411987
		c2.2780457-0.9736328,3.2011108-0.5541382,3.9767761,1.8237305c0.1035156,0.3168335,0.2694092,0.6265869,0.3043823,0.9506226
		c0.4726257,4.3845215,1.0830383,8.7618408,1.3449097,13.1596069c0.2951355,4.9578247,0.2557983,9.9351196,0.3983459,14.9028931
		c0.0404968,1.413147,0.5326233,2.8927002,0.2472229,4.2189331c-0.5495911,2.5554199-1.3659363,5.0788574-2.3284912,7.513916
		c-1.2739868,3.2232666-1.8491211,3.3994141-5.1295776,2.413147c-1.8925171-0.5689087-3.5967712-0.0812988-4.6386414,1.546814
		c-0.875824,1.3682861-1.5667725,2.8570557-2.3091736,4.3082275c-0.6470642,1.2647095-0.35495,2.3624268,0.9148254,2.9595947
		c2.9764099,1.3996582,5.897522,3.0639648,9.0307312,3.951355c5.505249,1.5595703,10.6225586-0.8287354,13.2323914-5.5924683
		c3.1738892-5.7929688,4.0579529-12.2168579,5.0423584-18.5895386c0.4662476-3.017395,0.6188354-6.0978394,0.7060852-9.1557617
		c0.1097412-3.8555908,0.3263855-7.7515259-0.0840454-11.5674438c-0.5080872-4.725708-1.2080994-9.4040527-0.2228699-14.1240234
		c0.8662415-4.1505737,2.4728699-8.0000916,5.6129761-10.9378662c2.5537109-2.3891602,5.4166565-4.4446716,8.0300293-6.7741699
		c1.1733093-1.0460815,2.159729-1.3778687,3.3937073-0.2722778c0.8003845,0.7173462,1.8446045,1.2842407,2.3673096,2.1636047
		c1.0516357,1.7696533,1.6434326,2.433197-0.3344421,4.0823364c-0.7326355,0.6109314-1.5202332,1.1563416-2.2896729,1.722229
		c-1.8580322,1.366272-3.7744141,2.6607666-5.5549927,4.1213074c-0.7626953,0.6254272-1.4427185,1.559082-0.5015259,2.6437988
		c2.5463257,2.9348755,3.236084,6.4963379,3.3458252,10.211792c0.0932922,3.1523438-0.1843567,6.3294678,0.101532,9.4592896
		c0.5255737,5.7565308,0.6158142,11.4545288-1.3482971,16.9646606c-0.8191833,2.2980347-2.057373,4.4468384-3.1369019,6.7307739
		c0.9638977,0.1549683,1.8963623,0.4212036,2.8328857,0.4356689c4.5960999,0.0718994,9.1235046,0.5764771,13.5940552,1.696167
		c2.7123718,0.6791992,4.108551-0.3467407,4.2547913-3.0040894c0.057312-1.0429077-0.0978394-2.1125488-0.2712708-3.1506958
		C447.656311,549.3422241,446.4787903,544.385437,446.0066833,539.3613892z M432.1860352,492.3907166
		c-0.1778259,2.0340271-0.7727966,3.8367615-2.7098389,4.9262085c-2.5868225,1.4546814-5.0919495,3.0806274-7.771698,4.3352966
		c-2.0427551,0.9563293-3.1096802,0.1697388-3.3132019-2.03302c-0.3864136-4.1843567-0.0951538-8.2967529,1.3741455-12.2824402
		c0.6877441-1.8656006,1.6961975-2.5647888,3.6428223-2.1511841c1.6355286,0.3475952,3.2607727,0.8025513,4.8344421,1.3667908
		C430.5120239,487.3659973,432.4699097,490.3499756,432.1860352,492.3907166z"/>
	<path d="M549.2423096,559.2915039c-0.387207-5.2233887-0.7078857-10.4655762-0.7125854-15.7010498
		c-0.010437-11.9893188-0.4249268-23.9957886,0.989563-35.9489746c0.4845581-4.0947571,0.7525024-8.2234802,1.4291382-12.2849426
		c0.6924438-4.1566162,1.9689941-6.6308289,6.4383545-7.2384033c1.1294556-0.1536255,2.2764282-0.1800232,3.4152832-0.2648926
		c-5.2324829-4.1915588-29.8467407-4.5058594-33.9734497-1.3103027c1.7991943,1.9736938,3.7747803,3.8139343,5.3569946,5.9462585
		c3.0478516,4.1075439,4.0209961,8.7297058,2.5280151,13.7184753c-0.7205811,2.4078064-3.1561279,3.8586121-5.6077881,3.7468262
		c-2.7553711-0.1257019-5.5655518-0.3374939-8.2733765,0.0443726c-5.5973511,0.7892761-9.4322815,4.1620178-11.5308228,9.3147888
		c-1.9790649,4.8590088-3.015564,9.9744263-3.5470276,15.2109375c-0.5961609,5.8748169-0.6306152,11.7649536,0.5574951,17.5078125
		c1.0276184,4.9674072,2.8209534,9.7800293,4.3453674,14.6391602c0.6413574,2.0437622,2.4135132,3.4468384,4.4986572,3.0748901
		c2.1029053-0.374939,4.1270142-1.3144531,6.1170044-2.1669312c2.3948975-1.026123,4.6761475-1.5131836,7.3416138-0.7271118
		c2.5647583,0.7561646,5.3173218,0.8916626,7.9942017,1.2481079c2.6281738,0.3499146,5.315979,0.4136353,7.8846436,1.0057373
		c3.015564,0.6953735,5.930603,1.8249512,8.9003296,2.7695313c0.038269-2.8155518-1.4337158-5.3480835-2.6762695-7.984314
		C550.0339355,562.4406738,549.3584595,560.8571167,549.2423096,559.2915039z M533.6498413,538.1353149
		c-0.421875,3.3441162-0.9348145,6.696167-1.7247314,9.96875c-0.7329712,3.0372314-1.8505249,5.9847412-2.8601074,8.9507446
		c-0.4430542,1.3015137-1.5420532,2.0669556-2.8328857,2.0317993c-1.3018799-0.0354614-2.2669678-0.8222046-2.545105-2.2723389
		c-0.7709961-4.0187988-1.6442871-8.0186157-2.3676758-12.0456543c-0.3097534-1.7244263-0.3479004-3.4977417-0.5095825-5.2489014
		c-0.1937866-5.5134277,1.4210815-10.6038818,3.5092163-15.5679321c1.5148315-3.6016235,4.0377808-3.9501953,7.0570068-2.9489746
		c1.3968506,0.4631958,1.8424683,1.6830444,1.9708252,3.0579224c0.2099609,2.2504883,0.5929565,4.4951172,0.6430664,6.7479248
		C534.0441284,533.2489014,533.9550781,535.7153931,533.6498413,538.1353149z"/>
	<path d="M393.4457092,501.4649658c-3.3343811,0.9005432-6.6763611,1.8114929-10.0231934,2.7036438
		c-1.8002319,0.480011-2.8199158-0.2714539-2.9032898-2.1148682c-0.0335999-0.7420349,0.0242004-1.4943542-0.0749512-2.2264709
		c-0.5536499-4.0858459-0.6755066-8.1490173,1.1899414-11.9552002c0.4064026-0.8292847,1.4089661-1.7185364,2.2555542-1.8575439
		c0.5736389-0.0941162,1.4395447,1.0055847,2.0140076,1.7034302c0.4104309,0.4985046,0.5566711,1.2154846,0.8163452,1.836853
		c1.0403442,2.4906921,3.3466492,3.682312,5.1799927,2.4258118c2.1348572-1.4630737,4.1477051-3.1322021,6.0647583-4.8754578
		c1.2524719-1.1392212,1.3225708-3.0542297,0.5045471-4.4628601c-2.2577209-3.8883667-6.9195557-5.0453796-10.4010315-4.6470337
		c-4.7712402,0.5457153-9.1300659,2.361084-12.8148804,5.4826965c-3.6742554,3.1127014-6.8246155,6.7059631-7.7928772,11.6029358
		c-0.5775146,2.9216003-0.7980042,5.924408-1.0272827,8.9024658c-0.4803467,6.2356873-3.3604431,10.8710022-8.8740845,13.8730774
		c-0.3574829,0.1946411-0.7510986,0.7647705-0.7156372,1.1188965c0.0376587,0.3751221,0.5381775,0.9596558,0.8887634,1.0001831
		c1.0931396,0.1260376,2.2414246,0.2000122,3.3132324-0.0001831c2.3210754-0.4334717,3.7142334,0.130127,4.0361023,2.267334
		c0.3949585,2.6240845,0.5284119,5.2983398,0.614624,7.9562378c0.1778259,5.4815063,0.338501,10.9664307,0.3391724,16.4499512
		c0.0006714,5.3687744-0.2005005,10.737854-0.3342896,16.1062622c-0.0093994,0.3758545-0.1376343,0.7741699-0.3040466,1.1165161
		c-1.2113037,2.4938965-5.1453857,4.4275513-7.8945618,4.1036987c-1.9610596-0.2311401-2.4442749-1.611145-2.7705078-3.112915
		c-0.3196716-1.4721069-1.3657532-1.519043-2.3064575-1.1096191c-3.6952515,1.6088257-4.3507385,5.00354-1.9385681,8.2796021
		c2.506134,3.4038696,5.8587036,5.1112671,9.9131165,5.8052979c4.8156433,0.8245239,9.1035156-0.2284546,12.6990967-3.5466919
		c5.4381714-5.0186768,7.5874939-11.5116577,7.7084961-18.6897583c0.0689087-4.0828247-0.5527954-8.1728516-0.6013489-12.2629395
		c-0.1020203-8.6002808-0.1270752-17.2042847,0.0186462-25.8034058c0.0539551-3.1763916,0.9064331-5.02771,4.8277283-5.5388184
		C391.3824463,511.1712036,393.6707764,506.8258362,393.4457092,501.4649658z"/>
	<path d="M497.1339722,554.1143188c0.616333-3.2088013,1.0067749-6.5048828,1.0567017-9.7702026
		c0.1378174-9.0042114,0.0646973-18.012085,0.0310669-27.0180664c-0.0057068-1.5267944-0.1176453-3.0718994-0.3763123-4.5748291
		c-0.4371643-2.5398865-1.5973511-4.7591248-4.3831787-5.1117554c-1.73349-0.2194824-3.6772461-0.0102539-5.3228455,0.577179
		c-2.9932251,1.0687561-5.8308105,2.5708313-8.7404785,3.8762512c-3.0022888,1.3469238-4.5448608,0.3460693-4.5662231-2.9490051
		c-0.0073853-1.1575012-0.0011597-2.315033-0.0011597-3.6981201c-4.8242188,3.2147522-9.3564453,6.2232666-13.8756104,9.2510681
		c-3.0197754,2.0231323-3.534729,4.3200073-1.4128113,7.2706909c1.1660767,1.621582,1.29953,3.321106,1.1452332,5.1516113
		c-0.0758057,0.8984985-0.3344421,1.7984009-0.2917786,2.6871338c0.1714478,3.5737305,0.5411987,7.1409302,0.6181946,10.7151489
		c0.0625,2.8994751-0.0300903,5.8227539-0.3398438,8.704834c-0.4158325,3.868042-1.341217,7.6313477-3.5438232,10.9476318
		c-1.1343384,1.7077637-2.2841187,3.4049683-3.469696,5.1707764c0.397644-0.0223999,0.7524414,0.0206299,1.0697632-0.0690918
		c6.3560181-1.7940063,12.7024536-3.6223145,19.0632019-5.3996582c2.3568726-0.6585083,2.9646301-1.6345215,2.0222473-3.9011841
		c-2.0632629-4.9625244-2.703125-10.0403442-2.0753784-15.4094238c0.6971741-5.9644165,0.9665833-11.9785767,1.4417419-17.9695435
		c0.0978088-1.2327881,0.4996643-2.3334961,1.8565369-2.6956787c1.0178528-0.2717896,2.0504761-0.5296021,3.0932007-0.6563721
		c1.5725098-0.190918,2.2600708,0.6323242,2.2894897,2.1948853c0.0581665,3.0841675,0.3417053,6.1651001,0.3618774,9.2485352
		c0.0267029,4.0811768,0.0683899,8.1762695-0.2250671,12.2416382c-0.3082275,4.2675171-1.0378418,8.5032959-1.5160217,12.760437
		c-0.2026978,1.803894-0.2746277,3.6259766-0.3314209,5.4421997c-0.0542908,1.7334595-0.0117798,3.4700317-0.0117798,5.5267334
		c7.6466675-3.4804688,15.174469-3.4105225,22.804657-1.1077881c0.111084-0.2125854,0.2220154-0.425354,0.3329468-0.6380005
		c-1.5758362-1.6864624-3.1691895-3.3569336-4.7225037-5.0640259
		C497.6440735,558.2316284,496.6627197,556.567688,497.1339722,554.1143188z"/>
	<path d="M594.5440674,539.1116333c0.1394653-0.022522,0.2788086-0.0448608,0.4181519-0.0673828
		c0-0.8025513,0.0426636-1.6079712-0.012085-2.4066162c-0.0536499-0.7837524-0.2010498-1.5614014-0.3163452-2.3404541
		c-1.0578613-7.1499634-4.8726196-12.7153931-10.3674316-17.0898438
		c-4.7873535-3.8112183-10.4472046-4.4655151-16.1776733-2.7168579c-5.1709595,1.5778809-9.0046997,4.878479-10.338501,10.4050293
		c-0.6838989,2.8330688-1.3287964,5.6928101-1.7119751,8.5774536c-0.7793579,5.8699341-1.3793945,11.7640991-2.0259399,17.6513672
		c-0.0935059,0.8502808,0.0852051,1.7393799-0.067749,2.5726929c-0.7368164,4.0140991,0.102356,7.7301636,2.1674805,11.156189
		c2.7390747,4.5438232,6.9200439,7.2910156,11.8042603,9.1046753c5.2428589,1.9465942,10.2751465,1.4633789,14.7667236-1.8071289
		c4.6665039-3.3980713,8.465332-7.7093506,11.1428833-12.8532104c1.741394-3.3449707,2.524292-7.0162354,2.1124878-10.8074341
		C595.597168,545.3505249,595.0178223,542.2368164,594.5440674,539.1116333z M578.7224731,562.3606567
		c-0.5934448,1.4692993-1.3543091,3.0808105-3.288147,2.9451904c-1.9821167-0.1390381-3.3555908-1.4578857-3.8406372-3.3060303
		c-0.7371826-2.8081665-1.397522-5.6685791-1.7121582-8.5481567c-0.4307861-3.9433594-0.7003784-7.9262085-0.6894531-11.8911743
		c0.015625-5.6494751,1.0889282-11.1869507,2.6879883-16.5940552c0.2927856-0.9894409,1.1617432-2.2208862,2.046814-2.5279541
		c1.4000244-0.4855957,2.1766968,0.9813843,2.7711792,2.024292c2.0960083,3.6779175,3.6907349,7.546814,4.1762695,11.8138428
		c0.3442383,3.0259399,0.7987061,6.0394897,1.0770264,8.1132202
		C581.6331787,551.1765747,580.9222412,556.9146118,578.7224731,562.3606567z"/>
	<path d="M355.3707886,506.0219421c-4.1087036,1.6854248-8.1101685,3.270874-12.0657959,4.9635315
		c-5.1134338,2.1879883-8.2869873,5.6835327-7.9617615,11.6869507c0.0586548,1.0806885-0.6554871,2.407959-1.405426,3.2861938
		c-1.6896362,1.9785156-4.1660461,1.9428711-5.2800293,0.0016479c-1.4771729-2.5745239-2.9047852-5.1941528-4.1172791-7.9004517
		c-2.1649475-4.8327637-1.0585327-9.1090393,2.64328-12.772522c0.6746521-0.6676025,1.4718323-1.2114868,2.2125244-1.8125
		c-0.1411743-0.178833-0.2825317-0.357666-0.4237061-0.536499c-1.1126709,0.4734802-2.2214355,0.9563293-3.338623,1.4190369
		c-4.9092407,2.0328674-9.6524353,4.4228516-14.896637,5.6815491c-3.1794434,0.7630615-4.9709167,2.2849731-3.1705322,6.4138184
		c2.3789063,5.4559937,5.0599976,10.7825928,7.3592529,16.2701416c2.0321655,4.8504639,3.9345703,9.7785034,5.495636,14.7961426
		c1.4603882,4.6946411,0.7365112,9.2335815-3.3145447,12.4642944c-2.2046204,1.7582397-4.7932739,3.1836548-7.4189148,4.2334595
		c-4.9953003,1.9970093-10.1341248,3.6433105-15.532135,4.2532349c-3.4160767,0.3858643-6.8315125,0.7763062-10.3647156,1.1781616
		c0.114624,0.2695923,0.1947937,0.5240479,0.3235168,0.7509766c2.5757141,4.5413208,6.348114,7.8858032,10.7106323,10.6181641
		c1.487793,0.9318237,3.0895081,0.7277832,4.5107422-0.1008301c6.8039246-3.9675293,13.5199585-8.0483398,19.5287476-13.2227783
		c4.3347473-3.7329102,8.2659912-7.8105469,11.0257568-12.7942505c4.6870422-8.4641724,9.109375-17.0755615,13.5892029-25.6533203
		c2.7893372-5.3406982,5.4761353-10.7348022,8.2164001-16.1010742
		C352.9129028,510.7627869,354.148407,508.3904114,355.3707886,506.0219421z"/>
	<path d="M633.2431641,520.6012573c-1.5081177-1.9595337-3.6804199-3.2115479-6.3154907-3.0775757
		c-2.6853027,0.1364746-5.3638916,0.4057007-8.0994263,0.6210327c-0.0946045-0.4304199-0.2432251-1.1965332-0.4326172-1.9523315
		c-0.522522-2.0842896-1.2605591-2.5054932-3.2507324-1.8599243c-0.53125,0.1724854-1.0895996,0.3192139-1.5650635,0.5978394
		c-3.9685669,2.3259888-7.8994141,4.7167969-11.8876343,7.0081787c-1.7091675,0.9819946-2.237915,2.3787231-1.9230957,4.2095337
		c0.2756348,1.6032715,0.6462402,3.1921997,0.8670654,4.8021851c0.7730103,5.6351318,1.5847778,11.2675781,2.1940308,16.9212646
		c0.197998,1.8364868-0.0437012,3.7557373-0.3242188,5.600708c-0.5142822,3.3797607-0.9146118,6.821228-1.9028931,10.0727539
		c-1.1022339,3.6263428-2.8061523,7.0698242-4.4606934,11.1118164c5.2148438,0,10.3311157-0.3716431,15.3669434,0.1055298
		c4.9470825,0.4686279,9.8126221,1.7995605,14.7139282,2.7520142c0.1186523-0.1196289,0.2371826-0.239502,0.355835-0.359314
		c-1.5674438-1.5203857-3.0791016-3.104126-4.7181396-4.5430298c-1.5800781-1.3867798-3.2382813-2.6489868-3.507019-4.9542847
		c-0.5551758-4.7640381-1.4746704-9.5145874-1.6237793-14.2900391c-0.2085571-6.6772461,0.1101074-13.3734131,0.309082-20.0583496
		c0.0300903-1.0094604,0.5279541-2.0553589,0.9971924-2.9901733c0.7978516-1.5896606,2.237915-2.2064819,4.1991577-1.7658081
		c1.3968506,0.3139648,1.9175415,1.4277954,2.0022583,2.7994385c0.069397,1.1240845,0.2615356,2.2410889,0.3182983,3.3653564
		c0.1636963,3.2365723,2.3378906,4.7710571,5.4127808,3.7841187c0.3724976-0.1195068,0.760376-0.2030029,1.1165161-0.3590088
		c2.9996338-1.3136597,5.7444458-3.4466553,5.5457764-7.8293457
		C636.4678345,526.713562,635.4042969,523.4094238,633.2431641,520.6012573z"/>
	<path d="M286.4848938,559.2346802c-0.5015259-1.230957-1.1891174-2.4955444-1.2566833-3.7744141
		c-0.2531128-4.7865601-0.3899231-9.5848389-0.377655-14.3782959c0.0176697-6.8588867,0.2043762-13.7171021,0.3208618-20.5756836
		c0.0040283-0.2285767-0.0168152-0.4730835,0.0547791-0.682373c0.3171692-0.9247437,0.8973389-1.4343262,1.8605652-0.8521118
		c0.5605469,0.3388062,1.1526489,0.7581787,1.5010681,1.2911377c1.3190308,2.0172119,2.5775757,4.0761108,3.795105,6.1564941
		c1.2412109,2.1207275,1.9958496,2.3400879,4.0140686,1.0333252c0.375824-0.2433472,0.7832336-0.4381714,1.1766968-0.6541138
		c4.0061646-2.1984253,6.3929749-7.3829956,3.2938843-11.875061c-1.439209-2.0859375-3.5455017-3.6991272-5.148407-5.6884155
		c-1.5030823-1.865448-4.5430298-1.7098083-6.2814026-0.3144836c-0.8255615,0.6627197-1.717865,1.3664551-2.6983948,1.6730042
		c-0.7852478,0.2455444-2.0178833,0.2421875-2.5762329-0.2225342c-1.0748291-0.8943176-1.8511658-2.1657715-2.6807556-3.3312073
		c-1.0709839-1.5042419-2.0770569-1.690979-3.4440002-0.4579773c-1.7333374,1.5634155-3.4206238,3.1780701-5.1315918,4.7665405
		c-1.5003967,1.3930054-3.0333862,2.7521973-4.5023499,4.1774292c-1.8284607,1.7736816-3.6061707,3.5997925-5.7132874,5.7114868
		c1.8113098,0.9597168,3.2659912,1.7822266,4.7665405,2.5103149c1.3254089,0.6430664,1.9871216,1.6054688,1.8852844,3.0964355
		c-0.0467529,0.6846924-0.0208435,1.3756714-0.0045471,2.0632324c0.1141052,4.850769-0.0359802,9.727417,0.4255676,14.5452271
		c0.4996643,5.2163086,0.0159607,10.2709351-1.2775269,15.276001c-0.539856,2.088623-1.4371948,4.0846558-2.2236023,6.2664185
		c7.3580627,0.1099243,14.4909058-0.4707642,21.5958557-3.3204346
		C287.2923279,560.6854858,286.7958374,559.9979248,286.4848938,559.2346802z"/>
	<path d="M238.8439484,586.8565063c-0.8082733-3.5582886-0.8316345-7.2950439-1.1827393-10.9570313
		c-0.2374878-2.4787598-0.4287567-4.9628906-0.7146454-7.4360962c-0.5248871-4.5431519-0.6403503-9.085144,0.3139648-13.5742188
		c0.5682526-2.6732178,1.5165253-5.2648926,2.105957-7.9345703c0.4964905-2.2487793-0.6531372-3.5429688-2.8775787-3.2510376
		c-3.9572754,0.5195313-7.891037,1.2177124-11.8377228,1.821106c-3.5592804,0.5441895-7.1178894,1.0964966-10.6857452,1.5793457
		c-2.963623,0.4011841-5.963562,0.5756836-8.9033203,1.0980225c-2.110672,0.3751831-3.8787994,1.4141846-4.4773102,3.7935791
		c-0.6897583,2.7417603,0.5842285,4.8964844,2.9841461,4.734314c2.3669739-0.1600342,4.7287292-0.4122925,7.0876312-0.6707764
		c1.5778656-0.1731567,2.0563812,0.3345947,2.2580566,1.8328247c0.5553131,4.1223145,1.0386963,8.2735596,1.9489746,12.3239136
		c1.149292,5.1149902,2.7515259,10.1171875,2.5172424,15.4661255c-0.2124481,4.8482056-0.3332977,9.7041626-0.3336334,14.5567627
		c-0.0001678,2.6886597-1.5479431,4.3062134-3.4542389,5.6948242c-1.0578461,0.7706299-2.2736816,0.5358276-3.287674-0.3255615
		c-0.4356384-0.3700562-0.7807007-0.8566284-1.2410431-1.1868896c-5.2584991-3.7717285-9.0082092-8.798645-12.0451202-14.4210205
		c-3.3160858-6.1392212-5.0021973-12.817749-6.5235901-19.5604858c-0.6800232-3.0132446-2.0308228-5.7704468-4.4198151-7.7752686
		c-1.1612091-0.9744873-1.8084717-1.9630737-1.7548523-3.4199219c0.0966492-2.618103,0.2349701-5.2346191,0.3358154-7.8525391
		c0.1248779-3.2481689,0.1996613-6.4987183,0.3499298-9.7457275c0.2023621-4.37323,0.402359-8.7480469,0.7038879-13.1152344
		c0.2615204-3.7841797,0.4832001-7.5853271,1.0420532-11.3312988c1.011795-6.7834473,2.1056213-13.563324,3.4745636-20.2815552
		c0.7437286-3.6495361,1.8787231-7.2696533,3.2859955-10.7200317c1.4491272-3.5530701,7.6399384-5.0110779,10.3260803-1.6706543
		c3.3935547,4.2203369,6.956543,8.3149109,10.1593323,12.6747437c2.2977295,3.1278381,3.1636353,6.816864,1.9503174,10.6637268
		c-0.5470734,1.7346802-1.5032349,3.3404541-2.2701569,4.9966125c6.7224121-0.0159302,26.4220886-15.8854065,29.5235291-23.9959412
		c-4.1976166,1.2055969-7.5434418-0.205719-10.4998474-2.7015991c-2.6478271-2.235199-5.1420288-4.6519165-7.7182465-6.9726563
		c-3.2900391-2.9638062-6.5390472-5.9770203-9.9109344-8.8450317c-2.5496674-2.168457-5.4818726-2.909668-8.7214813-1.5561829
		c-4.2448425,1.7736816-8.5533905,3.4118958-12.7125244,5.3679199c-3.6122284,1.6987-6.7797394,4.1238403-9.0727539,7.4653015
		c-3.0812836,4.4900513-6.3103027,8.9085388-8.9994659,13.6290283c-2.3531952,4.1307373-4.344696,8.528717-5.9684448,13.0001221
		c-2.8989258,7.9828186-3.3049927,16.4544983-3.7848358,24.8248596c-0.329422,5.7459106-0.041687,11.5490112,0.3085785,17.3059692
		c0.3186646,5.236145,0.8269196,10.4918213,1.7380524,15.6530151c1.0509491,5.9533081,2.4395752,11.8660889,4.0369415,17.6990967
		c1.9854431,7.2498169,4.6342773,14.2976074,8.0261536,21.0153198c2.4501648,4.8526001,5.14505,9.5865479,7.864975,14.2957764
		c1.2889557,2.2319946,3.6379395,3.2139282,6.0765076,2.3447876c2.8264923-1.0072632,5.5817108-2.3146973,8.1965942-3.7944336
		c4.6889038-2.6533203,9.1187897-5.7877197,13.9006348-8.2471313c4.8689117-2.5042725,10.1793518-3.8243408,15.7119751-4.0956421
		c2.2531891-0.1105957,4.5413361-0.2310791,6.7321625-0.7154541c2.7577362-0.6096191,5.3099365-1.8466187,6.0339966-4.9467163
		c0.6174927-2.644165-0.6934814-4.7575073-2.2010956-6.8424072
		C240.9080505,590.9093628,239.3251343,588.9748535,238.8439484,586.8565063z"/>
</g>
</svg>