<svg xmlns="http://www.w3.org/2000/svg" viewBox="0 0 917.9 1169.24"><path d="M1033.85,1091.2c-16.71,34.19-36.92,64.25-59.87,92.47-49.66,61-106.91,113.56-174.58,154.31-32.51,19.57-64.46,20.88-96.32-1.45-10.19-7.13-21-13.37-31.29-20.37-62.64-42.68-120.34-90.72-165.66-152.3-33.2-45.13-53.11-94.9-59.12-151-7.16-66.94-13.56-133.87-15.52-201.17-.17-6-2.44-7.2-7.8-7.31-5.94-.13-8.32,1.5-8.36,7.88-.19,32.33-2.27,64.55-8.22,96.39-1.84,9.82-4.25,19.56-10.45,30-5.22-14.75-6.18-28.53-7.65-42.18-2.79-25.83-2.56-51.78-1.81-77.68.28-9.62-2.74-10.78-10.84-7.82-8.5,3.11-17.24,5.58-26,7.92-8,2.14-12.53.29-14-9.51-5.39-35-7.13-70.27-7.93-105.61-.09-3.7,0-7.41-.15-11.11-.28-7.4,1.4-15.78-1.55-21.93-3.53-7.37-13.2-2.64-20-4.4-14.63-3.76-22.55-10.29-24.27-25.71-3.74-33.51,3.4-62.85,38.68-82.78,6.38-3.61,7.9-7.58,7.86-14.23-.19-33.35,5.82-40.37,38.34-46.08,23.27-4.09,46.79-5.27,70.35-5.36,6.95,0,8.32-1.39,6.3-8.45-7.7-26.84-12.46-54.32-16.16-82-.62-4.62-.56-9.33-.87-15a264.72,264.72,0,0,0,72,16.44c45.47,3.63,89.94-2.78,134-12.94,7.89-1.82,10.64-2.24,9.12,7.58-3.13,20.31-6.68,40.44-13.41,59.88-5.82,16.83-12.44,21.61-30.54,22-20.87.42-41.75.85-62.62.62-7.63-.09-9.53,2.44-9.44,9.84.11,9.8.05,18,11.69,22.31,7.88,2.94,7.72,12.25,7.63,19.52-.09,7,2.49,10,9.16,11.71,26.28,6.87,53,8.66,80,8.85,5.55,0,7.27-2.23,6.39-7.31-1.31-7.62-1.65-15.55-4.07-22.8-7.76-23.21-5.5-46,2.75-68.19,25.88-69.5,19.34-135.84-17.5-199.75-5.52-9.59-9.87-19.85-15.12-29.6-2.82-5.24-.92-6.5,4.08-6.35,10.05.31,18,5.18,24.85,11.92,12.45,12.2,20.48,27.34,28.3,42.66,9.59,18.77,16.93,38.69,29.92,59,6.09-36.43-5.93-68.94-8.53-103.49,12.95,5.68,20.31,15,26.16,25.58,9.78,17.78,12.57,37.39,14.59,57.2.76,7.51,1.42,15.13,4.91,22.37,9-11.17,9.45-14.65,8.48-70.5,5.85,2.09,7,8.87,12.88,12.71,9-28,1.83-55.15.6-82.33,8.62,20.5,12.55,42,13.35,64,2,54.23-16,103-41.7,149.57-13.49,24.45-26.2,49.2-36.1,75.38-6.52,17.23-6.23,34.09-.37,51.25,2.71,7.93,5.11,16,7.39,24.05,1.76,6.24-.22,8.83-7.35,8.89C658,567,628,563.38,598,559.63c-15.67-2-31.38-3.73-47-6.07-5.28-.8-6.15,1.18-6.67,5.72-7.1,62.15-7.57,124.18,2.27,186.15,1.2,7.55,6.24,7.79,11.31,8.88a458.23,458.23,0,0,0,73.9,9.73c48.16,2.32,96.22.1,144.21-4.45,74-7,147.37-19.49,221.55-24.56,26.82-1.83,53.77-2.51,80.46,3a86.06,86.06,0,0,1,37.7,17.53c1.36-16.82.44-32.5,2.1-48.15,4.14-38.79,14.7-75.68,29.92-111.42a100.37,100.37,0,0,0,5.78-17.13c3-13.23-1.68-23.93-12.59-31.61-13.09-9.22-28.34-12.18-43.9-13-30-1.5-59.84,1.81-89.61,5.07-45.43,5-90.82,10.25-139,15.71,10-12.35,23.15-18.85,28.51-32.37-14.47,3.23-27.86,9.44-36.73,21-15.57,20.36-56.23,23.14-78,18.06,25.34-36.07,60.13-60.29,96.38-83-31.43,5.29-58,19.54-79.28,43.16-9,10-17.21,20.69-25.66,31.15-7.48,9.25-16.52,14-28.92,12.94-10.7-.89-21.54-.3-32.3,0-6,.18-7.15-1.75-4.66-7,3.27-7,6.19-14.13,9.15-21.26,3.18-7.64,5.15-15.36.24-23.74-5.82,4.65-4.1,13-9,18.28-5.78-6-6.52-13.43-6.93-20.55-1.1-19,0-37.8,13.15-53.32,3.75-4.44,7.3-10.36,14.93-6.91,3.17,1.43,3.08-1.23,3.6-3,12.49-42.06,32.35-81.66,38.72-125.85,6.75-46.89,7.51-93-6.66-139,18,11.82,27.45,37.47,39.86,108.35,20.45-31.83,20.34-68.21,31.69-103,7,18.7,6.81,36.26,4.09,53.61-4.35,27.85-16.52,53-28.64,78.19-12.39,25.69-26.11,50.81-33.53,78.64-3.06,11.47-3.65,22.36,3.73,32.76,5.07,7.15,3.65,15.47,2.12,23.45-.94,4.89-2.47,9.67-4.37,16.9,17.16-14.31,28.92-30.13,39.19-46.85,22.36-36.36,43.88-73.24,65.79-109.87,2.74-4.58,5.77-9,10.24-15.9,3,30.11-1.44,57-5.73,84.95,10.81-2.67,17-10.52,26.19-16.62-5.17,16.72-15.34,28-27,38-25.85,22.07-52.06,43.71-77.93,65.75-17.39,14.82-35.69,28.72-49.84,47-2.17,2.81-4.45,5.55-4.51,9.76,47.81-49.34,110-81.62,156.5-134.39-2.42,14.54-10.12,25-18.08,35.37-7,9.05-14.86,17.4-20.71,27.32-2.72,4.64-2,6.25,3.66,6.54,12.43.64,23.94-2.3,35.06-7.86.81,17.81-5.75,30.42-30.41,58.25l35.48-9.83c0,12.72-4.72,23.63-10.19,35.29,10.5,1.35,19.92-1.22,29.35-1.87,19.45-1.35,38.82-3.9,58.26-5.5,7.14-.58,10.92-2.23,10.19-10.7-1.12-13.06-1.23-26.24-1.12-39.36.06-6.8-2.65-8.41-9-8.32-21.54.32-43.1-.16-64.63.26-7.2.14-9.29-2.24-8.94-9.2.31-6.26,3.06-14.94-1.21-18.34-4.81-3.83-11,4.18-17.23,5-2.86.35-5.41,2.86-9.39.87,11.74-12.34,17.73-27.75,25-42.45,2.29-4.61,4.73-7.68,11.58-6.39,52.1,9.81,103.84,6.64,154.84-7,9.85-2.63,10.42.1,10.22,8.32-.84,34.5-8.07,68-14.43,101.73-3.49,18.43-3.5,18.12,14.72,19.81,17.1,1.59,34.08,4.14,49.53,12.45,19.44,10.47,25.66,24.85,20,46.22-2.68,10-9.44,21-7.23,29.72,2.07,8.18,13.72,13.79,20.81,20.88a120.64,120.64,0,0,1,13.22,15.19c9.82,13.79,9.71,21.85.2,35.63-25.91,37.52-36.29,79.68-37.5,124.65-.26,9.71.84,19.44-1.33,29.15-3,13.21-10.47,21.77-23.73,24.33-5.19,1-6.92,2.91-7.75,8.17-2,12.57-4.92,25-7.85,37.42-1.13,4.81-2.67,9.68-6.69,14.36-8.68-10.33-10.81-22.5-13-34.46-2.6-13.95-2.38-28.14-2.87-42.27-.1-2.84,2.66-9.18-3.65-7.75-5,1.12-13.35-.35-13.66,8.57-.26,7.39.29,14.81.37,22.22.49,45.83-1.22,91.43-12,136.33-1.84,7.69-5.09,8.92-11.79,7.56-24.15-4.91-46.66-14.85-69.94-22.41-3.67-1.19-4-3.32-3.1-7,17.93-76.54,15.19-154.31,13.88-232-.1-5.94-2.24-7.49-7.74-7.1-12.29.87-23.59,5.09-34.83,9.59-21.42,8.59-41.89,19.49-66.53,25.93,14.73,5.39,27.33,2.55,41.19,1.13-6,7.3-13.47,10.52-21.61,16.47,24,5.59,42.75-5.33,63.67-12.09-4.73,8.46-11.12,13.15-17.82,17.27s-14.06,7.71-22.22,12.13c9.84,4.25,19,4.18,29.75,2.31-6.41,8.12-14.83,9.13-22.19,12.07-3.25,1.3-8.76.68-8.84,5-.09,5.25,5.47,6,9.61,7.24,3.15,1,6.31,1.84,10.15,3-9.1,14.39-24.45,16.32-38.76,21.92a17.34,17.34,0,0,0,3,1.76c4.39,1.13,11.34-.84,12.7,3.22,1.51,4.49-3.83,8.82-7.22,12.5a72.6,72.6,0,0,1-8.86,8.23c-4.47,3.45-7.87,6.35-1,11,4.93,3.34.65,6-1.76,7.64-7.17,4.88-11.89,11.63-16.54,18.73-4,6.1-3.48,10,2.06,15.18,34.6,32.3,75.4,53.47,119.76,68.79,24.6,8.5,50.5,11.1,75.41,18,3.35.93,9.51-.18,8.84,5.72-.62,5.55-5.24,8.25-10.88,8.63-7.53.51-14.65-1.71-21.81-3.45C990,1027.47,927,997.52,869.93,955c-8.19-6.09-16.72-10.95-30.34-7.86,71.25,55.9,149,92.1,235.89,108.81-5.19,12.4-14.65,16.2-29.12,11.23-38.81-13.31-76.7-28.81-112.48-49.1a266.76,266.76,0,0,0-24.73-12.73c4.27,8.08,11.51,12.68,18.9,17,27.14,15.67,56.4,26.79,85,39.44,11,4.87,22,9.79,34.5,15.38-11.35,4.67-20.7,1.48-29.84-.88-24-6.2-45.28-18.6-66.22-31.45-13.48-8.27-27.07-16.32-41.58-22.65-3-1.29-5.73-3.73-10.59-2,31.48,32.83,76,41.2,113.61,63.43-5.36,4.11-10.23,4-15.63,2.76-13.61-3.22-25.52-10.22-37.68-16.63-16.2-8.53-32.18-17.47-48.79-25.32,18.58,21.68,47.6,26.86,70.92,44-9.87,2.72-17.36-.28-24.56-3.12-19.83-7.82-37.28-20-55.33-31-9.19-5.62-18-11.43-29.8-8.9-5.81,1.25-10.2-2.81-14.23-6.37-9.83-8.68-21.4-6.28-32.72-5.35-3.82.31-4.42,3.91-5.21,6.68a167.09,167.09,0,0,0-4.2,17.62c-2.2,12.8-9,22.28-20.06,28.77-7.41,4.36-14.24,9.09-16.15,18.25-.36,1.77-1.22,3.4-3.07,3.54-11.24.85-10.33,8.53-9.6,16.4.31,3.3.33,6.8-2.48,9.74-4.11-.75-5.17-4.81-6.93-7.58-5.06-8-8.2-4.34-11,1.42a25.92,25.92,0,0,0,.62,24.32c4.59,8.26,1,13.32-4.56,18.13a31.46,31.46,0,0,1-9.54,5.45c-15.82,5.95-19.34,3.41-16.43-12.75,1.23-6.84-1.94-10.61-5.94-14.83-8.51-9-19.39-11.71-31.1-12-7.13-.2-11.74,3.46-14.56,10.22-4.61,11-6.1,11.09-13.29,1.94-1.85-2.36-3.43-4.92-5.15-7.43-4.43,2.28-1.48,7.09-3.88,9.88-10.31-4.79-11.59-6.91-13.89-23.21-5,.46-6,6-9.83,7.85-5.33-7.68-5.48-8.49-5.37-30l-10.76,12.86c-2.56-12-1.49-21.72,4.71-30.35,6.5-9,16.08-11.83,26.83-10.1,7,1.13,13.39,4.24,19.66,7.6,11.75,6.32,17.49,5.5,27-3.91,15.15-15,20.33-34.47,23-54.73,1.16-9,1-18.13,1.35-27.21.34-10-1-19.4-9.67-26.34-2.17-1.74-3.66-4.94-4.38-7.74-2.35-9.1-6.56-15.35-16.72-17.71-8.59-2-11.24-10.94-15.1-17.94-10.69-19.35-25.43-26.49-47-22.65-15,2.68-25,11.71-29.58,25.77-2.78,8.44-7.26,8-13.6,5.46a36.14,36.14,0,0,1-21.76-40.14c2-10.36,5.43-20.16,14.13-27.13a21,21,0,0,0,6.18-9.09c5.59-14.31,17-22.06,30.48-27.57,25-10.2,51.38-13.13,78-13.67,8.8-.18,11-2.35,8.77-11a164.25,164.25,0,0,1-4.54-27.81c-.53-6.44-3.61-7.53-9.06-7.61-39.07-.59-77.94-4-116.66-9-7-.9-8,1.36-7.87,7.24.27,9.76.1,19.53-.06,29.29S543.38,815,533.69,813.6c-17.49-2.52-17.74-2.51-17.08,15.47,2.43,66.59,5.66,133.1,20.67,198.4,22.38,97.38,80.34,166.86,167.19,213.78,8.27,4.47,16.82,8.45,25,13.15,17.61,10.16,34.35,9.82,52.41-.26a345.29,345.29,0,0,0,118.83-108.65,429.48,429.48,0,0,0,32-54.82c2.5-5.17,5.12-7.58,10.57-4,1.11.72,2.62.79,3.73,1.51,25.89,16.79,52.79,14.82,80.2,4.49C1028.68,1092.07,1030.37,1091.93,1033.85,1091.2ZM435.58,762.59c3.07-4.37,6.57-4.8,9.71-5.62,2.42-.63,4.42-.94,4.66-4.07,1.86-23.94,2.59-47.79-8.72-70-3.33-6.55-9-10.78-16.74-11.42-4.79-.39-7.28.69-7.37,6.46-.58,36-1.47,72-2.44,108-.14,5.09,1.22,7.22,6.71,7.05,33.35-1.06,66.58,1.17,99.76,4.15,6.1.54,8.24-1,8.27-7.42q.5-131.25,1.46-262.49c0-4.92-1.65-7-6.4-8.21-40.64-10.09-81.78-16.34-123.74-14.49-17.42.77-34.83,2.94-50.78,11.23-6.83,3.55-10.51,7.87-10.18,16.46.7,18.14.14,18.11,18.22,13.09,21.31-5.92,41.58-15.82,63.82-18.1,46.55-4.77,75.12,10.48,89.63,53.18a95.71,95.71,0,0,1,4.37,22.68c2.55,31-13.37,53.24-43.26,61.62-2.21.62-5.6-.4-7.12,4.37,3.57,3.21,7.29,7.12,11.56,10.28,18.58,13.81,28.14,32.91,32.88,54.94,2.61,12.16,4,24.5,5.49,36.85.69,5.69-1.1,6.62-5.77,5.19C485.74,769,461.22,765.19,435.58,762.59ZM820.85,789.2c.09,4.2-1.81,6.12-3.71,7-7.93,3.87-7.31,9.07-4.36,16.22s2.17,14.33-2.72,21c-2.25,3.08-9,5-5.64,9.8,2.16,3.06,7.44,4.39,11.58,5.51,9.29,2.52,15.17-3.58,15.16-17a135.31,135.31,0,0,1,8.05-46.39A52.41,52.41,0,0,0,842,769.64c.2-5.38-1.23-7.66-7.32-7.62-12.15.06-22,4.43-31,12.41-11.33,10.05-20.61,12.17-31.54,8.43,4.66-4,11.43-5.53,14.44-12.44-20.54-3.28-40.21-1.24-59.83,1.67-8.58,1.27-20-.06-24.65,6.19-5.09,6.83.67,17.33,2,26.19,1.55,10.63,3.89,21.17.76,31.92-1.44,4.92-3.39,7.29-9.26,5.1-12.35-4.61-25.39-6.64-38.51-7.14-21.31-.81-42.42.12-61.14,12.42-5.16,3.4-9.36,7.59-11.51,13.59-1.8,5-.24,8.93,4.4,10.79,5.6,2.24,4.38-3.56,5.63-6,3.38-6.45,7.14-12,15.17-11.8,2.79,3.27-3.75,10.53,2.56,9.52,13.31-2.14,28-1.56,38.81-11.85,3.06-2.9,5.36-3.42,9.61-2.17,25,7.36,43.67,19.22,40.51,49.67-.61,5.85,1.14,12.15,6.62,16.19,3.3,2.44,7.24,5.12,11,3.55,3.34-1.38,2.12-6.1,1.79-9.09-4.39-39.67,14.85-73.65,26.13-109.54.35-1.11,1.47-2,2.57-3.41,8.47,12.73,8.37,25.67,4.72,39.12q-3,11.14-5.51,22.43c-1.22,5.52,1.16,6.51,6,4.46,8.3-3.5,12-10.4,14.22-18.44,2.7-9.69,5-19.51,9.74-28.51C787.43,798.37,801.5,789.89,820.85,789.2ZM384.9,783.07c-2.68-47.36-5.82-94-10.58-140.45-2.23-21.69-4.55-43.43-9.32-64.76-1.67-7.46-11.09-12.06-19.17-9.94-9.12,2.4-6.58,9.9-6.35,15.78.2,5.25,5.81,7,9.12,10.19,17.84,17,21.17,37.18,4.44,53-13.35,12.63-15.23,26.3-14.59,42.33.27,6.71,0,13.45-.09,20.17-.32,27.94.9,55.76,5.83,83.34.81,4.53,1.7,9,6.4,10.58,11.62,3.84,21.7-2.3,31.67-6.43C388.55,794.26,383.45,787.19,384.9,783.07Zm689.18,36.12c-.07,14,0,14,13,9.45,1.58-.55,3.14-1.19,4.69-1.81,15.83-6.34,31.21-14.63,49.32-10.28,4.6,1.1,3.45-2.89,3.67-5.2,1-11,1.54-22.16,3-33.14,4.68-35,16.19-67.75,32.83-98.83,7.63-14.26,5.53-24.2-6.86-34.81a79,79,0,0,0-11.54-8.07c-11.31-6.61-12.61-6.32-18.92,5.52-10,18.79-12.55,39.5-14.89,60.24-2.87,25.45-1.71,51.08-3.61,76.56-1.79,23.8-14.71,33.61-37.9,29.67C1074.14,806.32,1074.14,806.32,1074.08,819.19ZM656.69,1146c12-17.2,19.6-19.36,42.14-12.56,8.46,2.56,16.54,5.84,22.25,13,6.09,7.66,5.58,16.59,3.6,25.83,15.79-4.26,20.24-9.36,14.84-19.7-10.86-20.76-7.72-40.14,2.58-59.58s15.21-40.8,21.35-61.7c.89-3,1.38-5.91.22-8.85-3.65-9.27-4.94-18.57,1.08-29.43-6.26,4.11-8.27,8.78-10.6,13.15-7.35,13.79-11,28.75-13.71,44-4,22.14-2.15,46.08-21.42,63.36-3.85,3.45-5.73,4.89-10.7,2.87a114.47,114.47,0,0,0-47.22-8.63c-2.55.08-5.54,1.11-7.56-1.42-6-7.57-13.44-8.6-21.45-3.88-8.64,5.09-13.73,12.46-12.68,23.79,6.38-1.84,10.27-8.39,17.93-7.7-2.27,7.75-3.68,15.14.12,24.27,2.09-4.48,3.22-7.47,4.84-10.17,1.13-1.89,2.24-4.59,5.05-4.18,2.51.37,2,3.11,2.73,4.88C651.8,1137.66,651.83,1142.78,656.69,1146ZM462.44,616.14c.42-23.61-6.43-41.94-17.77-58.69-9.11-13.45-19.79-12.79-27.83,1.34a24.49,24.49,0,0,0-3.6,13.42q2,42.28,3.88,84.58c.14,3.32.5,5.68,4.8,6,13,1,27.53-6.81,33.37-18.62C460.12,634.41,462.52,624,462.44,616.14ZM1074,771.65c-.38,19,2.06,21.88,21.17,24.51.33.05.66.14,1,.17,11.23,1.1,18.29-6.26,15.69-17.3-3.36-14.23-12.1-24.45-25.64-30.16-6.42-2.71-11.66-3-11.13,6.76C1075.32,760.94,1074.35,766.31,1074,771.65Zm-513.7,136c-.42,4.87,2.47,10.58,8.11,15,2.31,1.82,4.67,3.29,6.48-.36,6.65-13.39,16.37-24.31,27.08-34.52a6.68,6.68,0,0,0,1.5-5.46c-.68-2.69-3.32-1.18-5.14-1.14a34.83,34.83,0,0,1-16.5-3.26c-2.63-1.29-4.88-1.47-7.27.7C566.61,885.84,560.54,894,560.25,907.63ZM296.74,613.86c.79,6.69,1.33,14.06,4.46,20.92,3,6.55,7.8,11.11,14.85,12.4,3.53.64,9.44,3,10.45-1.74s.46-10.67-5.33-13.92c-14.16-8-15.94-19.56-4.91-31.74,3.38-3.73,7.2-7,10.7-10.67,2.45-2.52,1.6-5.75,1.09-8.61-.41-2.31-2.42-1.31-4-1C309.33,582.81,296.56,598.51,296.74,613.86Zm828.67,211.38c-4.19,1.56-9.66,4.56-15.49,5.57-11.56,2-10.25,10.37-10.2,18.33,0,2.11.62,4.24,3.49,3.56,9.78-2.34,20.29.37,29.74-4.28,5-2.45,10.19-5,8-11.95C1138.82,829.93,1134.59,825.46,1125.41,825.24ZM700.35,1075.65c6.67-2.62,9.58-6.06,11.46-9.89,6.8-13.78,13.25-27.74,19.66-41.71a11.35,11.35,0,0,0-.4-9.76c-1.28-2.73-2.49-6.4-5.69-6.37-3,0-3.34,3.89-4,6.33C715.46,1034.4,710.53,1054.84,700.35,1075.65ZM1108.1,905.81c5.18-11,6.19-20.8,6-30.73-.06-2.46,1.82-7.28-2.85-6.87-3.56.3-9.27-.06-9,6.78A92.25,92.25,0,0,0,1108.1,905.81Z" transform="translate(-281.52 -183.73)"/><path d="M979.6,660.55c-2.45,7.63-4.6,13.16-6,18.87-1.75,7.4-1.66,14.78,3.75,21,2,2.32,4.57,4.33,7.91,3.33,2.94-.88,3.47-3.65,4.17-6.35,2.48-9.66,1-19.43,1.06-29.15.06-10.77-.48-21.54-.49-32.3,0-4.58-1.56-6.42-6-4.44-8.34,3.76-16.89,7.54-19.64,17.39-1.68,6-4.3,4.5-7.74,1.85-10.31-8-10.55-14.39-.77-22.49,19.27-15.94,27.51-15.7,50.2,1.21,5.16,3.85,7.92,8.16,7.67,15.15-.56,15.8-.13,31.63-.08,47.45,0,1,.22,2,.4,3.49,5.59-1.67,5.34-6.1,5.47-10.32.4-14.13,1.47-28.28,1-42.38-.31-9.18,2.26-14.61,11.53-16.56,3.53-.74,6.84-2.56,11.44-4.36-1.06,10.18-2.1,19.33-2.94,28.5-1.21,13.1-1.47,26.19.8,39.23.41,2.33.33,5.21,2.68,6.2,2.91,1.22,5-1.42,6.86-3.14,6.42-5.9,7.75-13.93,8.37-22,.48-6.37,1.17-12.9.28-19.15-1.69-11.82,3.7-19,14.4-24.5,0,9.56,0,18.71,0,27.86a121.18,121.18,0,0,0,3.6,28.94c.55,2.31.86,5,3.44,5.69s4.19-1.7,5.52-3.61c7.54-10.77,12.66-22.54,10.32-35.87-3.78-21.45-10.32-41.75-29.48-55-3.13-2.17-1.43-4-.24-5.85,6.54-10.1,15.36-17.63,26-23.31,4.15-2.22,5,.48,7,2.87,10.56,13,17.14,27.17,15.43,44.41a46.15,46.15,0,0,0,.13,12.09c5,29.67-5.88,54.64-22.54,78.06-6.08,8.57-8.47,8.8-16,1.16-3.88-3.95-5.6-12.46-11.21-11.4-4.36.82-7.54,7.88-11.25,12.17a9.78,9.78,0,0,1-.65.77c-15.56,15.49-11.7,14.68-25.86,1.19-6-5.74-10-6.11-15.35.36-3.38,4.07-7.89,7.29-12.23,10.43s-8.75,5.18-12.32-1.35c-2.6-4.73-5.88-2.42-9.34-.68-14.73,7.42-15.58,7.12-24.37-6.69-13.27-20.85-10.28-31.91,11.72-43C970,664.33,974,662.91,979.6,660.55Z" transform="translate(-281.52 -183.73)"/><path d="M552,775.27c7.93.93,10.63,4.37,10.76,10.92.37,18.48,1,37,1.88,55.44.33,7.28-2.11,12.78-7.41,17.81-17.34,16.46-22.71,44.09-13.26,66,6.56,15.19,23.46,25.53,39.51,24.79,4.7-.21,5.13-3,6.27-6.25,3.29-9.4,8.25-17.64,17.27-22.73a28.89,28.89,0,0,1,25.25-1.94c13.75,5.11,14.36,9.42,3.45,18.58q-40.53,34-80.89,68.26c-2,1.71-4.12,3.31-7.1,5.68-6.32-15.57-8.32-31.42-10.88-47-7.29-44.2-9.24-88.84-10.22-133.56-.16-7,1.59-9.93,8.78-9.12a24.59,24.59,0,0,0,8-.93c11.4-2.59,13.22-5.46,11.74-17C554,794.92,553.14,785.6,552,775.27Z" transform="translate(-281.52 -183.73)"/><path d="M985.8,825.48c-1.67,37.57-3.27,72.45-4.7,107.33-.14,3.52-2.1,5.46-4.42,7.44-10.48,8.94-21.13,17.71-31.35,26.94-3.38,3.06-6,3.16-9.68,1.09a132.63,132.63,0,0,1-34.58-27.45c-3.2-3.56-3.56-6.6-1.42-10.81,3.72-7.35,9.35-13,15-18.85,2.57-2.68,7.29-5.88,3.52-10.11-4.88-5.49-3-8.27,2.34-11.26,3.3-1.87,5.33-5.2,6.72-8.63C938,854.78,961.07,841.55,985.8,825.48Z" transform="translate(-281.52 -183.73)"/><path d="M852.81,212.06c20,36,8.68,72.82,2,112.36,13.13-11.35,21.82-23.16,31.86-34.51,1.64,3.57-.71,5.42-1.72,7.42-23.07,45.85-52.81,87.37-83.58,128.2-2.5,3.32-5.31,8.68-10,6.82-5.23-2-3.65-8-3.18-12.56,2.84-27.65,15.69-51.9,26.93-76.55C834.12,301.4,849.07,258.53,852.81,212.06Z" transform="translate(-281.52 -183.73)"/><path d="M602.68,981.17c0,31.18.3,61.68-.27,92.16-.1,5.35-3.78,10.65-5.94,15.92-7,16.92-4.05,29.36,9.4,41.14a31.34,31.34,0,0,1,5.69,7c3,4.84,4,13.33,12.79,5.82,2.35-2,3.09,1.32,4.2,2.74,5.35,6.83,8.25,18.28,21.12,11.11.6-.33,2.53,1.7,3.84,2.63,10.33,7.44,14.26,6.43,18.52-4.9,3-8,8.6-10.38,16.78-8.8,9.2,1.77,16.57,5.56,19.43,15.16.82,2.73-1.56,4.23-3.19,5.86-11,11-23.37,20.21-35.92,29.28-4.22,3-7.4,1.36-11-.54-23.64-12.32-40.82-31.48-56-52.79-2.91-4.1-5.4-8.51-8.15-12.72-10.77-16.48-16.14-34-14.91-54.21a530.82,530.82,0,0,0-.29-62.56c-.7-12,3.15-19.82,13.29-25.38C595.87,986,599.36,983.35,602.68,981.17Z" transform="translate(-281.52 -183.73)"/><path d="M587.71,671.67c-6.43,12.19-8.36,22.41-4.93,33.24,1.13,3.6,2.75,6.84,5.73,9.26,1.9,1.54,4.09,2.58,6.51,1.91,3.23-.9,2.08-3.83,2.1-5.93.21-20.83.17-41.66.47-62.5.08-5.71-1.37-7.26-6.89-4.66-9.36,4.4-18.52,8.7-18.39,21.66-8.52-1.38-13.25-6.79-15-14.23-1.66-7,5.11-9.4,9.2-13.06,1.25-1.11,2.77-1.9,4.1-2.93,10.26-7.88,19.54-8.47,32-1.86,15.4,8.19,24.13,17.1,20.79,35.52-1.65,9.15-.73,18.77-.91,28.17-.06,3-1.27,6.79,1.28,8.67,8.89,6.56,2.86,9.7-2.51,13.31-3.9,2.62-7.6,5.55-11.54,8.11-4.47,2.9-9,9.53-13.22-.83-1.67-4.06-5.21-.51-7.61.83-14.18,7.94-18.71,7.41-25.74-7.38-12.42-26.09-12.62-27.79,12.9-42.15C578.88,675.2,582.07,674.13,587.71,671.67Z" transform="translate(-281.52 -183.73)"/><path d="M745.4,696.3c11.8,8.43,11.8,8.43,4.5,19.25-12.24,18.11-22.29,19.45-39.22,4.92a35.2,35.2,0,0,1-7.6-9.28c-16.22-28.86-2.45-71.3,27.34-85.33,4.09-1.92,7.76-1.52,11.6,0,15.7,6.37,23.77,21.64,20.64,38.34-1.21,6.52-4.11,9.34-11,7.62a90.28,90.28,0,0,0-13.9-2.14c-8.38-.73-12.89,3.68-12.87,11.74,0,10.41.65,20.84,1.58,31.21.39,4.32,2.25,9.2,7.21,9.83,5.53.7,7.12-4.64,8.33-8.6C743.69,708.47,744.23,702.72,745.4,696.3Zm.54-33.41c-4.59-10.86-6.78-22.06-17.25-30-.81,5.11-1.57,8.73-1.93,12.38C724.88,664.25,724.92,664.25,745.94,662.89Z" transform="translate(-281.52 -183.73)"/><path d="M788.85,1168q0-26.76,0-53.51c0-10.42,12.28-25,22.37-26.16,6.29-.73,3.7,4.44,3.77,6.94.82,29.94,1.38,59.88,2,89.83.12,5.72.17,11.44.22,17.16a31.91,31.91,0,0,1-22.27,30.44c-6.85,2.15-5.37-2.89-5.39-6.14-.13-19.52-.07-39-.07-58.56Z" transform="translate(-281.52 -183.73)"/><path d="M769.87,644.25l22.91-19c.32,6.05.58,10.91.9,16.74,6.77-3.79,11.6-8.84,16.17-13.88,5.67-6.24,9.68-4.58,14.41,1,5.25,6.14,8.43,13,8.49,21,.13,18.84.21,37.69,0,56.53-.17,14.39-7.82,23.65-22.09,29.56,6.71-26.16,5-51.61,2.69-77.06-.25-2.68,0-5.54-.85-8-1.18-3.26.39-8.75-4.14-9.37s-7.74,3.44-10,7.27a36.66,36.66,0,0,0-5.22,17.19c-.76,15.48-1.19,31,3.18,46.08,2.14,7.37-.25,10-7.44,9.76a38.72,38.72,0,0,0-8,.63c-4.4.81-6.6-.19-5.27-5.15,5.12-19.17,2.77-38.77,3.28-58.21C779,652.94,780.13,646.07,769.87,644.25Z" transform="translate(-281.52 -183.73)"/><path d="M637.48,626.17c13.83,2.6,20,9.18,20.27,22.25.3,14.44-.08,28.89,0,43.34.07,6.65-.45,15.85,7.22,16.85,8.74,1.14,11.57-7.92,12.82-15.25,3.19-18.71-.62-37.54.38-56.29.18-3.51-2.71-10.79,2.51-10,5.38.81,14.46,2.21,14.42,11.23-.08,17.8-.95,35.59-1.27,53.38-.07,3.57-2.18,5.49-4.41,7.46-9.82,8.66-19.9,17-29.5,25.93-4.34,4-7.31,3.12-10.92-.61-5.74-5.92-11.2-12.46-11.37-20.74C637.13,677.9,637.48,652.08,637.48,626.17Z" transform="translate(-281.52 -183.73)"/><path d="M934.38,559.57V725.4c-12.71,1.65-22.36-6.28-22.32-20.13.11-35.28,1.6-70.63-.24-105.81C910.86,581,920.51,571.63,934.38,559.57Z" transform="translate(-281.52 -183.73)"/><path d="M662,1018.42c0-17.48-.27-35,.21-52.43.11-3.81-3.43-10.62,4-11.23,6.25-.52,12,2.33,14.07,9.16,3.07,10.28,6.37,20.58,7.12,31.33,1.49,21.18,1.73,42.37-3.67,63.14-2.55,9.79-7.53,17.84-17.62,21.81-5.63,2.21-7.73,1.37-7.6-5.3.38-18.82.14-37.65.14-56.47Z" transform="translate(-281.52 -183.73)"/><path d="M833.18,1197.44c0-31.09,0-61.28,0-91.46,0-4.71-.17-9.42-.29-14.14-.57-23-.57-23,20.85-37.44.34,5.46.77,10.3.92,15.15,1,32,2,63.91,2.8,95.88C857.8,1180.62,850.49,1190.59,833.18,1197.44Z" transform="translate(-281.52 -183.73)"/><path d="M751.4,1131.3c7,1.29,10.17,22.54,20.42,2.06l1.85,1.75c0,21.24-.11,42.49,0,63.73.09,13.77.72,27.54.75,41.31,0,7.17-15.56,15.13-21.71,11.52-2.23-1.3-2-3.26-2.26-5.15-3.49-21.29-5.49-42.63-2.05-64.13.48-3,.84-6.19,2.32-8.65,5.73-9.55,8.17-18.58.63-28.7C748.79,1141.57,749.79,1136.18,751.4,1131.3Z" transform="translate(-281.52 -183.73)"/><path d="M891,687.15c8.2,4.84,9.27,10.26,2.25,16.73-1.73,1.59-3.36,3.28-5,4.94-6,6-11.56,16.15-21.21,10.69-10.81-6.12-23.81-11.32-26.29-26.75-2.24-13.9-.9-27.68,1.69-41,3.41-17.61,31.77-33.71,45.73-27.54,15.12,6.67,16.15,14.8,3,24.8-2,1.56-3.93,3.71-7.48,3.6,1.36-8.21-.45-14.45-8.69-18.82-6-3.17-7.59-1.27-8.82,3.83-2.38,9.88-2.75,19.95-2.36,30,.46,12.08,1.21,24.14,1.82,36.22.18,3.6,1.4,6.67,4.95,8,4,1.56,7.07-.4,9.8-3.23C886.12,702.67,888.13,694.81,891,687.15Z" transform="translate(-281.52 -183.73)"/><path d="M641.63,945.46c0,39.83,0,78.77,0,117.71,0,7.36-5.43,5.42-9.29,5.68-13.22.88-13.22.78-13.16-12.16.1-24.87.44-49.75.2-74.62C619.26,965,628.08,954,641.63,945.46Z" transform="translate(-281.52 -183.73)"/><path d="M908.67,779.17c20.63-7.57,39.65-17.73,59.94-24.54,12.47-4.18,15-1.6,15.22,11.08.3,14.81.39,29.63.79,44.44.11,4.34-.69,7.54-4.71,10.19a56.69,56.69,0,0,0-10.36,9.55c-7.85,8.69-15.42,17.78-27.34,5.64,2.25-2.81,6.95-2.86,10.77-4.65,6.38-3,13-7.41,12.8-14.26-.2-6.21-8.88-.08-12.75-4.78,6.71-6.29,14-12.4,17-21.68.84-2.58,2.1-5.53.62-7.76-2.07-3.14-4.94-.07-7.18.5-13.92,3.58-27.74,7.56-42.69,11.72,5-8.51,15.54-9.94,19.11-19.48C928.57,773.9,918.83,779,908.67,779.17Z" transform="translate(-281.52 -183.73)"/><path d="M875.74,1157.81c.25-34-2.5-65.12-.31-96.27.34-4.92-.88-12.5,7-12,6.93.4,12.92,5.13,13.77,12.51,2,17,3.65,34,4.24,51.09C901.09,1131.42,889.85,1144,875.74,1157.81Z" transform="translate(-281.52 -183.73)"/><path d="M620.14,491.53c2.29,16.8,4.12,31.74,6.47,46.61.87,5.48-.67,6.24-5.73,5.43-18.16-2.93-36.39-5.44-56.4-8.38C581.21,517.85,599.57,504.24,620.14,491.53Z" transform="translate(-281.52 -183.73)"/><path d="M732.51,1242.77c-6.64-3.14-13.79-6.53-21-9.87-2.91-1.36-3.32-3.75-3.3-6.62.09-11,.31-22.09-.08-33.11-.24-7,4.37-6,8.62-6.47,15.5-1.86,15.57-1.92,15.69,13.74C732.59,1214.37,732.51,1228.3,732.51,1242.77Z" transform="translate(-281.52 -183.73)"/><path d="M578.66,832.84c0-16.49.23-32.2-.11-47.9-.13-5.82,2.35-6.87,7.18-6,3.28.62,6.57,1.52,9.88,1.62,4.8.16,6.4,2.34,6.1,6.93-.37,5.67-.31,11.37-.46,17.05C600.72,825.31,600.72,825.31,578.66,832.84Z" transform="translate(-281.52 -183.73)"/><path d="M948.58,524.49l43.66-33.42c2.29,9.37,2,17.94,2.66,26.42.38,5-2.72,5.37-6.28,5.67q-19.54,1.68-39.08,3.41Z" transform="translate(-281.52 -183.73)"/><path d="M911.87,497.66c5.78-6.29,4-15.73,14-16.05,15.9-.52,16.79.23,16.79,16.17,0,1.68,0,3.36,0,5,0,17.66,0,17.66-18.4,25,1.43-6.92,2.88-13.37,4.09-19.87,1.34-7.18.92-13-9.11-10.35C917.63,498,915.89,497.66,911.87,497.66Z" transform="translate(-281.52 -183.73)"/><path d="M621.23,799.8c0-1.68,0-3.35,0-5,0-11.24,7.91-17.25,17.33-11.06,8.1,5.31,1.79,16,3.22,24.16.62,3.61.4,6.81-4.67,8.32C622.19,820.63,621.22,819.83,621.23,799.8Z" transform="translate(-281.52 -183.73)"/><path d="M558.53,531.08c-4-11.28-9.1-18.65-17.43-23.79-4.72-2.92-4.93-8.36-5-13.5,0-3,1.26-4.29,4.19-4.13,5.34.29,10.69.51,16,.82,2.64.15,4.48,1.23,4.41,4.26C560.47,505.91,563.72,517.24,558.53,531.08Z" transform="translate(-281.52 -183.73)"/><path d="M563.85,1009.38v57.4c-8.92-14.41-12.33-27.86-16.69-40.88-1.48-4.44,2.94-5.53,5.23-7.58C555.61,1015.43,559.21,1013,563.85,1009.38Z" transform="translate(-281.52 -183.73)"/><path d="M980.76,949.25c0,11-2.53,19.19-5.57,27.26-1.53,4.07-1.59,10.68-6.92,10.6-6.62-.11-12.45-4.33-17.42-9-1.61-1.49-.74-2.7.77-4C960.94,966.37,968.93,956.94,980.76,949.25Z" transform="translate(-281.52 -183.73)"/><path d="M658.44,797.56c0-2.33,0-4.66,0-7-.1-3.83-.35-7.88,5.35-7.13,4.54.6,10.69-.9,10.14,7.25-.22,3.29,1,6.73.49,9.93-.7,4.37,6.94,11.43-4.26,12.76-10.59,1.27-12.68-4.08-11.65-12.82a25,25,0,0,0,0-3Z" transform="translate(-281.52 -183.73)"/><path d="M851.45,1042.81l-30.81,24.86c2.19-10,3.7-17.4,5.43-24.71.91-3.85,4.16-3.66,7.23-3.68C839,1039.23,844.67,1039.54,851.45,1042.81Z" transform="translate(-281.52 -183.73)"/><path d="M692,1217.9c-2.74-1.5-4-2-5-2.77-4.14-3.56-13.22-5-12.16-10,1.53-7.26,9-11.6,17.14-13.92Z" transform="translate(-281.52 -183.73)"/><path d="M915.15,1072.05c14.26,5.69,14.23,14.37,0,29.48Z" transform="translate(-281.52 -183.73)"/><path d="M962.42,500.57c-1-20.53-4.07-19.15,19.73-18.24C976.6,489.6,969.41,494,962.42,500.57Z" transform="translate(-281.52 -183.73)"/><path d="M577.62,508.46c2.59-19.15,2.59-19.15,19.28-18.56C591.74,497.09,585,501.66,577.62,508.46Z" transform="translate(-281.52 -183.73)"/></svg>