
<svg xmlns="http://www.w3.org/2000/svg" viewBox="0 0 642.55939 756.99077">
  <g>
    <path d="M698.25605,185.51485a27.65515,27.65515,0,0,0-13.66868-4.81,38.88992,38.88992,0,0,0-4.43079-.21838,3.57619,3.57619,0,0,1-3.381-1.75108,44.37758,44.37758,0,0,0-15.52061-13.60152c-2.278-1.25631-4.61536-2.40482-6.98487-3.63323-.07966-3.49069-.14381-6.83723,1.09861-10.1385,1.15951-3.08057,2.03-6.2738,2.94544-9.44121,1.10834-3.83517,1.24729-7.52549-1.03955-11.15339-1.499-2.37819-.81354-4.33272,1.10069-6.42919,7.83615-8.5816,13.39935-18.32908,15.00766-30.03119.28647-2.08421.47127-4.18242.73666-6.57961-1.62684,0-2.74212-.02119-3.85648.00313q-44.5398.96811-89.07891,1.97687a16.29157,16.29157,0,0,1-6.94109-1.31282,10.68666,10.68666,0,0,0-3.96509-.69265c-5.80428-.07144-11.61018.00359-17.41469-.05952a7.39634,7.39634,0,0,1-3.605-.65235c-3.29072-1.99864-6.76949-3.88948-9.53222-6.50237a15.78293,15.78293,0,0,0-11.02382-4.48834,54.81722,54.81722,0,0,1-8.03021-1.24936c-2.90052-.53078-5.81239-1.74193-8.67029-1.60831-5.83392.27268-10.85061-2.01914-16.23874-3.89967a9.422,9.422,0,0,1,2.86393-8.04549c2.549-2.59831,5.19569-5.10978,7.60434-7.832a11.2969,11.2969,0,0,0,2.21643-4.14571c.61021-2.02828-.32328-4.0356-2.10134-4.40636-4.90274-1.02219-8.93637-3.91159-13.3887-5.89077a23.41174,23.41174,0,0,0-17.30515-.79779c-3.15687,1.0626-5.12274.37168-7.38874-1.4432a73.176,73.176,0,0,0-9.04243-6.69944c-6.25679-3.58379-12.828-5.27732-19.687-1.28375a6.08766,6.08766,0,0,1-2.25558.69832c-2.59518.32873-5.21109.50114-7.80013.86691a3.54876,3.54876,0,0,1-3.77774-1.64154,7.97589,7.97589,0,0,0-5.39751-3.29652,53.678,53.678,0,0,0-8.08324-1.11308c-6.93983-.15724-13.8932-.25172-20.8263.0139-4.68912.1797-9.55446,1.177-12.91385,4.54669-2.54493,2.55269-4.87461,2.32342-7.67092,1.64907-1.32358-.31923-2.62413-.74545-3.917-1.17769-4.56383-1.52564-9.17663-2.64023-14.05541-2.05179a25.02592,25.02592,0,0,1-4.08933.1811,14.71708,14.71708,0,0,0-8.43489,2.25325c-1.73545,1.0516-3.72494,1.96587-4.96434,3.46708-1.04014,1.26-1.15975,3.28-1.76324,5.20715-1.88991-.31865-4.35888.56575-5.865-1.30656-2.20046-2.73552-4.90726-3.06633-7.95888-2.47129a103.68457,103.68457,0,0,0-20.63085,5.88359,15.75187,15.75187,0,0,0-1.84163,1.06909,49.02631,49.02631,0,0,0,18.58254,20.7405c.4811.30371.97691.58774,1.43544.92284,2.02909,1.48291,2.00188,3.00808-.31507,4.01139a61.94459,61.94459,0,0,1-9.27772,3.367c-4.95311,1.25619-10.00684,2.11616-15.01808,3.14333-10.13665,2.07772-20.24979,4.28223-30.42221,6.16635-3.78191.70041-7.25361,1.63019-10.18458,4.27771a4.68778,4.68778,0,0,1-3.11415.86182c-5.338-.27662-10.67993-.59191-15.997-1.12709A138.19414,138.19414,0,0,0,211.86149,82.94c-15.2228.7957-30.45325,1.45292-45.6845,2.07286a24.447,24.447,0,0,1-6.42734-.59562c-11.46776-2.652-22.53558-6.37582-32.58121-12.70149-1.08749-.68478-2.22107-1.29626-3.33334-1.94167q-.36231.26295-.72449.52591c.511,2.63976.83391,5.33267,1.56466,7.91a101.73546,101.73546,0,0,0,18.52811,36.21549,18.54962,18.54962,0,0,1,4.3531,9.471c.4305,3.60753.7994,7.22224,1.19563,10.8337.09472.86344.19071,1.72676.28311,2.56357a9.76539,9.76539,0,0,0,1.22134.18816c.796.0066,1.59511.00567,2.38827-.05384,8.92815-.66857,17.55155-2.532,25.60226-6.60091,2.94417-1.488,5.87247-3.00751,8.809-4.51045a63.30728,63.30728,0,0,1,23.32434-7.20475,123.90758,123.90758,0,0,0,37.32486-9.027c.78656-.33069,1.63714-.509,2.66049-.81967,2.05919,9.731,4.05378,19.15766,6.13914,29.01283a40.59272,40.59272,0,0,0,6.157-.39473c5.77383-1.25515,11.513-2.6782,17.24077-4.1339,12.12267-3.08081,24.22981-6.22228,36.3424-9.34222,4.70868-1.21289,8.94552-.55023,12.7815,2.70264a9.00691,9.00691,0,0,0,4.55468,1.98694,16.51211,16.51211,0,0,0,5.69023-.62411c12.61083-3.14251,25.34485-5.68374,38.35388-6.01513,12.16145-.30973,24.3434-.16847,36.50843.1122,13.07908.30163,26.16488.74974,39.219,1.58377,15.43979.98652,30.84067,2.561,46.27305,3.68186a384.62831,384.62831,0,0,1,40.93031,5.26447c23.63349,4.29416,46.82443,10.41384,69.94035,16.864,18.73005,5.22626,36.6336,12.27562,53.07682,22.83316,3.929,2.5227,6.93762,5.34738,7.73263,10.18018a6.99639,6.99639,0,0,0,2.89287,5.116c3.5068-1.06676,6.85866-2.09983,10.21932-3.10431a7.66085,7.66085,0,0,1,6.27323.64819c7.65088,4.491,15.29575,8.99369,22.89059,13.57813,2.3401,1.41228,2.84193,2.5762,1.82252,5.12113a41.89163,41.89163,0,0,1-3.98917,7.49329c-8.17031,12.32819-16.46035,24.57683-24.658,36.88683a26.171,26.171,0,0,0-2.70229,5.10584c-1.572,4.11955-1.9749,8.19023,1.50248,11.70409,1.78848,1.80735,1.62915,3.73767.62688,5.9042-1.56871,3.391-3.3954,6.74634-4.35483,10.32029a385.31014,385.31014,0,0,0-8.4577,40.381c-.72067,4.60656-1.31328,9.2438-2.29355,13.79616-1.05044,4.87727-3.45307,5.9753-7.85792,3.82649-17.07079-8.32791-34.055-16.83551-51.19154-25.02459-15.29366-7.30838-30.84229-14.09779-44.822-23.87167a5.55382,5.55382,0,0,0-3.20342-.78273c-8.83495.34493-17.44387-1.04071-26.02523-2.97231-17.30168-3.89457-34.80854-6.9778-51.74016-12.3481-13.8676-4.3986-27.57773-9.29521-41.35224-13.98664-8.83911-3.01051-17.74515-6.02983-27.03271-6.99737a107.31378,107.31378,0,0,0-48.73739,5.72763c-11.4101,4.20627-22.561,9.111-33.88639,13.55474a41.85812,41.85812,0,0,1-9.14653,2.52062,81.78614,81.78614,0,0,0-20.27283,5.66544,373.63428,373.63428,0,0,1-43.97255,15.74964c-1.04338.2948-2.1186.4774-3.33751.74731-.15435-1.13821-.32294-1.90983-.35478-2.687q-.68379-16.71445-1.33053-33.43018c-.56795-15.12484-.94785-30.25848-1.69237-45.37429-.918-18.6387-2.10343-37.26442-3.22126-55.89293-.62028-10.33627-1.36469-20.66535-3.32164-30.85792-.95978-4.99932-1.84464-10.02526-3.81549-14.912a37.7516,37.7516,0,0,1-5.12517,1.00714,37.10916,37.10916,0,0,0-14.90276,4.52041,89.15836,89.15836,0,0,1-20.1839,7.23277,51.90206,51.90206,0,0,0-7.45462,2.36383c-6.21383,2.51934-12.33236,5.27466-18.55128,7.78115a73.47293,73.47293,0,0,1-18.813,4.70208,48.4096,48.4096,0,0,0-7.02573,1.331c-6.46752,1.775-12.899,3.682-19.33714,5.56285-.848.24779-1.65185.64692-2.5264.996-.07584,1.2929-.18144,2.421-.20159,3.55079-.09553,5.34807-.21641,10.6966-.21873,16.0449a3.66026,3.66026,0,0,1-1.93761,3.61483c-2.367,1.35635-4.647,2.86624-6.94805,4.33572-9.97164,6.36759-19.988,12.66757-29.87476,19.1645a59.33929,59.33929,0,0,0-8.16429,6.685,12.24914,12.24914,0,0,0-4.05818,7.47071c1.055,1.00945,2.08259,2.06441,3.18455,3.03495,5.20982,4.58826,10.40864,9.18984,15.67056,13.71789a102.171,102.171,0,0,1,18.451,20.02272,17.34452,17.34452,0,0,1,3.02846,13.26712c-.28125,1.56536-.31019,3.18976-.72009,4.716-1.85633,6.91389-3.48247,13.915-5.81921,20.66732a37.61964,37.61964,0,0,0-1.23455,19.14365c1.6874,9.91294,5.91718,18.33093,13.78227,24.77193,1.67246,1.36979,3.2524,2.85884,4.97905,4.15406a3.23261,3.23261,0,0,1,1.47017,3.47124c-.38754,2.35388-.60117,4.7396-.81272,7.1186-.53414,6.00656-1.06468,12.01393-1.51857,18.02686-.22973,3.04283.33231,5.89657,2.5653,8.20783a3.8464,3.8464,0,0,0,4.28548,1.18765c6.30506-1.94456,12.63016-3.79742,18.48041-6.962,7.20463-3.89712,14.45535-7.70878,21.67735-11.57382a150.735,150.735,0,0,1,43.53741-15.49166c7.13563-1.34026,14.17746-3.209,21.22346-4.98947,6.37535-1.61121,10.05223-6.04767,11.61319-12.20893.94588-3.7335,1.47654-7.5806,2.04669-11.39863.69705-4.66792,2.861-7.90516,7.55709-9.52921,15.47476-5.35166,30.87553-10.91637,46.33176-16.32211,4.28848-1.49981,8.63949-2.84725,13.02338-4.038a10.90226,10.90226,0,0,1,6.84314-.0066c.46408,2.06163-.28554,3.5149-1.17306,5.03834-4.69571,8.05939-9.52146,16.05463-13.86841,24.3009a89.943,89.943,0,0,0-6.0721,14.79c-3.46441,10.95851-3.81028,22.3282-4.114,33.74246-.34123,12.82423,3.92294,23.85048,11.45676,33.8813A111.17853,111.17853,0,0,0,338.541,414.65046c13.23818,9.71853,27.38807,17.99549,41.75647,25.86915a594.51568,594.51568,0,0,1,74.3093,47.75214c7.2491,5.50832,14.51209,11.0002,20.92635,17.51682a43.31354,43.31354,0,0,1,10.72,17.60828c1.63633,5.20612,3.40952,10.36915,5.10607,15.55674a35.81147,35.81147,0,0,1,.7216,20.858c-2.74305,10.10051-7.647,19.224-13.69856,27.68287a35.68246,35.68246,0,0,1-7.25442,7.16225,67.77484,67.77484,0,0,1-10.29342,6.66135c-7.67659,3.96531-15.519,7.61013-23.30419,11.36447-12.79076,6.16786-26.19683,7.12451-39.98524,4.61605-11.28272-2.05271-21.89294-6.14331-32.11921-11.17759a28.40893,28.40893,0,0,1-8.47252-6.19819c-15.7332-17.48648-23.69058-37.82114-21.29687-61.57134,1.38-13.69184,3.30613-27.32786,4.76739-41.01252,1.17746-11.02753,1.23269-22.0664-1.75386-32.87532-4.25989-15.41733-12.89868-26.99578-28.78623-31.95954-6.30726-1.97062-11.50168-5.754-16.86214-9.45893-5.74777-3.9725-8.83541-9.25549-10.40308-15.80024-1.90646-7.95866-1.68-16.03344-1.53721-24.11252.02119-1.19841.003-2.39753.003-3.91957a30.39543,30.39543,0,0,0-8.32038,3.97064,12.94817,12.94817,0,0,0-5.31,6.89594,38.48019,38.48019,0,0,0-2.491,12.9993c.10526,5.6893.06322,11.38114.13409,17.07137a3.95078,3.95078,0,0,1-1.4916,3.49313,34.826,34.826,0,0,0-5.77649,6.21174,121.78724,121.78724,0,0,0-18.61866,40.73393c-2.39637,9.4081-1.25516,18.27477,4.16389,26.47217,2.25882,3.41694,4.50119,6.84685,6.66112,10.32654a24.8553,24.8553,0,0,0,9.99805,9.04962c6.68381,3.4482,13.897,4.95971,21.31446,5.59354,4.16841.3564,8.35442.50693,12.891.77116.49187,3.03229,1.31861,6.02057,1.40614,9.03016.3967,13.64946.60743,27.30447.84005,40.95833.15991,9.38518,1.17793,18.62052,4.61362,27.44411,2.104,5.40388,4.31709,10.76539,6.42213,16.169a24.28926,24.28926,0,0,1,1.35207,4.5533,4.56586,4.56586,0,0,1-1.66748,4.75939c-4.09268-3.76917-8.38591-7.07564-10.12668-12.62356-2.07622-6.61689-4.35333-13.17079-6.56594-19.7446-.27466-.81608-.6871-1.58585-1.132-2.59553-1.46045,1.37812-2.64126,2.60271-3.93648,3.69113-2.61417,2.197-4.50223,2.08675-6.76522-.39137-2.45577-2.68932-4.866-5.42078-7.26264-8.1629-2.92055-3.34168-3.62871-8.83309-.78609-12.2109a98.55126,98.55126,0,0,1,10.775-10.39416c1.69747-1.48395,3.14854-1.14654,4.9259.32931.728.60442,1.38936,1.28919,2.43922,2.27317V529.48852c-2.0086-.17808-3.81885-.48122-5.62747-.47149-4.82308.02617-9.45141-.98166-14.1411-1.98694a50.50533,50.50533,0,0,0-10.83891-.60234,5.79912,5.79912,0,0,0-3.2473,1.54972,44.70946,44.70946,0,0,0-9.42883,10.27536,33.72834,33.72834,0,0,1-12.56324,11.74751,31.15347,31.15347,0,0,0-9.83744,8.82545,8.76348,8.76348,0,0,0-1.9382,6.267c1.26164,17.13494,2.31648,34.28563,3.6183,51.41733a8.97762,8.97762,0,0,0,5.82141,8.09065c17.91884,7.56034,35.77538,15.268,53.65693,22.91653,2.3856,1.02056,4.78741,2.00315,7.31938,3.06077,2.97138-3.363,5.80624-6.60809,8.68221-9.81638,2.88651-3.22056,5.73052-6.48558,8.748-9.58016,2.73274-2.80256,5.34587-2.92229,8.53609-.72044.74893.51712,1.46358,1.08356,2.21157,1.60206,7.29461,5.05605,14.4579,10.39092,22.63227,13.94541,15.53867,6.75653,31.93187,10.73134,48.61917,13.07445,14.7381,2.06938,29.499.92863,44.11451-2.13608,19.08124-4.001,37.56605-10.01136,55.95059-16.342,4.9164-1.69284,8.75875-1.06179,12.39384,2.633,3.252,3.30532,6.797,6.32255,10.2346,9.48707,25.1318-13.4811,49.97182-26.80588,75.19556-40.33631.27094-11.72481.28669-23.445.92052-35.13159.31449-5.79571-1.65439-10.3974-5.00556-14.7293-.83484-1.07916-1.74634-2.09856-2.60873-3.15641-3.37873-4.14387-6.85819-8.21177-10.07852-12.47536a33.10294,33.10294,0,0,1-3.39749-6.25933c-1.02265-2.23635-.67806-4.21982.99973-6.27577,5.68409-6.96426,11.16994-14.09038,16.71694-21.16626.538-.6864.97471-1.45246,1.50341-2.24909-6.64213-6.51036-13.14277-12.88038-19.64109-19.25295-3.01885-2.96073-3.1175-5.91891-.26261-9.16518q6.99078-7.94846,14.01628-15.86635c2.09463-2.37345,4.17466-4.75986,6.3904-7.28777-.96336-1.23524-1.77134-2.31393-2.62308-3.35673-4.96782-6.08217-9.96991-12.13656-14.90948-18.24131-2.13723-2.64138-2.01728-5.08106.21815-7.55721,1.373-1.52066,2.772-3.01758,4.15613-4.52805,4.22446-4.60922,8.447-9.21994,12.82064-13.994-5.956-7.51738-11.75723-14.95869-17.70671-22.27946-1.89778-2.33523-3.10731-2.19536-5.29249.1239q-8.7804,9.31848-17.50153,18.69311c-.4488.48064-.80983,1.043-1.244,1.60959.49975.89736.9247,1.69573,1.38206,2.47511,3.39656,5.7898,6.93137,11.50342,10.15772,17.38643,2.47627,4.5152,2.81414,7.17164-.6945,11.04143-4.80571,5.30013-9.12627,11.04-13.84931,16.82972.70307,1.1118,1.22459,1.98115,1.78848,2.82224q7.22282,10.77534,14.45905,21.54188c2.23242,3.32407,2.16156,5.40781-.35709,8.60267-2.67751,3.39633-5.34321,6.80354-8.09575,10.1385a4.27167,4.27167,0,0,0-.91427,4.31523c1.74726,6.70581,3.38753,13.45145,4.71841,20.25059,1.89084,9.658,2.57006,19.42525.86865,29.18883-1.19008,6.829-2.49595,13.65617-4.19342,20.37194-1.15673,4.57668-1.09861,8.65987,1.93021,12.44988a4.88088,4.88088,0,0,1,.62364,1.21116c1.13288,2.77106,1.42119,5.47729-.46455,8.10153-1.85633,2.58372-3.53411,5.30268-5.49419,7.80234a14.60843,14.60843,0,0,1-3.79465,3.382c-5.82952,3.56283-11.0787.9409-11.66529-5.82952a9.42124,9.42124,0,0,1,.7788-3.93174c2.482-6.59906,4.91548-13.22243,7.62842-19.72792,5.79247-13.88961,7.69257-28.37506,7.90516-43.33664a72.90762,72.90762,0,0,0-11.46035-41.10422c-4.26359-6.722-8.69021-13.34331-13.153-19.93565-7.96236-11.76163-18.25393-21.14773-29.96624-29.05775a329.47972,329.47972,0,0,0-31.01273-18.59644c-24.9697-13.13593-49.86089-26.422-74.89057-39.44241-13.17171-6.85183-21.39552-17.58455-26.38742-31.27789-3.88959-10.66928-3.04885-20.99779,1.51012-31.17994a13.00562,13.00562,0,0,1,2.57642-3.97909c4.07242-3.979,8.31864-7.81334,13.6197-10.1128a85.61506,85.61506,0,0,1,22.64292-6.15766c9.452-1.28445,18.851.05511,28.23947,1.05681a27.37,27.37,0,0,1,12.85005,5.14914c7.4288,5.19106,12.94036,11.83469,15.1172,20.78021,1.34709,5.53658,4.39165,9.84868,8.30532,13.82975,17.51612,17.81763,38.57516,29.43823,62.52012,36.07943a30.05763,30.05763,0,0,0,15.51968.29422c.672-.16685,1.36215-.26122,2.58581-.49106-4.64732,6.03528-9.9845,9.17478-17.17871,7.63085a61.55123,61.55123,0,0,1-11.747-3.42979c-8.85255-3.87025-17.52029-8.16279-26.26145-12.28743-1.08193-.51063-2.15645-1.03747-3.37432-1.62406,0,4.71413-.00741,9.00284.00162,13.29144.01273,5.87167-3.96509,8.89666-8.35048,11.54788-1.73568,1.04952-2.64324.83681-3.63-.95919-2.95216-5.37447-5.75449-10.83185-8.58137-16.2744a6.56338,6.56338,0,0,1-.57408-1.96031c-.24571-1.51614-.17762-2.81032,1.4029-3.83586a5.99116,5.99116,0,0,0,2.04368-2.94082,35.91812,35.91812,0,0,0,1.22968-5.30742c.57084-2.99281.274-3.45226-2.25465-4.94131a23.84762,23.84762,0,0,1-4.44908-3.09828c-8.63278-8.24975-15.58985-17.51242-17.41631-29.76175-.06646-.4459-.3161-.86726-.365-1.31259-.61947-5.64229-4.149-8.88207-9.04382-11.00182-1.14794-.4972-2.30537-.97193-3.45284-1.46983-9.02321-3.91471-18.56146-4.00792-28.1583-3.96068-7.47616.03694-14.21566,2.91928-21.1167,5.11649-3.32048,1.05727-3.60637,3.36032-1.25793,5.8836,3.02407,3.24916,6.092,6.4586,9.06536,9.7535,2.95,3.269,3.0353,4.72442.21722,7.94035a56.0052,56.0052,0,0,1-5.64333,5.40944c-2.97,2.5579-3.41149,5.64217-.95526,8.60719,3.19451,3.856,6.39122,7.71468,9.72027,11.4534,2.29841,2.5814,3.86655,2.59761,6.29569.15643,3.53087-3.54836,6.96472-7.19421,10.39254-10.84308a16.41463,16.41463,0,0,0,2.24885-2.99338c1.24543-2.15669.96719-3.5883-.92619-5.07017-2.77674-2.17325-5.5888-4.3018-8.40456-6.42445-3.49706-2.63606-3.82058-5.197-.86633-8.54373,3.53979-4.01013,7.18379-7.9282,10.78576-11.88321a11.505,11.505,0,0,1,.95827-.97205c2.48495-2.1487,4.36015-2.12554,6.85.05152q6.554,5.73087,13.11173,11.45757a13.224,13.224,0,0,1,1.686,1.687c1.4022,1.773,1.517,2.79388.11185,4.5959-4.96423,6.36667-9.63551,13.0198-15.128,18.90108-6.35659,6.80643-13.423,12.956-20.27758,19.2863a34.83418,34.83418,0,0,1-4.84311,3.23283c-11.31352-7.19942-19.747-17.22433-30.43251-24.54486,1.05229,2.84748,2.41628,5.43595,3.68684,8.06946a40.11506,40.11506,0,0,0,15.3783,16.966c6.09445,3.76917,12.06257,7.791,18.39,11.12491,14.18718,7.47546,28.51968,14.67986,42.8729,21.834,18.5624,9.25236,36.61763,19.3391,53.41354,31.56991a8.44667,8.44667,0,0,0,1.08332.58636c3.97829-3.455,7.90817-6.72017,11.66738-10.171,4.44144-4.07693,8.8801-8.17459,13.06658-12.508,13.83819-14.32312,27.53836-28.7794,41.33927-43.13887,7.96768-8.29027,16.06644-16.452,25.05886-23.65862.80936-.64854,1.4425-1.79577,2.78241-1.5173,1.49183,89.56893-.64333,178.95676-2.88732,268.23043-3.90626,1.8825-7.57724,3.44866-11.059,5.35965-50.56443,27.75581-101.05776,55.63831-150.7276,84.98229-5.67981,3.35533-11.40917,6.64792-17.26961,9.67071-5.94924,3.06864-11.99158,3.55357-18.29989.3784-9.7513-4.90784-19.68346-9.45859-29.56236-14.11077-32.72178-15.41014-65.76291-30.15658-97.71736-47.1586-15.66616-8.33543-31.407-16.531-47.03321-24.93983a40.75388,40.75388,0,0,1-7.64092-5.65027,10.52732,10.52732,0,0,1-3.43871-8.23678c.009-6.59836-.23737-13.19649-.33116-19.79531q-.69577-48.98542-1.36388-97.97106-.63516-46.76886-1.24392-93.53748-.37966-27.82135-.82662-55.64167a18.38821,18.38821,0,0,0-.36682-2.38838c-3.54743.82233-6.8546,1.61352-10.173,2.354-12.45556,2.77929-23.43989,8.52521-33.37611,16.4306a4.68951,4.68951,0,0,0-2.01982,4.34707c.32189,5.22313.45783,10.45831.63417,15.68989q.8283,24.5667,1.62835,49.13443c.88671,27.75212,1.69642,55.50654,2.66593,83.25564a47.649,47.649,0,0,1-2.74664,18.426,26.57348,26.57348,0,0,0-1.35531,10.03614q.70116,31.9116,1.22459,63.82668.39928,22.1881.712,44.37758c.024,1.87069.483,3.30578,2.11894,4.30574,2.808,1.71646,5.42206,3.87847,8.41869,5.135,10.58833,4.44051,21.12445,9.12372,32.0128,12.70345a270.85127,270.85127,0,0,1,51.03754,22.66573c7.98008,4.60494,16.09412,8.98038,24.19287,13.37619,35.19284,19.101,69.81067,39.26086,105.56242,57.333,3.95918,2.00153,7.84043,4.1654,11.85554,6.04559,3.77785,1.769,7.71874,2.59182,11.90509,1.23917a129.72242,129.72242,0,0,0,27.22145-12.47628q36.09582-21.77195,72.36162-43.26137c17.99479-10.69383,36.42078-20.70519,53.33272-33.11686,7.59993-5.57756,16.041-8.8757,25.07969-11.09561q21.53053-5.28832,42.97885-10.90687a53.23011,53.23011,0,0,0,8.89909-3.38938,8.77317,8.77317,0,0,0,5.13734-7.88409c.166-2.38363.43629-4.76078.57246-7.14581,1.39178-24.36389.29341-48.68633-1.266-72.9995a13.34363,13.34363,0,0,0-3.35742-8.04457,28.47112,28.47112,0,0,0-3.61911-3.60637,4.81294,4.81294,0,0,1-1.51429-6.09722,28.7519,28.7519,0,0,1,2.24214-4.20014,22.56277,22.56277,0,0,0,3.57326-11.908c.038-15.36429.20517-30.72789.29688-46.09195q.19522-32.77794.35756-65.556.28657-45.23835.62618-90.47637c.00718-.98756.10977-1.97443.2024-3.55125,3.87987,1.298,7.45405,2.34682,10.91429,3.68951,4.12811,1.60194,8.09065,3.64458,12.25211,5.14266,3.53759,1.27368,5.84921-.1701,6.52565-3.78075,1.50757-8.04573,3.093-16.0845,4.29253-24.17851,1.81928-12.27562,3.77843-24.49659,8.18537-36.17717a12.37283,12.37283,0,0,0,.39855-1.30436c1.51614-5.92748,3.02719-11.85611,4.51855-17.702-4.73323-3.73015-5.43931-5.6299-3.31273-11.19716a37.14717,37.14717,0,0,1,4.64014-8.6799q8.79082-11.96282,18.04736-23.5815a58.23607,58.23607,0,0,0,9.26429-16.21836c.30059-.82048.45482-1.69481.76027-2.86254C714.02143,196.28486,706.0915,190.96771,698.25605,185.51485ZM123.45936,256.45979a4.92189,4.92189,0,0,1-2.22743-4.16239,12.28809,12.28809,0,0,0-3.64643-7.88,78.142,78.142,0,0,0-5.99036-6.07071c-3.14182-2.69233-4.896-5.89286-4.79355-10.0762a30.92453,30.92453,0,0,0-.27419-3.25831,41.89311,41.89311,0,0,0-5.43537-.56887,12.64233,12.64233,0,0,1-9.74123-4.21809,113.04118,113.04118,0,0,1-7.83464-10.27165c-.81932-1.11355-.32074-2.1846.47682-3.09505,1.648-1.88111,3.24673-3.8171,5.02027-5.57455a64.89919,64.89919,0,0,1,14.33829-10.94937c6.675-3.669,13.50448-7.05561,20.23033-10.63338,2.34508-1.24739,4.72767-1.27588,7.59322-.84121,1.52552,23.1979,3.04537,46.3071,4.58189,69.67138C130.728,249.83248,127.12212,253.15239,123.45936,256.45979Zm128.4617-1.29325c-.22637,18.88857-.04539,37.78165-.19082,56.67161a26.27373,26.27373,0,0,1-1.36655,8.67156c-2.79781,7.66027-9.07775,11.04861-16.68544,12.329-6.61388,1.11308-13.29109,1.86073-19.88957,3.05162-11.2928,2.03813-21.80808,6.278-31.91543,11.65-12.15114,6.45838-24.36724,12.79447-36.56065,19.17318-3.71035,1.94109-7.59357,3.00566-11.79776,2.22524-2.31416-5.18944.37111-25.68273,4.14433-30.87182,3.014.33382,6.17283.5984,9.30574,1.04476,21.10755,3.0074,40.92058-1.37812,59.97091-10.333,7.763-3.649,15.24121-7.67543,21.23341-14.00238a66.35756,66.35756,0,0,0,10.80058-15.68688,25.00117,25.00117,0,0,0,2.39313-12.61674,279.66438,279.66438,0,0,0-5.93964-46.65492c-1.07985-5.05188-3.85137-9.19215-7.23126-12.96642-4.97882-5.55961-10.92216-9.93169-17.17443-13.93568-16.13452-10.33291-31.48677-21.67689-45.16726-35.16471-.81041-.79894-1.67315-1.55261-2.417-2.40934-1.57983-1.81974-1.53907-3.50713.31089-4.94153,4.31442-3.345,8.71117-6.58412,13.08093-9.85759,3.04537-2.28128,6.27057-2.26878,9.67824-.857,4.50512,1.86641,7.676,4.77422,8.35164,9.87462.29827,2.25186.68038,4.49806,1.15523,6.71889a37.62457,37.62457,0,0,0,1.281,3.89133,12.6748,12.6748,0,0,0,2.19768-.9548,44.79193,44.79193,0,0,0,5.67263-4.35784,60.50038,60.50038,0,0,1,22.10334-14.43219,21.48022,21.48022,0,0,0,6.28353-3.97192c2.051-1.76786,1.708-3.37189-.80069-4.3671-10.46444-4.15127-20.9378-8.31621-31.95062-10.82837A23.8402,23.8402,0,0,0,186.063,142.638c-10.721,4.50269-20.50279,10.68259-28.24966,19.30089-8.25959,9.18868-10.42878,20.02342-5.0696,31.66938A81.9304,81.9304,0,0,0,170.57362,218.405c9.745,9.40185,19.46439,18.8309,29.26409,28.17555,5.525,5.26841,10.18041,11.06817,12.05724,18.64263a33.09752,33.09752,0,0,1,1.064,7.04844c.14983,5.91416.10525,11.83562.01019,17.752a12.59815,12.59815,0,0,1-.87167,4.2681c-1.35867,3.49626-2.99384,6.88517-4.34429,10.38421a20.24436,20.24436,0,0,1-6.36667,8.718c-10.18608,8.09146-21.4981,13.16268-34.83146,12.48728a14.42879,14.42879,0,0,1-4.66931-.80554c-5.57062-2.27954-11.13452-4.59984-16.56561-7.18889a23.69958,23.69958,0,0,1-12.14964-13.69832c-.87339-2.34-1.522-4.76275-2.34507-7.12277a17.72222,17.72222,0,0,1,1.542-15.13549,49.69708,49.69708,0,0,1,6.19588-8.50055c3.35013-3.73211,6.79288-7.33246,9.15973-11.8311a6.94165,6.94165,0,0,1,6.71485-3.87824c3.29848.08314,6.596.25184,9.89453.26539a3.66933,3.66933,0,0,1,3.57059,2.03974c1.84486,3.26768,3.84709,6.44644,5.77753,9.666a14.77622,14.77622,0,0,1,1.66968,10.5543,8.67867,8.67867,0,0,1-2.20463,4.09755,14.72228,14.72228,0,0,1-8.41405,4.18068c-3.39355.60523-5.904-1.36029-8.26862-3.27209-.64992-.52545-.63452-2.07529-.62642-3.15294a14.80235,14.80235,0,0,1,.72067-3.10268c-2.68538.77347-4.6106,1.99215-5.78737,4.27574-1.77018,3.43547-1.66134,4.87148,1.02717,7.60052,1.75281,1.77922,3.69564,3.37027,5.53611,5.06427a15.14187,15.14187,0,0,0,12.65621,3.85045A81.36841,81.36841,0,0,0,182.96179,297.03a19.71137,19.71137,0,0,0,11.71161-9.36908,16.7633,16.7633,0,0,0,2.20011-11.77761,69.71378,69.71378,0,0,0-7.36628-20.80476c-2.27352-4.20755-5.96569-6.868-10.27582-8.58959-10.4722-4.18265-21.18525-6.0604-32.32555-2.78345-2.2616.66521-4.5482,1.24554-7.05226,1.92731a14.55123,14.55123,0,0,1-.39438-1.81824c-.9233-12.70716-2.04784-25.40483-2.6694-38.127-.45493-9.31257-.34459-18.658-.3007-27.988.03485-7.39313.31367-14.78627.55787-22.177.12633-3.82139.73885-4.6282,4.5394-5.74082,4.47015-1.30865,8.95675-2.59854,13.49858-3.61864,18.36173-4.1243,36.07376-10.24445,53.53187-17.17107a195.4514,195.4514,0,0,1,29.498-9.54554c1.19981-.26725,2.41143-.48076,4.07624-.80983.53414,3.67109,1.20421,7.10216,1.5092,10.56529,1.83642,20.84992,3.71023,41.69765,5.336,62.56436C250.68,212.864,252.17522,233.9696,251.92106,255.16654ZM293.06036,516.732a30.40192,30.40192,0,0,1-3.72435-.15076c1.19309-3.86087,4.46737-5.65282,6.077-8.68164-1.8649-.8522-3.15931.14891-4.48637.92817-2.64682,1.55435-5.26343,3.161-7.92773,4.6846a13.01125,13.01125,0,0,1-10.2228,1.16206,44.34684,44.34684,0,0,1-17.99514-10.05837,17.78786,17.78786,0,0,1-4.14652-5.77325c-5.84087-12.69327-7.69373-25.92982-4.00932-39.5288,1.23223-4.5475,3.54663-8.84675,5.73076-13.071a16.55274,16.55274,0,0,1,4.30816-4.75639,37.16515,37.16515,0,0,1,11.7746-6.26535c2.22825,4.371,4.32878,8.49151,6.68115,13.10571-3.54928-.75263-6.56837-1.39294-10.05906-2.1333a24.05544,24.05544,0,0,0,.89331,3.66705c2.31717,5.31217,1.25214,10.47891-.79895,15.49166-1.33041,3.25136-3.15687,6.29939-4.747,9.44561-.3476.68756-.6358,1.40522-1.05473,2.33964,2.39116,1.17016,4.60922,2.2558,7.01706,3.43407.32768,3.69159.65733,7.40495,1.02218,11.51547a15.17125,15.17125,0,0,0,3.06425-.63291,17.68167,17.68167,0,0,1,15.194.2647c2.12345.97888,3.64052.75587,5.15875-.77695,2.79862-2.825,5.808-5.4803,8.31783-8.54385a13.31969,13.31969,0,0,0,.00776-16.72991q-6.10325-7.5681-12.65784-14.76914a51.66428,51.66428,0,0,1-9.52841-15.248,142.30743,142.30743,0,0,1-8.196-27.40185A23.628,23.628,0,0,1,273.38,388.614a14.85557,14.85557,0,0,1,1.35728-1.53016,7.20157,7.20157,0,0,1,1.23779-.71c.44555,2.85281.79246,5.51793,1.28688,8.15537,1.36075,7.25894,2.66315,14.53224,4.2197,21.75a41.84026,41.84026,0,0,0,7.09278,15.773c3.53122,4.87473,7.45856,9.46044,11.07558,14.27542,4.43438,5.90293,8.8163,11.85009,13.03705,17.90632,1.75027,2.51124,1.0296,5.25266-.473,7.71689a41.68252,41.68252,0,0,1-2.53439,3.36c2.75508,1.719,3.01943,4.61165,2.94289,7.25118a123.99011,123.99011,0,0,1-1.33956,17.31A20.55242,20.55242,0,0,1,293.06036,516.732ZM281.6747,457.11775a28.63515,28.63515,0,0,1,9.08436,17.99781,5.32821,5.32821,0,0,1-1.65139,4.64731,22.52673,22.52673,0,0,1-10.86172,6.02775,6.41186,6.41186,0,0,1-7.15611-2.61174c-2.14361-2.8857-4.24449-5.69613-3.42076-9.56256,1.04592-4.90969,3.156-9.2321,7.37669-12.21367C277.16066,459.9085,279.39493,458.58318,281.6747,457.11775Zm262.161-79.78613a7.01237,7.01237,0,0,1-5.9071,2.79469,50.642,50.642,0,0,1-16.89063-3.82244c-11.81188-4.82528-23.04575-10.85615-34.13719-17.13a40.89936,40.89936,0,0,1-11.3647-9.71239,14.91089,14.91089,0,0,1-3.19231-6.68358,48.13126,48.13126,0,0,1,.46871-19.641c.139-.66764.2735-1.3369.38188-2.01a3.13174,3.13174,0,0,0-.03543-.67552c-4.35808-3.23862-8.83147-6.33262-13.03717-9.7557-4.32356-3.51906-6.64259-8.57164-9.18254-13.36646-5.50994,2.10134-7.92832,1.64131-11.79683-6.85623-3.41856.76977-1.63286,4.296-3.31991,6.1806-2.25626-1.39642-4.66051-2.67612-6.82287-4.28131-2.15692-1.60125-4.07161-3.52867-6.21383-5.42044v7.11872c-7.94059-1.85193-14.80179-4.47363-18.99011-12.46088-.6959,3.64724-.07145,6.51893.49187,9.44087-8.37538,1.71044-14.20432-1.52471-18.186-9.45187-.92875,4.9266,1.218,8.40328,2.62193,12.32981-2.56983.96939-4.95508,1.98011-7.41085,2.77257A34.70455,34.70455,0,0,0,368.048,304.843a81.45791,81.45791,0,0,0-12.86163,15.87029c-4.43716,7.03859-4.9684,14.74529-3.91888,22.7161.25195,1.91411.75749,3.79452,1.01824,5.70794,1.17086,8.59086,5.20843,15.69533,11.31562,21.67515,10.39149,10.17462,22.2072,18.48134,34.7152,25.78972,15.15009,8.85219,31.15458,16.02278,47.18663,23.07237a177.2882,177.2882,0,0,1,50.77817,33.41837,40.345,40.345,0,0,1,8.61842,11.34942c1.52564,3.05221,3.2502,6.01571,4.59915,9.14248,1.9038,4.4125,5.4275,6.45919,9.8833,6.67548,3.22959.15678,5.19615,1.59905,7.01288,4.02553a55.60384,55.60384,0,0,1,11.26258,37.76069c-.40271,6.81512-.87976,13.62607-1.30911,20.43957-.04933.785-.00649,1.57589-.00649,2.50428,2.65876.18087,3.9718-3.31574,6.989-2.3137a22.54083,22.54083,0,0,1-.08661,8.93893,59.99459,59.99459,0,0,1-6.2283,16.18524c-1.58469,2.95447-3.19995,2.88893-4.84485-.03775a18.34256,18.34256,0,0,1-.84966-1.861c-1.46265-3.464-2.15044-3.83147-6.40777-3.32454-1.9536,6.1051-3.86111,12.27805-5.91173,18.40306-1.47956,4.41944-3.13465,8.78076-4.73949,13.15759a27.45277,27.45277,0,0,1-6.44968,9.93934c-2.56172,2.5858-5.13942,5.18411-7.42857,8.00543A50.4361,50.4361,0,0,1,481.791,626.20743c-5.77557,2.633-11.76187,4.80386-18.0557,7.34173.1225,3.29073-2.58673,4.25548-5.46062,5.38373-12.74028,5.00163-25.72835,5.12228-38.91256,2.3445-1.32776-.27975-2.65169-.578-4.05447-.88463-1.99748,1.90774-3.90164,3.85369-5.93976,5.6475-5.42171,4.77213-10.32862,5.49-17.2989,2.65064.09333-2.74837.09333-2.74837,3.92549-8.34422-5.10677-2.25951-10.09357-4.67256-15.75022-4.74944-4.53836-.0616-9.08123.28206-13.62341.393-3.85925.094-7.72139.07388-11.57995.18411a3.16528,3.16528,0,0,1-2.96872-1.83781c-2.31347-3.652-4.7543-7.22316-7.06928-10.87422a22.15565,22.15565,0,0,0-9.71691-8.31019c-1.03237-.47774-2.04113-1.02126-3.10534-1.41309-6.21916-2.29031-10.02433-6.86606-12.30411-12.89983-4.16389-11.02035-7.29286-22.335-7.63479-34.14414-.36543-12.61754-.11868-25.25408-.04214-37.88158a13.21813,13.21813,0,0,1,1.01257-4.25919c1.97432-5.45228,4.048-10.86843,6.0611-16.30682a65.87083,65.87083,0,0,0,3.50239-28.23008,35.06393,35.06393,0,0,0-2.20926-8.89562c-4.02587-11.304-9.78869-21.76558-15.902-32.04511-.91613-1.54058-1.785-3.10929-2.69036-4.69062,4.01672-1.68138,7.25824-.92423,10.34217,1.6508a91.47224,91.47224,0,0,0,7.48542,5.36486,29.38985,29.38985,0,0,1,8.66473,9.49008,45.25941,45.25941,0,0,1,6.29986,23.71709c.09413,12.73473-2.03569,25.14107-4.53037,37.52935-.92029,4.57-2.12091,9.09246-2.8351,13.6923-.714,4.59729-1.04071,9.25943-1.40047,13.9035a12.2434,12.2434,0,0,0,.52534,3.689,24.91206,24.91206,0,0,0,1.31583,4.2314c3.53064,8.01585,3.91657,16.51037,4.02622,25.07437a91.435,91.435,0,0,0,.61588,11.22437c.80253,5.85523,3.9205,10.08477,9.69838,12.07357,1.93461.66578,3.80576,1.55435,5.77765,2.06266a3.63531,3.63531,0,0,1,2.91835,3.25252c.63209,3.215,1.42444,6.39851,2.22014,9.90368,2.22524-1.08309,4.13425-2.01218,6.2283-3.03159,2.64625,2.03025,5.31889,4.10588,8.01828,6.14632,6.15848,4.65495,12.86754,8.161,20.52664,9.58479a40.26614,40.26614,0,0,0,5.07492.48053c4.653.264,9.32219.3388,13.95757.77787a47.82926,47.82926,0,0,1,6.94029,1.63679c2.19988.5507,4.37579,1.21394,6.59523,1.666a11.93915,11.93915,0,0,0,6.6705-.67158,96.11486,96.11486,0,0,1,10.10388-3.09319c14.5129-3.60915,27.57762-10.52824,40.559-17.63121a27.65738,27.65738,0,0,0,8.444-7.84379,67.17232,67.17232,0,0,1,6.86977-8.01261,31.28846,31.28846,0,0,1,7.23126-5.02872,6.2249,6.2249,0,0,0,3.65176-4.03039c5.57687-18.86345,8.43478-37.92813,5.02039-57.59353-.63869-3.67885-1.82206-6.92511-4.86917-9.01441-4.26359-2.92345-6.16392-7.09556-7.197-11.86793a9.77389,9.77389,0,0,0-4.01834-6.1359c-3.071-2.15-6.31051-4.06165-9.35484-6.24659-2.94313-2.11223-5.7714-4.39211-8.55983-6.70674a16.50514,16.50514,0,0,1-2.15692-2.88014c3.31157-.30707,6.1315-.56876,9.1844-.852a17.57214,17.57214,0,0,0-6.65927-8.872c-5.41083-3.96323-10.72879-8.14461-16.52427-11.471-9.46136-5.431-19.25469-10.28717-28.94694-15.3108-5.35166-2.77385-10.85732-5.25637-16.16081-8.11624a57.2268,57.2268,0,0,1-20.7486-18.35478,3.98162,3.98162,0,0,0-3.745-2.14395c-.16431.7803-.34529,1.52633-.473,2.28139-.11023.65212-.15979,1.31455-.291,2.44292-2.26437-.73005-4.32692-1.243-6.26871-2.04715-8.61413-3.5677-17.17454-7.26531-25.79319-10.82177a43.27959,43.27959,0,0,1-12.83442-8.28657,90.14675,90.14675,0,0,1-17.87182-23.13189c-2.5176-4.56557-3.22114-9.67835-4.01927-14.73429-.3366-2.13225-.46964-4.29624-.78227-6.43313a25.91759,25.91759,0,0,0-.97113-3.1688c-1.29371,2.31613-2.16954,3.99565-3.1505,5.61149-1.138,1.8744-2.68446,3.05081-5.06416,2.7009-1.71009-.2515-2.85154-1.19819-2.8146-2.87759.067-3.03472.27581-5.83636,3.12075-8.17252,2.74513-2.2543,4.78695-5.42761,6.88181-8.379.78158-1.101.83924-2.71595,1.28132-4.28988-2.24515-.46408-4.14814-.74521-5.984-1.264-2.57226-.72681-2.91754-2.28892-1.02994-4.19087a10.246,10.246,0,0,1,1.53432-1.354,6.87063,6.87063,0,0,0,2.87354-5.1701c.34563-2.3599.86575-4.69537,1.34523-7.03431a40.18338,40.18338,0,0,1,5.25718-12.896c3.79765-6.20815,7.70206-12.35887,11.78479-18.38245,3.627-5.351,8.55369-9.41192,13.99543-12.8409,10.74964-6.77378,22.5922-10.73632,34.98847-12.94349a130.5714,130.5714,0,0,1,45.1719-.07052,88.99283,88.99283,0,0,1,14.70592,4.25942c4.70289,1.67941,9.2761,3.75829,13.80623,5.87526,6.79914,3.17714,12.37879,8.037,17.58953,13.33787,2.31324,2.35307,4.53616,4.79483,6.80724,7.18958a14.647,14.647,0,0,0,11.19983,4.91235,78.5584,78.5584,0,0,1,9.87311.62411,17.292,17.292,0,0,1,5.18758,1.51834,63.31443,63.31443,0,0,1,9.02275,4.81058c3.2773,2.24445,6.86051,2.70923,10.61324,3.11762,7.68353.83611,15.358,1.78118,23.00777,2.88014a23.22442,23.22442,0,0,1,5.757,2.02191c1.19981.52313,2.13909,1.5452,1.609,3.00322-1.93183,5.31241-3.94911,10.59378-6.1535,16.47124-2.48692-2.47465-4.59359-4.49262-6.60878-6.59813-1.95614-2.04368-3.30879-2.03824-4.84763.34748-1.47886,2.29286-2.75138,4.71783-4.19967,7.03176-1.37141,2.19154-2.169,2.214-3.85648.3131-1.58446-1.78489-3.15178-3.58738-4.79181-5.3204a7.15028,7.15028,0,0,0-5.50833-2.28371,84.03039,84.03039,0,0,0-31.57917,6.34571c-4.37729,1.8319-5.59192,4.95253-3.95883,9.45638,1.483,4.09,3.35927,8.02686,6.647,11.00113,4.2974,3.88774,8.58993,7.80755,13.15735,11.3632,5.44186,4.2365,11.98788,5.91636,18.69671,6.84661,4.16517.57756,8.37387.83345,12.55641,1.29453a14.17473,14.17473,0,0,1,3.64758.76282A3.40267,3.40267,0,0,1,543.8357,377.33162Zm22.60875-61.75915a75.954,75.954,0,0,1-3.18373,8.26954c-2.43273,4.7521-5.16837,9.35021-7.81786,13.98941a18.12814,18.12814,0,0,1-1.769,2.14106c-2.97277-2.90909-5.84133-5.71616-9.03526-8.84166-.80358,1.55922-1.37673,2.8637-2.11547,4.06629-1.84568,3.00449-3.71891,5.99452-5.67506,8.92757a5.794,5.794,0,0,0-.58473,5.7619c2.44593,6.37894,12.17639,14.22991,18.97784,15.16386.99324.1364,1.967.415,3.16637.67471a18.62976,18.62976,0,0,1-1.20977,2.27919c-2.15321,2.92947-3.08184,2.787-6.066.748-5.63476-3.85-9.76079-9.15117-14.365-14.01211-2.73564-2.88824-5.61369-5.65607-8.58067-8.30671-3.95559-3.53412-11.10441-3.524-15.14221-.17322-1.37,1.13693-1.74865,2.57306-1.39943,4.5585a10.87662,10.87662,0,0,0,2.84378-.52209c2.54528-1.22505,5.08477-.82628,7.68261-.34691,4.67649.86275,7.0819,3.58009,7.56057,9.10172.116,1.33864.01737,2.696.01737,4.10623a14.32135,14.32135,0,0,1-9.20454.80555c-5.80706-1.6251-11.58726-3.33623-16.17552-7.61742-1.53582-1.43289-2.30791-2.90747-1.81974-5.08708.64541-2.88061,1.02335-5.82061,1.543-8.73039a9.69911,9.69911,0,0,1,.49256-1.62962c2.31486-6.26639,12.34452-12.42544,18.97345-11.69852a8.5564,8.5564,0,0,1,5.19152,2.2895c2.38618,2.25928,4.87009,4.41539,7.602,6.87579,2.63976-4.0708,5.135-7.91882,7.84471-12.09788,3.35835,3.00681,6.45525,5.7795,9.79924,8.7738.55255-1.207.98212-2.08177,1.35867-2.97879,2.19953-5.24235,4.37451-10.49513,6.58284-15.73389,1.257-2.9818,1.00251-4.33735-1.77458-6.02208a34.71879,34.71879,0,0,0-12.70786-4.723c-6.51661-1.0179-13.02975-2.06058-19.55655-3.009-6.94458-1.00922-12.91559-4.24066-18.64484-8.02465-3.11195-2.05549-6.3691-3.56631-10.20287-3.132-3.65616.41418-6.61434-.97541-9.41-3.16626-3.95026-3.0955-5.79849-5.18538-7.09393-8.62745,5.91589,1.0369,11.73175,1.81569,16.47749,5.92517,9.47317,8.20354,21.01781,12.109,32.85077,15.15448,4.70243,1.21023,9.67812,1.32521,14.501,2.11292a54.36845,54.36845,0,0,1,9.96157,2.2081,47.22861,47.22861,0,0,1,8.29583,4.58212C566.88422,311.00273,567.34946,313.1351,566.44445,315.57247Z" transform="translate(-79.44061 -24.05873)"/>
    <path d="M265.74675,339.00842a7.59532,7.59532,0,0,1-7.54922,2.58233,13.90369,13.90369,0,0,1-4.49934-1.48476,7.77126,7.77126,0,0,0-8.976.3469,15.82951,15.82951,0,0,1-7.66941,2.535c-3.27765.36242-6.57046.58474-9.85343.90177-1.89686.18318-3.78723.43374-5.54584.63846a13.78634,13.78634,0,0,0-1.16854,8.27684,31.32407,31.32407,0,0,1,.7077,5.406,9.77727,9.77727,0,0,0,2.88431,6.672c6.21255,6.95337,12.39778,13.93557,18.41765,21.05544,3.817,4.51462,7.31626,9.29764,10.9738,13.94785.60165.7649,1.28526,1.46519,2.19328,2.49178.47115-1.47492.752-2.54481,1.15025-3.56908,2.26229-5.82,4.29705-11.74728,6.90891-17.40751a15.84919,15.84919,0,0,1,12.38122-9.23c3.51084-.53286,7.21123.18306,11.135.35211.08962,1.50167.18839,2.51136.2039,3.52208.10132,6.59836.2515,13.197.251,19.79543a36.19549,36.19549,0,0,0,2.39452,13.65571c1.8187,4.56869,4.56163,8.01631,9.10439,10.06161,7.36013,3.31354,14.55226,7.02806,22.02437,10.05745,7.72915,3.13348,13.0191,8.59989,16.811,15.72532,3.52543,6.62453,6.94666,13.30973,10.20959,20.067a24.5395,24.5395,0,0,1,2.17661,14.27772c-1.179,8.32964-2.53011,16.63543-3.86458,24.94238a12.7072,12.7072,0,0,0,2.6276,10.2434c1.81338,2.33709,3.56712,4.72235,5.43491,7.015,1.56976,1.92673.9137,4.136.922,6.23733.00672,1.69654-1.74645,1.89755-2.78056,2.69233-1.52089,1.169-3.32708,2.08675-4.5416,3.51212-3.93312,4.61605-6.43729,9.84068-6.09294,16.14679.14868,2.72174-.0264,5.45992-.01,8.19046a10.22635,10.22635,0,0,0,.24535,3.05082,87.19465,87.19465,0,0,0,9.33342,20.04125c2.10725,3.29443,4.878,3.43384,7.98482.99463,14.85563-11.66345,29.76314-23.26181,44.51988-35.04915,2.71607-2.16966,5.943-2.19443,8.4606.10514,9.24044,8.4401,18.68768,16.65372,28.07192,24.93565,5.54306,4.8921,10.85663,10.09334,16.74265,14.5334,6.23617,4.70451,4.94976,4.192,10.58938-.20356,7.36581-5.74106,11.82231-13.73213,16.13522-21.76419a16.09215,16.09215,0,0,0,1.342-4.90692c1.0729-6.36122.481-12.70137-.45227-19.02253a25.45466,25.45466,0,0,0-.745-2.66176c-2.16711,1.33319-4.00538,2.39452-5.76561,3.57255-1.03446.69266-1.901,1.63309-2.91974,2.35353-2.8051,1.98347-4.57714,1.56918-6.52587-1.3193-1.01316-1.50155-2.143-2.92807-3.27475-4.3451-1.70141-2.13029-4.14641-3.98153-4.98426-6.39874-.83832-2.4186.08892-5.39855-.08777-8.111a8.85364,8.85364,0,0,1,2.65134-7.06777,7.6925,7.6925,0,0,0,1.5488-1.80307,11.56839,11.56839,0,0,0,1.42212-4.03247,8.43282,8.43282,0,0,0-2.91881-6.98209c-8.71314-7.85675-17.53071-15.58638-27.85494-21.31308-6.46219-3.5846-13.04735-6.9485-19.5928-10.38188-1.07579-.56413-2.23206-.97518-3.5142-1.527-1.90554,2.64231-3.70687,5.11394-5.479,7.60642-1.18626,1.66852-2.2264,3.45214-3.518,5.032-2.10991,2.58094-3.65952,2.517-5.67136-.091-1.87613-2.4325-3.63265-4.96018-5.57455-7.33733a7.49576,7.49576,0,0,1-1.807-5.2962c.13768-4.31986-.0616-8.6506.08685-12.96977a4.22373,4.22373,0,0,0-2.4457-4.31593c-6.59663-3.81409-13.12134-7.75578-19.61827-11.73893-15.90793-9.752-31.61-19.80944-46.72973-30.77178-12.93168-9.376-20.41988-21.98651-23.45367-37.50237-1.82414-9.32982-1.98914-18.75275-2.00836-28.203a60.319,60.319,0,0,1,1.92175-14.841c2.50151-9.99225,6.6412-19.33412,11.186-28.52176a50.45963,50.45963,0,0,0,2.45242-5.24872c.64309-1.79531,1.16935-3.72528-.352-5.41673-13.73827-.05292-25.36686,6.07615-37.42282,11.7673,1.06456,1.48986,1.78732,2.65123,2.6562,3.69043,3.17633,3.79916,1.91851,8.10362,1.4872,12.32043C274.37373,326.20955,271.1006,333.22325,265.74675,339.00842Z" transform="translate(-79.44061 -24.05873)"/>
    <path d="M395.32638,239.09223c-.424.35489-.32826,1.33088-.62456,2.72475,11.18616-3.317,22.3634-4.16367,32.90751-8.59908-.918-1.26882-1.56547-2.18147-2.23114-3.08081-3.24615-4.38586-4.96655-9.25444-4.09188-14.72131.77023-4.81579,1.67848-9.62822,2.8916-14.34813a20.20672,20.20672,0,0,1,5.27038-9.061c1.59152-1.62591,2.88709-1.73417,3.99079-.05673,3.06308,4.65611,6.16982,9.36456,6.29268,15.23495.1071,5.11939-.09275,10.25151.1848,15.35944a25.13767,25.13767,0,0,1-3.65419,13.96961c-.66811,1.18719-1.46948,2.29865-2.16167,3.47309-.868,1.473-1.487,3.00323-.83392,4.8371,5.10028-.65607,10.01553-1.54313,14.96691-1.85448,5.05327-.318,10.1422-.0704,15.09242-.0704,1.04928-3.49521-1.02844-5.20785-2.876-6.80447a6.59651,6.59651,0,0,1-2.38456-5.61589c.11162-12.63364.05558-25.26866.05141-37.90323a23.57943,23.57943,0,0,0-2.95332-11.78027,6.5562,6.5562,0,0,0-6.05-3.75493,60.39233,60.39233,0,0,0-7.1274.47914c-4.8239.644-9.62741,1.4403-14.69573,2.213-3.13522-14.93205-1.16-29.814-1.43474-44.93383a49.05715,49.05715,0,0,0-7.1061.49627c-7.92218,1.74494-13.86969,6.57787-18.91427,12.6722-2.34647,2.83486-2.31069,3.28586.24836,5.9049,5.07794,5.197,7.80037,11.19438,7.63537,18.67933-.32861,14.91978-1.48337,29.76835-2.923,44.6087C403.98649,225.507,402.18064,233.35661,395.32638,239.09223Z" transform="translate(-79.44061 -24.05873)"/>
    <path d="M444.9073,694.47347c3.04711-1.373,6.13868-2.35492,8.768-4.05239,3.48525-2.25024,6.39156-5.42958,7.09162-9.636,1.14793-6.9008,4.3979-12.85329,7.47859-18.93384a3.18721,3.18721,0,0,1,3.26919-1.90682,8.1082,8.1082,0,0,1,5.59748,2.0812c3.0126,2.73748,6.14261,5.34552,9.29185,8.06656,6.59025-4.32681,14.70916-5.7619,19.53038-12.93249-1.63864-1.36816-3.10639-2.42717-4.37544-3.686-3.1578-3.13233-6.85124-3.13742-10.72485-1.94827-11.83967,3.63462-23.65017,7.3635-35.49493,10.98121a138.12541,138.12541,0,0,1-38.55061,6.4314,193.519,193.519,0,0,1-32.96818-2.38341c-8.86146-1.40035-17.76183-2.812-26.44949-4.99607-14.8217-3.72609-28.12171-10.93976-40.8254-19.29024-.91971-.60465-1.86837-1.16507-2.98064-1.85587-4.10786,5.51-8.08753,10.84806-12.26207,16.44739,10.49292,4.88051,20.54724,9.55677,30.61905,14.24137,2.64045-2.52513,4.99294-4.83142,7.409-7.06939,2.26159-2.09486,4.21831-2.41814,6.78073-.73248a13.11831,13.11831,0,0,1,3.75481,3.81317,33.26364,33.26364,0,0,1,2.65782,5.88371,55.8465,55.8465,0,0,0,8.54536,15.07181c3.07443,3.80413,8.6447,6.56408,12.29275,6.32556a33.14084,33.14084,0,0,1,2.53509-15.5924,9.63717,9.63717,0,0,1,2.22824-2.98574,60.64939,60.64939,0,0,1,5.12831-4.49494,5.78948,5.78948,0,0,1,8.33288,1.42861c2.77187,4.16517,5.51758,8.35071,8.15711,12.60041,2.53937,4.08828,2.35851,5.81586-.62769,9.523q-3.61749,4.49077-7.21911,8.97111c12.08839,10.75612,25.77444,6.80215,30.629-.86425-1.75814-2.80835-3.46383-5.75865-5.39427-8.55381-1.94074-2.81-1.83132-5.4224-.01632-8.22033,2.72289-4.19713,5.3212-8.47507,7.98053-12.71388a13.31511,13.31511,0,0,1,1.16519-1.67964c1.75513-2.02191,3.58854-2.17822,5.51122-.34412,4.444,4.2395,8.86782,8.50193,13.22485,12.83013,1.94433,1.93136,2.01311,3.01492.648,5.43352A5.29318,5.29318,0,0,0,444.9073,694.47347Z" transform="translate(-79.44061 -24.05873)"/>
    <path d="M621.29215,240.64785c-2.44129,9.29046-3.66264,19.0692-10.48725,26.86876,7.26206,4.08157,14.49194,6.93357,22.95728,4.86442a19.96322,19.96322,0,0,0,.29665-3.0881c-.69982-11.76973,2.1729-22.75,7.23312-33.26391.49187-1.0223.78042-2.14719,1.31236-3.14483a42.244,42.244,0,0,1,2.77824-4.68159c2.35423-3.30184,5.39925-4.72431,9.34419-3.09782,2.7127,8.09806,1.86443,16.18813.60164,24.34073a37.65378,37.65378,0,0,1-12.43344,23.25938c-1.92905,1.71125-3.5325,3.78943-5.764,6.22077,10.56646,2.66061,20.51066,5.16455,30.88444,7.77663,0-1.71935.02663-2.95054-.00463-4.18022a65.20686,65.20686,0,0,1,2.58418-20.879c1.8869-6.19275,3.05105-12.60666,4.96458-18.7898,2.09648-6.77425,2.2169-13.62827,1.9786-20.58488a7.709,7.709,0,0,0-3.61331-6.58169,19.49933,19.49933,0,0,0-11.16184-3.67051c-3.39355.05419-6.78872.011-9.75292.011-1.41611-3.18131-2.59855-5.838-3.904-8.77045-9.37452,2.28776-18.376,4.48451-27.6794,6.7549a39.82715,39.82715,0,0,0,1.95267,3.60475c2.37738,3.4489,2.58789,7.11953,1.59395,11.0845C623.64684,229.99178,622.67792,235.374,621.29215,240.64785Z" transform="translate(-79.44061 -24.05873)"/>
    <path d="M324.76714,182.7593a32.29433,32.29433,0,0,0-3.74034,1.75837,51.62239,51.62239,0,0,0-5.26794,3.76732,13.85086,13.85086,0,0,1-8.72309,3.39783c-2.69835.06287-5.39937.01285-8.41174.01285a58.76887,58.76887,0,0,0,3.95548,16.24638c1.08112,2.49954,2.01183,5.075,2.84088,7.67045a65.05671,65.05671,0,0,0,7.68748,15.92032c2.18112,3.32534,4.50987,6.55551,6.82322,9.79205,2.59634,3.63242,2.50012,5.95214-.86182,8.91843-2.89519,2.55431-5.98271,4.89649-9.05749,7.23752a20.45362,20.45362,0,0,1-3.55878,2.0013,5.1717,5.1717,0,0,1-6.5187-1.15315c-.78609-.82175-1.5628-1.66053-2.41825-2.4061-2.12358-1.85065-2.99176-1.75953-4.76913.3461-2.64022,3.12793-5.31321,6.22853-7.93618,9.37081a44.8858,44.8858,0,0,0-7.04253,12.18345,7.74905,7.74905,0,0,0,1.63378.16882c7.18217-1.13392,14.37847-2.193,21.53354-3.48108a31.70256,31.70256,0,0,0,13.9959-5.98387c8.30579-6.44424,15.98029-13.63707,21.60278-22.55735,3.244-5.14682,5.58023-10.91081,7.94765-16.5553a96.57451,96.57451,0,0,0,7.82422-32.666c.14636-2.95054.62388-5.58428,2.5293-7.89184a8.92558,8.92558,0,0,0,.842-2.01311c-6.20583,1.2445-11.95106,2.3966-18.04748,3.61911.0667,11.0662.56471,21.97377-3.932,32.71773-2.25384-2.07738-4.81533-3.49406-5.94659-5.65827-3.38208-6.471-6.05681-13.19615-4.14733-20.876A35.20629,35.20629,0,0,0,324.76714,182.7593Z" transform="translate(-79.44061 -24.05873)"/>
    <path d="M491.621,219.194c2.65574-1.29476,5.28531-2.66385,7.82341-4.17374,5.85708-3.4841,11.62732-7.11455,17.4881-10.59216a3.7877,3.7877,0,0,0,1.97884-4.52214c-.66093-3.34272-1.23594-6.70489-1.74726-10.074a15.89766,15.89766,0,0,0-6.7739-10.638c-1.18776-.87988-2.46353-1.64861-3.60243-2.58557-4.428-3.64342-9.41621-4.20778-14.78952-2.81993-7.60943,1.9654-14.01535,5.83068-17.42348,13.07676a52.08859,52.08859,0,0,0-4.79715,17.33792,163.66117,163.66117,0,0,0,.03728,24.54244,17.6128,17.6128,0,0,0,5.31612,11.83886,24.65457,24.65457,0,0,0,16.09677,7.27631c11.62176.94912,20.69986-6.4923,24.26061-13.92133,2.11987-4.42245,1.97027-9.03827.91635-13.679a11.92326,11.92326,0,0,0-1.19309-2.35121c-4.3678,1.87266-7.76,4.09894-9.60008,8.25611a86.241,86.241,0,0,1-4.28558,8.52544c-2.11061,3.62131-4.85064,4.05818-7.70786.97217-3.25761-3.5186-5.12-7.76088-4.56047-12.75406A4.32934,4.32934,0,0,1,491.621,219.194Zm-2.39776-21.28286c.38975-4.60227,3.46488-7.74629,7.27943-8.34272a4.16167,4.16167,0,0,1,4.26128,1.44053c2.24677,2.7508,4.31407,5.45494,4.25826,9.34638-.03335,2.32991-.46409,4.19389-2.3056,5.70019a23.42477,23.42477,0,0,1-13.573,5.42738C489.14362,206.7133,488.853,202.28413,489.22328,197.91112Z" transform="translate(-79.44061 -24.05873)"/>
    <path d="M527.33829,242.1171c-1.88227,1.12443-3.88982,2.0394-5.88047,3.0683,7.56937,5.72114,27.35195,7.63375,35.12325,3.3756-.49743-2.24365-2.48784-3.39274-3.85485-4.95138a9.80568,9.80568,0,0,1-2.86532-6.37349c-.2413-11.74288.19036-23.42739,3.1585-34.87894a12.98726,12.98726,0,0,1,.895-2.56253c.63614-1.26835,1.7769-1.5767,2.8-.65444a12.33843,12.33843,0,0,1,2.44315,3.1849c.96846,1.75305,1.72086,3.62524,2.57886,5.47648,7.00756-1.67536,12.15184-5.29469,15.62459-11.1916,4.31476-7.32679.6329-14.52969-7.7375-15.18714-1.70048-.13362-3.40651-.20749-5.11139-.27454-4.30134-.16893-8.35141-.94634-11.4446-4.33757a3.42645,3.42645,0,0,0-4.38031-.596,23.307,23.307,0,0,0-2.93849,1.71275q-6.90393,4.71309-13.771,9.48024c-1.38947.95908-2.76944,1.93183-4.31338,3.00959,1.49785,2.436,2.9642,4.598,4.18069,6.89247a8.08155,8.08155,0,0,1,1.06294,3.81027c-.34436,11.14065-.89412,22.27494-1.213,33.41617A8.47251,8.47251,0,0,1,527.33829,242.1171Z" transform="translate(-79.44061 -24.05873)"/>
    <path d="M384.62353,149.09905c-5.24386.27951-9.9156,1.01535-12.32263,6.36388-.697,1.5488-1.66157,2.97521-2.46619,4.47757a19.93922,19.93922,0,0,1-10.182,9.63713,11.18593,11.18593,0,0,0-2.15367,1.61179c2.4663,3.083,6.27635,2.78148,9.12742,4.93041a12.06879,12.06879,0,0,1-2.1839,2.57041c-1.99377,1.29545-2.3416,3.05521-2.32261,5.25358q.12453,14.4953.00776,28.99222a12.17444,12.17444,0,0,0,2.33882,7.31914c1.03076,1.46705,2.016,2.96606,2.9913,4.40613-.74777,1.45176-1.35253,2.6701-1.99621,3.86747A11.29935,11.29935,0,0,0,368.678,243.088c1.969,1.49982,3.834,2.216,6.15686.6292a49.7777,49.7777,0,0,1,4.82783-2.526c6.51245-3.46245,11.29442-8.71742,15.16363-14.86154a9.69444,9.69444,0,0,0,1.36388-3.78353c.21143-1.59534-.97309-2.30744-2.4098-1.57983a22.962,22.962,0,0,0-2.54227,1.70859c-2.11639,1.45941-4.23093,2.92148-6.91817,4.77758-.46686-3.06182-1.15-5.49756-1.15754-7.93538-.03949-12.73125.07723-25.46319.17727-38.19456a15.3477,15.3477,0,0,1,2.03974-7.63c1.69064,0,3.39853.10456,5.08905-.02246,3.249-.24409,4.49563-1.70257,3.96451-4.94918-.39577-2.41872-1.20884-4.76912-1.81639-7.0753-3.36842-.53564-6.52923.16072-9.60934-1.51672C385.67825,156.71045,384.76734,153.002,384.62353,149.09905Z" transform="translate(-79.44061 -24.05873)"/>
    <path d="M264.248,167.27262a39.43632,39.43632,0,0,0,2.84726,3.04282,7.89847,7.89847,0,0,1,2.654,6.29244c.23123,8.07051.56378,16.14912,1.23211,24.19345a343.44119,343.44119,0,0,1,1.42583,34.42678c-.08592,4.94362-.75853,9.73671-3.01445,14.21671a22.96562,22.96562,0,0,0-.94126,2.84193c10.8007-2.86393,21.30231-4.80572,31.57385-9.20455-1.619-2.11639-2.98226-4.04532-4.49875-5.84526a22.998,22.998,0,0,1-4.49887-8.35153,48.6617,48.6617,0,0,1-2.24874-14.08992c.05916-20.02932.02454-40.059.02443-60.08843v-4.07057C278.44534,153.42481,269.86027,157.96352,264.248,167.27262Z" transform="translate(-79.44061 -24.05873)"/>
    <path d="M250.31738,423.95505c1.32428-1.692,2.5491-3.46187,3.88947-5.29041-7.0108-10.314-15.2067-19.442-23.93443-28.64577-3.11635,6.6786-5.93338,12.88027-8.915,19.00192a4.1476,4.1476,0,0,0,.34088,4.68425c3.53065,5.30014,6.90879,10.70251,10.31531,16.08462.91115,1.43961,1.75838,2.924,2.557,4.42928a5.765,5.765,0,0,1-.35443,6.39863c-4.02552,6.06318-7.77385,12.313-11.889,18.31252a9.23962,9.23962,0,0,0-.83843,9.94443c2.10111,4.41388,4.1126,8.8845,6.47945,13.15481,3.42574,6.18082,3.72031,12.19121.298,18.4862-2.31868,4.265-4.237,8.74787-6.34142,13.14786,5.075,6.56061,9.99341,12.91882,15.07957,19.49379,3.92015-3.44658,7.568-6.6537,11.41843-10.03891a125.2122,125.2122,0,0,1-13.27071-23.12055,40.24643,40.24643,0,0,1-3.12689-11.81212c-.96846-8.24951.16431-16.33761,1.50642-24.428C235.95478,449.15169,241.11944,435.70649,250.31738,423.95505Z" transform="translate(-79.44061 -24.05873)"/>
    <path d="M585.15922,217.63476a27.42157,27.42157,0,0,1-1.31443,7.33513c-2.35469,6.51881-5.06092,12.90991-7.53047,19.38866-1.24357,3.26213-2.275,6.605-3.48849,10.16362,9.55075,3.49371,18.49407,7.68724,29.26084,7.60828a38.82809,38.82809,0,0,1-1.90681-3.46418,9.82145,9.82145,0,0,1-1.17758-3.80287A106.58754,106.58754,0,0,1,600.103,241.3c1.66158-9.67372,5.15679-18.82755,8.52973-28.01032,1.44481-3.93371,2.57306-7.99409,3.63786-12.05134.3432-1.30761.02478-2.7889.0037-4.657-9.14664,2.49468-17.64812,5.25822-26.455,5.59308C585.60061,207.66925,585.50844,212.66092,585.15922,217.63476Z" transform="translate(-79.44061 -24.05873)"/>
    <path d="M394.904,603.75383c-.93593,1.644-1.82924,3.31226-2.88663,5.23321,9.81661,4.54217,19.44123,4.91085,29.6675,1.75235-.83033-1.13728-1.39364-1.971-2.0189-2.75532-3.61586-4.53592-7.26531-9.04545-10.86484-13.59411a6.75622,6.75622,0,0,1-.22753-8.73c3.896-5.46316,7.82434-10.9034,11.71925-16.36726.50623-.71025.89447-1.50479,1.33551-2.25673-3.83308-3.7078-7.434-7.33895-11.20375-10.786-2.5777-2.357-4.55156-2.28452-7.24-.12343q-5.05316,4.06141-10.06486,8.17518c-1.11493.91033-2.20185,1.85517-3.32813,2.80673,3.15016,5.70006,6.04512,11.1102,9.10636,16.42446,2.6166,4.54264,2.77928,8.94726-.04794,13.4408C397.45829,599.18572,396.19793,601.48135,394.904,603.75383Z" transform="translate(-79.44061 -24.05873)"/>
    <path d="M511.10905,447.85879c5.83786,6.02567,11.81906,12.19955,18.04921,18.63024,2.571-3.0119,4.9002-5.74036,7.35539-8.61656-4.91015-7.2264-9.67348-14.23628-14.21219-20.916C518.50474,440.65462,514.89536,444.17068,511.10905,447.85879Z" transform="translate(-79.44061 -24.05873)"/>
    <path d="M601.397,190.9882a30.05441,30.05441,0,0,0,10.30176-7.59993,2.91076,2.91076,0,0,0,.34019-3.71522c-1.95522-3.57209-3.75574-7.22894-5.64843-10.83578a12.36117,12.36117,0,0,0-1.25862-1.58063c-3.71753,2.08571-7.275,4.28026-9.739,7.7368a8.99179,8.99179,0,0,0-.70678,9.07486,41.404,41.404,0,0,0,3.79673,6.01825A2.11417,2.11417,0,0,0,601.397,190.9882Z" transform="translate(-79.44061 -24.05873)"/>
    <path d="M496.02613,317.08745c7.24654.15377,14.49888.03879,22.009.03879-1.32278-5.16454-2.11223-6.30345-5.89506-9.09964-7.00687-5.17925-14.72653-5.24768-22.69792-3.09284a19.6492,19.6492,0,0,0-3.96971,2.07864C486.03815,312.37391,490.83275,316.97722,496.02613,317.08745Z" transform="translate(-79.44061 -24.05873)"/>
  </g>
</svg>