
<svg xmlns="http://www.w3.org/2000/svg" width="490.7" height="499.725" viewBox="0 0 490.7 499.725">
  <g>
    <g>
      <g>
        <path d="M331.4,193.1c-3.8,6-7.5,12-11.5,18.2-2.5-5.1-4.5-10.2-7.4-14.7-2.6-4.1-1.7-6.7,2.2-9.4,2.1,4.7,4.1,9.3,6.5,14.6,3.4-6.2,6.6-11.6,9.4-17.1,1.2-2.3,2.6-3.5,5.4-3.6,6.3-.4,12.5-1.2,19.6-1.9-4.7-5.1-8.7-9.7-13.1-14-2.3-2.3-2.7-4.4-1.9-7.4,1.6-5.9,2.7-11.8,4.2-18.4-6.2,2.9-11.8,5.2-17.2,8.1-2.8,1.5-5,1.3-7.7-.4-5.1-3.2-10.5-6.2-16.4-9.6.9,6.9,1.5,13,2.5,19.2a6.4,6.4,0,0,1-2.4,6.5c-4.8,3.9-9.3,8.2-14.5,12.8,5.7,1.2,10.6,2.2,15.4,3.3.1.4.2.7.3,1.1-1.7,1.2-3.6,3.6-5,3.3-7-1.4-13.8-3.5-21.4-5.5,5.3-5.2,10.2-10,15.1-14.8a4.3494,4.3494,0,0,1-.6-.7c-6.9,5.6-13.8,11.3-21.6,17.7,10.4,1.6,19.5,3.1,29.2,4.6q-77.55,96.6-154.1,192.1c-3-.5-5.3-1.6-6.9-.9-4.7,2.1-9.3,1.2-13.9.3a11.6151,11.6151,0,0,0-9.4,2.1c-5.4,3.6-10.8,7.4-16.6,10.4a71.38,71.38,0,0,0-22.4,17.2,111.8638,111.8638,0,0,0-13.7,19.2c-1.8,3.3-3.2,6.5-6.4,8.7-18,12.6-35.9,25.4-53.8,38.1-1.1.7-2.1,1.6-3.3,2.5,10.2,8.3,20,16.1,29.7,24,1.7,1.4,3,1.3,4.7.1,15-10.2,30-20.2,45-30.3,1.2-.8,2.8-1.8,4-1.6,8.2,1.3,15.5-1.5,22.4-5.1,8.3-4.4,16.2-9.4,25.9-10.5,7.2-.8,10-4.7,11.2-12a5.551,5.551,0,0,1,1.4-3.1c3-2.4,4.3-5.2,5-9.1.6-3,4-5.5,6.1-8.2.4-.5.2-1.4.2-2,.1-4.6-.5-8.8-4.2-10.4a48.018,48.018,0,0,0,3.5-6.7,72.7263,72.7263,0,0,0,2.2-8c.5-2.1.7-4.3,1.1-6.5.4-1.8.3-4.1,1.4-5.4q61.2-76.35,122.5-152.7,13.35-16.65,27.1-33.7c3.4,8.5,6.6,16.6,10.3,25.9,4.7-9.3,8.7-17.3,12.8-25.4A1.5911,1.5911,0,0,0,331.4,193.1Z"/>
        <path d="M285.5,265.1c-1.6,7.5-5.3,10.8-12.3,10.9,6.8,3.2,6.7,8.6,5.7,14.7,5.1-5.1,10.1-3.8,15.7-.7-3.7-6.6-.4-10.9,4-15.2C291.5,276,288,272.2,285.5,265.1Z"/>
        <path d="M490.7,97.7c-5.6-1.8-8.1-5.4-8-11.3-3.2,5.2-7.5,6.1-12.7,4.1,2.2,7,2.2,7,.1,14.2,5.3-2.4,9.4-.5,12.8,3.9C482.6,102.7,485,99.3,490.7,97.7Z"/>
        <path d="M332.5,261.6c-1.9,5.5-6,6.8-11.2,6.3,1.7,2.5,3.6,4.2,3.9,6.2.4,2-.8,4.3-1.4,6.7,6.7-1.9,6.7-1.9,13.6,1.7-1.9-5.8.3-9.4,4.9-12.2C336.4,270.3,334.1,266.6,332.5,261.6Z"/>
        <path d="M241.6,327.9c-4.1,4.4-8.2,3.9-12.8,1.2,2.3,5.1,1.2,8.9-2.9,12.4,5.4-.3,9,1.8,11,6.9,1.3-5.3,4-8.3,9.8-8.3C241.8,337.2,240.5,333.3,241.6,327.9Z"/>
        <path d="M414.9,241.1c-4.4-2.8-4.3-6.6-3.2-11-4,3.3-7.5,1.8-11.9-1.1,2.1,5.5.3,8.7-2.5,10.4,2.9,2.2,5.6,4.3,8.7,6.7C407.1,243.2,409.9,240.8,414.9,241.1Z"/>
        <path d="M238.2,214.7c2.9,2.3,5.4,4.3,8.1,6.5,1-3.2,3.9-5,8.4-5.2-4.3-2.4-4-6-2.9-10.6-4,3.2-7.2,2.5-11.3-.7C242.1,209.7,241,213,238.2,214.7Z"/>
        <path d="M349.8,165.2c4.6,5.5,9.2,11,14,16.8-7.5,1.2-14.6,2.3-21.7,3.4,0,.4.1.7.1,1.1,9.2-.5,18.4-1.1,28.1-1.6-7-7.2-13.4-13.8-19.8-20.4A4.62,4.62,0,0,0,349.8,165.2Z"/>
        <path d="M348.1,153.8c2.3-8.7,4.6-17.5,7.1-27.4-9.3,4.8-17.3,8.9-25.3,13.1.2.3.3.7.5,1,6.4-2.4,12.7-4.9,19.6-7.5-1.1,7.2-2,13.9-3,20.5C347.3,153.6,347.7,153.7,348.1,153.8Z"/>
        <path d="M317.9,138.1c-7.7-4.9-15.3-9.9-23-14.8-.4.2-.7.4-1.1.6,1.5,9,3,17.9,4.5,26.9.4-.1.7-.1,1.1-.2-.5-7-.9-14-1.4-21.5,6.8,3.5,13.1,6.7,19.5,9.9A3.0764,3.0764,0,0,1,317.9,138.1Z"/>
        <path d="M402.1,128.3c-2.9-.6-5.8-1.1-7.9-1.5-1.3,2.5-2.7,5.1-3.9,7.2l5.7,5.7c2.3-1.1,4.9-2.4,7-3.4C402.7,133.4,402.3,130.4,402.1,128.3Z"/>
        <path d="M442.8,41.2c-.2,2.3-.4,4.8-.5,7.3,2.2.9,4.6,2,6.4,2.8,1.8-1.9,3.6-3.8,5.1-5.3-1.3-2-2.8-4.3-3.9-6.1C447.5,40.2,445,40.7,442.8,41.2Z"/>
        <path d="M425,92.3c-1.2,2.2-2.4,4.6-3.3,6.3,1.8,1.7,3.6,3.5,5.2,5.1,2.1-1.1,4.4-2.3,6.3-3.3-.3-2.3-.7-4.9-1-7C429.8,93.1,427.2,92.7,425,92.3Z"/>
        <path d="M297.8,46.2c-.6-2.4-1.1-4.7-1.5-6.5-2.4-.2-4.9-.5-6.9-.6-.8,2.1-1.7,4.3-2.5,6.3,1.7,1.5,3.6,3,5.2,4.4C294.1,48.6,296.2,47.3,297.8,46.2Z"/>
        <path d="M338.8,68.1c-1.1-1.9-2.4-4-3.3-5.5-2.5.5-4.8,1-6.8,1.4v6.7c1.8.8,4,1.7,5.9,2.4C335.9,71.5,337.5,69.7,338.8,68.1Z"/>
        <path d="M373.8,9.1V2.6C372.1,1.9,370,.9,368,0c-1.4,1.7-2.9,3.6-4.1,5.2,1.1,1.8,2.4,3.8,3.4,5.4C369.5,10.1,371.7,9.6,373.8,9.1Z"/>
        <path d="M422.4,187c-1.1,2.1-2.1,4.1-3,5.7,1.7,1.6,3.3,3.2,4.8,4.6,1.8-1.1,3.9-2.3,5.7-3.3-.3-2-.7-4.3-1.1-6.3C426.9,187.5,424.6,187.2,422.4,187Z"/>
        <path d="M437.7,217.3c-.6,1.9-1.3,4.1-1.8,5.9,1.8,1.2,3.7,2.6,5.3,3.7,1.8-1.4,3.7-2.8,5.1-3.9-.8-2.2-1.5-4.5-2.1-6.2C442.1,217,439.9,217.1,437.7,217.3Z"/>
        <path d="M436.9,150.5c1.2,1.8,2.5,3.7,3.6,5.3,2-.6,4.2-1.2,6.1-1.7v-6.5c-2.1-.7-4.2-1.5-5.9-2.1C439.4,147.3,438,149.1,436.9,150.5Z"/>
        <path d="M268.8,95.7c.6-2,1.2-4.2,1.8-6.1-1.7-1.2-3.6-2.6-5.1-3.7-1.8,1.4-3.6,2.9-4.9,4,.7,2.1,1.3,4.2,1.8,5.8Z"/>
        <path d="M409.6,308.2c1.4,1.6,2.7,3.2,4,4.7,1.9-.4,3.9-.8,5.4-1.1.3-2.3.6-4.5.9-6.4-2-.7-4.2-1.5-6.1-2.2C412.4,304.8,410.8,306.6,409.6,308.2Z"/>
        <path d="M379.8,83c-1.2-1.4-2.3-2.7-3.7-4.3-1.4.4-3.2.9-4.6,1.3-.3,1.9-.7,3.8-1,5.4,1.8.7,3.7,1.4,5.4,2C377.2,85.9,378.6,84.3,379.8,83Z"/>
        <path d="M245,72.7c-.5-1.4-1-2.8-1.5-4.1h-4.4c-.4,1.3-.9,2.7-1.4,4.1,1.2.9,2.5,1.8,3.5,2.5C242.6,74.4,243.8,73.5,245,72.7Z"/>
        <path d="M376.8,279.4c-.6,1.5-1.1,2.8-1.5,4,1.3.9,2.6,1.8,3.6,2.6,1.2-.9,2.4-1.8,3.3-2.5C382.4,279.3,379.7,279.1,376.8,279.4Z"/>
        <path d="M200.6,148.8c-.4-1.2-1-2.6-1.5-3.9h-4.4c-.4,1.3-.8,2.7-1.1,4.1,1.2.9,2.4,1.8,3.4,2.6C198.2,150.7,199.4,149.7,200.6,148.8Z"/>
        <path d="M241.4,126.9v-4.2c-1.4-.5-2.6-.9-3.9-1.3-1,1.3-1.8,2.4-2.5,3.4.8,1.1,1.7,2.2,2.5,3.3C238.7,127.7,240.1,127.2,241.4,126.9Z"/>
        <path d="M373.9,174.1c4.3.5,8.7.9,13,1.4.1-.4.1-.9.2-1.3-4.3-.5-8.7-1-13-1.5A7.8445,7.8445,0,0,0,373.9,174.1Z"/>
        <path d="M294.7,226.9c.4.2.8.3,1.2.5l5.4-12.6c-.4-.2-.7-.3-1.1-.5C298.3,218.5,296.5,222.7,294.7,226.9Z"/>
        <path d="M336.9,103.4c-1,4.3-2,8.7-3.1,13,.4.2.8.3,1.3.5,1-4.4,2-8.8,3.1-13.2C337.7,103.6,337.3,103.5,336.9,103.4Z"/>
        <path d="M384.6,149c-4.1,1.2-8.2,2.5-12.4,3.7.1.4.3.8.4,1.2,4.1-1.2,8.2-2.5,12.4-3.7A5.6433,5.6433,0,0,0,384.6,149Z"/>
        <path d="M260.7,144.1c4.3,1.6,8.6,3.2,12.9,4.9.2-.4.3-.8.5-1.2L261.2,143A3.6966,3.6966,0,0,0,260.7,144.1Z"/>
        <path d="M334.4,218c1.1,4.3,2.3,8.6,3.4,12.9.4-.2.8-.3,1.3-.5-1.1-4.3-2.3-8.5-3.4-12.8A9.2878,9.2878,0,0,1,334.4,218Z"/>
        <path d="M321.7,222.4h-.8v10.3h.8Z"/>
        <path d="M282,133.6c-3.5-2.7-6.9-5.4-10.4-8.2a7.0061,7.0061,0,0,0-.8,1c3.5,2.7,7,5.4,10.5,8.2A3.5915,3.5915,0,0,1,282,133.6Z"/>
        <path d="M320.5,114.8c-.3-4.3-.7-8.5-1-12.8-.4,0-.7.1-1.1.1.2,4.3.4,8.5.6,12.8A6.6217,6.6217,0,0,0,320.5,114.8Z"/>
        <path d="M279.8,197.8c-.2-.3-.5-.7-.7-1-3.6,2.6-7.3,5.2-10.9,7.8a7.0061,7.0061,0,0,1,.8,1Z"/>
        <path d="M354.9,207.5c2.8,3.3,5.5,6.6,8.3,9.8.3-.3.7-.6,1-.9-2.8-3.3-5.6-6.5-8.4-9.8A3.8167,3.8167,0,0,1,354.9,207.5Z"/>
        <path d="M346.9,213.7c2.1,3.8,4.2,7.5,6.3,11.3a6.7262,6.7262,0,0,0,1.1-.7c-2.1-3.7-4.2-7.5-6.3-11.2A10.9272,10.9272,0,0,0,346.9,213.7Z"/>
        <path d="M270.4,184.2c-.2-.4-.3-.8-.5-1.2-3.5,1.2-7.1,2.3-10.6,3.5a3.5823,3.5823,0,0,0,.4,1.1C263.2,186.5,266.8,185.3,270.4,184.2Z"/>
      </g>
    </g>
  </g>
</svg>
